STARTFONT 2.1
FONT -Adobe-New Century Schoolbook-Medium-R-Normal--34-240-100-100-P-181-ISO10646-1
SIZE 24 100 100
FONTBOUNDINGBOX 39 50 -6 -11
COMMENT ISO10646-1 extension by Markus Kuhn <mkuhn@acm.org>, 2001-03-20
COMMENT 
COMMENT +
COMMENT  Copyright 1984-1989, 1994 Adobe Systems Incorporated.
COMMENT  Copyright 1988, 1994 Digital Equipment Corporation.
COMMENT
COMMENT  Adobe is a trademark of Adobe Systems Incorporated which may be
COMMENT  registered in certain jurisdictions.
COMMENT  Permission to use these trademarks is hereby granted only in
COMMENT  association with the images described in this file.
COMMENT
COMMENT  Permission to use, copy, modify, distribute and sell this software
COMMENT  and its documentation for any purpose and without fee is hereby
COMMENT  granted, provided that the above copyright notices appear in all
COMMENT  copies and that both those copyright notices and this permission
COMMENT  notice appear in supporting documentation, and that the names of
COMMENT  Adobe Systems and Digital Equipment Corporation not be used in
COMMENT  advertising or publicity pertaining to distribution of the software
COMMENT  without specific, written prior permission.  Adobe Systems and
COMMENT  Digital Equipment Corporation make no representations about the
COMMENT  suitability of this software for any purpose.  It is provided "as
COMMENT  is" without express or implied warranty.
COMMENT -
STARTPROPERTIES 26
FOUNDRY "Adobe"
FAMILY_NAME "New Century Schoolbook"
WEIGHT_NAME "Medium"
SLANT "R"
SETWIDTH_NAME "Normal"
ADD_STYLE_NAME ""
PIXEL_SIZE 34
POINT_SIZE 240
RESOLUTION_X 100
RESOLUTION_Y 100
SPACING "P"
AVERAGE_WIDTH 181
CHARSET_REGISTRY "ISO10646"
CHARSET_ENCODING "1"
CAP_HEIGHT 25
X_HEIGHT 16
FONT_ASCENT 29
FONT_DESCENT 7
FACE_NAME "New Century Schoolbook Roman"
COPYRIGHT "Copyright (c) 1984, 1987 Adobe Systems Incorporated. All Rights Reserved. Copyright (c) 1988, 1991 Digital Equipment Corporation. All Rights Reserved."

STARTCHAR char0
ENCODING 0
SWIDTH 833 0
DWIDTH 27 0
BBX 25 25 1 0
BITMAP
AAAAAA80
00000000
80000080
00000000
80000080
00000000
80000080
00000000
80000080
00000000
80000080
00000000
80000080
00000000
80000080
00000000
80000080
00000000
80000080
00000000
80000080
00000000
80000080
00000000
AAAAAA80
ENDCHAR
STARTCHAR space
ENCODING 32
SWIDTH 278 0
DWIDTH 9 0
BBX 1 1 1 0
BITMAP
00
ENDCHAR
STARTCHAR exclam
ENCODING 33
SWIDTH 296 0
DWIDTH 10 0
BBX 4 25 3 0
BITMAP
60
F0
F0
F0
F0
F0
F0
60
60
60
60
60
60
60
60
60
60
60
00
00
00
60
F0
F0
60
ENDCHAR
STARTCHAR quotedbl
ENCODING 34
SWIDTH 389 0
DWIDTH 13 0
BBX 9 8 2 17
BITMAP
E380
E380
E380
E380
4100
4100
4100
4100
ENDCHAR
STARTCHAR numbersign
ENCODING 35
SWIDTH 556 0
DWIDTH 19 0
BBX 16 23 2 0
BITMAP
030C
030C
030C
071C
0618
0618
0618
7FFF
7FFF
0618
0E38
0C38
0C30
FFFE
FFFE
0C30
0C30
1C70
1C70
1860
1860
1860
1860
ENDCHAR
STARTCHAR dollar
ENCODING 36
SWIDTH 556 0
DWIDTH 18 0
BBX 14 31 2 -4
BITMAP
0200
0200
0200
0FC0
3FF0
7270
E238
C278
C278
C230
C200
E200
FA00
7F00
3FC0
1FF0
03F8
027C
023C
621C
F20C
F20C
E21C
C218
E278
7FF0
1FC0
0200
0200
0200
0200
ENDCHAR
STARTCHAR percent
ENCODING 37
SWIDTH 833 0
DWIDTH 27 0
BBX 24 25 1 -1
BITMAP
038020
0FC0E0
1CE3C0
387FC0
386180
706180
706300
F06300
E06600
E0C400
E0CC00
E1881C
73187E
3E10E3
0031C3
0063C3
006383
00C783
00C703
018706
018706
03070C
020398
0601F0
040000
ENDCHAR
STARTCHAR ampersand
ENCODING 38
SWIDTH 815 0
DWIDTH 27 0
BBX 22 25 2 0
BITMAP
01F800
07BC00
061C00
0E0E00
0E0E00
0E0E00
0E0C00
0E1C00
0F3800
0F7000
07E000
078000
0FC7FC
3BC1F0
71E0E0
71F0C0
E0F0C0
E0F980
E07D80
F03F04
F01E04
F80F0C
7E3FF8
3FF3F8
1FC1E0
ENDCHAR
STARTCHAR quotesingle
ENCODING 39
SWIDTH 204 0
DWIDTH 7 0
BBX 3 8 2 17
BITMAP
E0
E0
E0
E0
40
40
40
40
ENDCHAR
STARTCHAR parenleft
ENCODING 40
SWIDTH 333 0
DWIDTH 11 0
BBX 8 29 2 -4
BITMAP
01
07
06
0C
18
30
30
30
60
60
60
60
E0
E0
E0
E0
E0
60
60
60
60
30
30
10
18
0C
06
07
03
ENDCHAR
STARTCHAR parenright
ENCODING 41
SWIDTH 333 0
DWIDTH 11 0
BBX 8 29 2 -4
BITMAP
C0
E0
60
30
18
08
0C
0C
06
06
06
06
07
07
07
07
07
06
06
06
06
0C
0C
1C
18
30
60
C0
C0
ENDCHAR
STARTCHAR asterisk
ENCODING 42
SWIDTH 500 0
DWIDTH 17 0
BBX 12 14 2 11
BITMAP
0600
0600
0600
C670
E670
7FE0
1F80
1F00
7FC0
E670
C670
0600
0600
0600
ENDCHAR
STARTCHAR plus
ENCODING 43
SWIDTH 606 0
DWIDTH 20 0
BBX 16 17 2 -1
BITMAP
0180
0180
0180
0180
0180
0180
0180
FFFF
FFFF
0180
0180
0180
0180
0180
0180
0180
0180
ENDCHAR
STARTCHAR comma
ENCODING 44
SWIDTH 278 0
DWIDTH 9 0
BBX 5 10 2 -6
BITMAP
70
F8
F8
78
18
18
30
60
E0
80
ENDCHAR
STARTCHAR hyphen
ENCODING 45
SWIDTH 333 0
DWIDTH 11 0
BBX 8 3 1 7
BITMAP
FF
FF
FF
ENDCHAR
STARTCHAR period
ENCODING 46
SWIDTH 278 0
DWIDTH 9 0
BBX 4 4 2 0
BITMAP
60
F0
F0
60
ENDCHAR
STARTCHAR slash
ENCODING 47
SWIDTH 278 0
DWIDTH 9 0
BBX 10 25 -1 0
BITMAP
00C0
00C0
00C0
0180
0180
0180
0300
0300
0300
0600
0600
0600
0C00
0C00
0C00
1800
1800
1800
3000
3000
3000
6000
6000
6000
C000
ENDCHAR
STARTCHAR zero
ENCODING 48
SWIDTH 556 0
DWIDTH 18 0
BBX 16 24 2 0
BITMAP
03C0
0FF0
1C38
1818
381C
781E
700E
F00F
F00F
F00F
F00F
F00F
F00F
F00F
F00F
F00F
F00F
700E
781E
381C
1818
1C38
0FF0
03C0
ENDCHAR
STARTCHAR one
ENCODING 49
SWIDTH 556 0
DWIDTH 18 0
BBX 13 24 3 0
BITMAP
0300
0700
FF00
0700
0700
0700
0700
0700
0700
0700
0700
0700
0700
0700
0700
0700
0700
0700
0700
0700
0700
0700
0F80
FFF8
ENDCHAR
STARTCHAR two
ENCODING 50
SWIDTH 556 0
DWIDTH 18 0
BBX 15 24 1 0
BITMAP
07E0
1FF8
381C
601E
700E
780E
780E
780E
301E
001C
001C
0038
0078
0070
00E0
01C0
0380
0702
0E02
1C06
3806
7FFE
FFFE
FFFE
ENDCHAR
STARTCHAR three
ENCODING 51
SWIDTH 556 0
DWIDTH 18 0
BBX 15 24 1 0
BITMAP
07E0
1FF8
3838
701C
781C
781C
301C
001C
0038
0070
01E0
0FF0
00F8
003C
001C
001E
600E
F00E
F00E
F01E
E01C
787C
3FF0
0FC0
ENDCHAR
STARTCHAR four
ENCODING 52
SWIDTH 556 0
DWIDTH 18 0
BBX 16 24 1 0
BITMAP
0030
0030
0070
00F0
01F0
01F0
0370
0670
0670
0C70
1870
1870
3070
6070
6070
C070
FFFF
FFFF
0070
0070
0070
0070
00F8
03FE
ENDCHAR
STARTCHAR five
ENCODING 53
SWIDTH 556 0
DWIDTH 18 0
BBX 14 24 2 0
BITMAP
3808
3FF8
3FF0
3FE0
3000
3000
2000
6000
63C0
6FF0
7C78
7038
603C
001C
001C
001C
601C
F01C
F01C
F03C
E038
7078
7FF0
1F80
ENDCHAR
STARTCHAR six
ENCODING 54
SWIDTH 556 0
DWIDTH 18 0
BBX 15 24 1 0
BITMAP
03F0
0FFC
1C3E
381E
381E
300C
7000
7000
7000
F1E0
F7F8
FE3C
FC1C
F81E
F00E
F00E
F00E
700E
700E
701E
381C
383C
1FF0
07C0
ENDCHAR
STARTCHAR seven
ENCODING 55
SWIDTH 556 0
DWIDTH 18 0
BBX 13 24 3 0
BITMAP
FFF8
FFF8
FFF8
C010
C030
8020
8060
8040
00C0
00C0
0180
0180
0180
0300
0300
0300
0700
0700
0700
0F00
0F00
0F00
0F00
0600
ENDCHAR
STARTCHAR eight
ENCODING 56
SWIDTH 556 0
DWIDTH 18 0
BBX 15 24 1 0
BITMAP
07E0
1FF8
3C38
381C
701C
700C
700C
7818
3C38
3F70
1FE0
07F0
07F8
1DFC
387C
701E
701E
E00E
E00E
E00E
701C
783C
3FF8
0FE0
ENDCHAR
STARTCHAR nine
ENCODING 57
SWIDTH 556 0
DWIDTH 18 0
BBX 15 24 1 0
BITMAP
0FC0
3FF0
7878
7038
F03C
E01C
E01C
E01E
E01E
F01E
F03E
787E
787E
3FDE
1F9E
001E
001C
001C
6038
F038
F070
F1E0
7FC0
3F00
ENDCHAR
STARTCHAR colon
ENCODING 58
SWIDTH 278 0
DWIDTH 9 0
BBX 4 16 3 0
BITMAP
60
F0
F0
60
00
00
00
00
00
00
00
00
60
F0
F0
60
ENDCHAR
STARTCHAR semicolon
ENCODING 59
SWIDTH 278 0
DWIDTH 9 0
BBX 5 21 1 -5
BITMAP
30
78
78
30
00
00
00
00
00
00
00
00
30
78
78
38
18
10
30
60
C0
ENDCHAR
STARTCHAR less
ENCODING 60
SWIDTH 606 0
DWIDTH 20 0
BBX 16 18 2 -1
BITMAP
0001
0007
001F
007C
01F0
07C0
1F00
7C00
F000
F000
7C00
1F00
07C0
01F0
007C
001F
0007
0001
ENDCHAR
STARTCHAR equal
ENCODING 61
SWIDTH 606 0
DWIDTH 20 0
BBX 16 8 2 4
BITMAP
FFFF
FFFF
0000
0000
0000
0000
FFFF
FFFF
ENDCHAR
STARTCHAR greater
ENCODING 62
SWIDTH 606 0
DWIDTH 20 0
BBX 16 18 2 -1
BITMAP
8000
E000
F800
3E00
0F80
03E0
00F8
003E
000F
000F
003E
00F8
03E0
0F80
3E00
F800
E000
8000
ENDCHAR
STARTCHAR question
ENCODING 63
SWIDTH 444 0
DWIDTH 14 0
BBX 12 25 1 0
BITMAP
3F80
73E0
C0E0
C0F0
E070
E070
E070
00F0
00F0
01E0
01C0
0380
0300
0600
0400
0400
0C00
0C00
0000
0000
0000
0C00
1E00
1E00
0C00
ENDCHAR
STARTCHAR at
ENCODING 64
SWIDTH 737 0
DWIDTH 25 0
BBX 22 25 1 0
BITMAP
00FE00
03FF80
0F87C0
1E00E0
1C0070
300038
300018
60FB98
61CF8C
E38F8C
C7878C
C7070C
CF070C
CF0F08
CE0F18
CE0E18
CE1E30
663E60
677EC0
33E798
380038
1C0070
0F81E0
07FF80
00FE00
ENDCHAR
STARTCHAR A
ENCODING 65
SWIDTH 722 0
DWIDTH 23 0
BBX 23 25 0 0
BITMAP
001000
003800
003800
007800
007C00
007C00
00DC00
00DE00
019E00
018E00
018F00
030700
030780
030780
060380
07FFC0
07FFC0
0C01C0
0C01E0
0C01E0
1800F0
1800F0
3800F8
7C01FC
FE03FE
ENDCHAR
STARTCHAR B
ENCODING 66
SWIDTH 722 0
DWIDTH 23 0
BBX 20 25 1 0
BITMAP
FFFE00
3FFF80
0E07C0
0E01C0
0E01E0
0E01E0
0E01E0
0E01E0
0E01C0
0E01C0
0E0380
0FFF00
0FFC00
0E0F80
0E03C0
0E01E0
0E00F0
0E00F0
0E00F0
0E00F0
0E00F0
0E01E0
0E03E0
3FFFC0
FFFF00
ENDCHAR
STARTCHAR C
ENCODING 67
SWIDTH 722 0
DWIDTH 22 0
BBX 20 25 1 0
BITMAP
01FC60
07FF60
0E03E0
1C01E0
3C00E0
3800E0
780060
780060
F00020
F00020
F00000
F00000
F00000
F00000
F00000
F00000
F00030
780030
780030
780060
3C0060
1C00C0
0F0380
07FF00
01FC00
ENDCHAR
STARTCHAR D
ENCODING 68
SWIDTH 778 0
DWIDTH 25 0
BBX 22 25 1 0
BITMAP
FFFE00
3FFFC0
0E03E0
0E00F0
0E0070
0E0078
0E0078
0E003C
0E003C
0E003C
0E003C
0E003C
0E003C
0E003C
0E003C
0E003C
0E003C
0E003C
0E0038
0E0078
0E0070
0E00E0
0E03E0
3FFFC0
FFFE00
ENDCHAR
STARTCHAR E
ENCODING 69
SWIDTH 722 0
DWIDTH 24 0
BBX 20 25 1 0
BITMAP
FFFFF0
3FFFF0
0E01F0
0E0070
0E0070
0E0030
0E0430
0E0410
0E0410
0E0C00
0E3C00
0FFC00
0FFC00
0E3C00
0E0C00
0E0C00
0E0410
0E0410
0E0010
0E0030
0E0030
0E0070
0E01F0
3FFFF0
FFFFF0
ENDCHAR
STARTCHAR F
ENCODING 70
SWIDTH 667 0
DWIDTH 22 0
BBX 20 25 1 0
BITMAP
FFFFF0
3FFFF0
0E01F0
0E0070
0E0030
0E0030
0E0010
0E0410
0E0410
0E0C00
0E0C00
0E3C00
0FFC00
0FFC00
0E1C00
0E0C00
0E0400
0E0400
0E0400
0E0000
0E0000
0E0000
0E0000
3F8000
FFE000
ENDCHAR
STARTCHAR G
ENCODING 71
SWIDTH 778 0
DWIDTH 24 0
BBX 24 25 1 0
BITMAP
01FE30
07FFB0
0F03F0
1E00F0
3C0070
380070
780030
700030
700010
F00010
F00000
F00000
F00000
F00000
F007FF
F000F8
F00070
700070
700070
780070
3800F0
1C00F0
0F01B0
07FF30
01FE10
ENDCHAR
STARTCHAR H
ENCODING 72
SWIDTH 833 0
DWIDTH 27 0
BBX 25 25 1 0
BITMAP
FFE3FF80
3F80FE00
0E003800
0E003800
0E003800
0E003800
0E003800
0E003800
0E003800
0E003800
0E003800
0FFFF800
0FFFF800
0E003800
0E003800
0E003800
0E003800
0E003800
0E003800
0E003800
0E003800
0E003800
0E003800
3F80FE00
FFE3FF80
ENDCHAR
STARTCHAR I
ENCODING 73
SWIDTH 407 0
DWIDTH 13 0
BBX 11 25 1 0
BITMAP
FFE0
3F80
0E00
0E00
0E00
0E00
0E00
0E00
0E00
0E00
0E00
0E00
0E00
0E00
0E00
0E00
0E00
0E00
0E00
0E00
0E00
0E00
0E00
3F80
FFE0
ENDCHAR
STARTCHAR J
ENCODING 74
SWIDTH 556 0
DWIDTH 18 0
BBX 17 25 0 0
BITMAP
03FF80
007C00
003800
003800
003800
003800
003800
003800
003800
003800
003800
003800
003800
003800
003800
003800
703800
F83800
F83800
F83800
F03800
C07800
E07000
7FF000
1FC000
ENDCHAR
STARTCHAR K
ENCODING 75
SWIDTH 778 0
DWIDTH 25 0
BBX 25 25 1 0
BITMAP
FFE3FF00
3F81FC00
0E00F000
0E00E000
0E01C000
0E018000
0E030000
0E060000
0E0E0000
0E1C0000
0E380000
0E7C0000
0EFE0000
0FDE0000
0F8F0000
0F078000
0E07C000
0E03C000
0E01E000
0E01F000
0E00F000
0E007800
0E007C00
3F003E00
FFC0FF80
ENDCHAR
STARTCHAR L
ENCODING 76
SWIDTH 667 0
DWIDTH 22 0
BBX 20 25 1 0
BITMAP
FFE000
3F8000
0E0000
0E0000
0E0000
0E0000
0E0000
0E0000
0E0000
0E0000
0E0000
0E0000
0E0000
0E0000
0E0000
0E0000
0E0010
0E0010
0E0010
0E0030
0E0030
0E0070
0E01F0
3FFFE0
FFFFE0
ENDCHAR
STARTCHAR M
ENCODING 77
SWIDTH 944 0
DWIDTH 30 0
BBX 29 25 0 0
BITMAP
7F800FF8
1F800FC0
0F800F80
0FC00F80
0DC01B80
0DC01B80
0DE01380
0CE03380
0CE03380
0CF02380
0C706380
0C706380
0C786380
0C38C380
0C38C380
0C3CC380
0C1C8380
0C1D8380
0C1F8380
0C1F0380
0C0F0380
0C0F0380
0C0E0380
3F060FE0
FFC63FF8
ENDCHAR
STARTCHAR N
ENCODING 78
SWIDTH 815 0
DWIDTH 28 0
BBX 26 25 1 0
BITMAP
FF00FFC0
1F003F00
0F800C00
0FC00C00
0FC00C00
0DE00C00
0DF00C00
0CF80C00
0C780C00
0C7C0C00
0C3E0C00
0C1E0C00
0C1F0C00
0C0F8C00
0C078C00
0C07CC00
0C03CC00
0C01EC00
0C00EC00
0C00FC00
0C007C00
0C003C00
0C003C00
3F001C00
FFC00C00
ENDCHAR
STARTCHAR O
ENCODING 79
SWIDTH 778 0
DWIDTH 24 0
BBX 22 25 1 0
BITMAP
01FE00
07FF80
0F03C0
1C00E0
3C00F0
380070
780078
700038
F0003C
F0003C
E0001C
E0001C
E0001C
E0001C
E0001C
F0003C
F00038
700038
780078
380070
3C00F0
1C00E0
0F03C0
07FF80
01FE00
ENDCHAR
STARTCHAR P
ENCODING 80
SWIDTH 667 0
DWIDTH 22 0
BBX 20 25 1 0
BITMAP
FFFE00
3FFF80
0E07C0
0E01E0
0E00F0
0E00F0
0E0070
0E0070
0E00F0
0E00F0
0E01E0
0E07C0
0FFF80
0FFE00
0E0000
0E0000
0E0000
0E0000
0E0000
0E0000
0E0000
0E0000
0E0000
3F8000
FFE000
ENDCHAR
STARTCHAR Q
ENCODING 81
SWIDTH 778 0
DWIDTH 24 0
BBX 23 31 1 -6
BITMAP
00FE00
03FF80
0F01E0
1E00F0
3C0078
380038
78003C
70001C
F0001E
F0001E
E0000E
E0000E
E0000E
E0000E
F0001E
F0001E
707C1C
79DE3C
798738
3D0370
1D0370
1F03E0
0F83C0
03FF80
00FFC0
0003C6
0001C6
0001E4
0001FC
0000F8
000070
ENDCHAR
STARTCHAR R
ENCODING 82
SWIDTH 722 0
DWIDTH 23 0
BBX 21 25 1 0
BITMAP
FFFE00
3FFF80
0E07C0
0E01C0
0E01E0
0E00E0
0E00E0
0E01E0
0E01E0
0E01C0
0E03C0
0E0F00
0FFC00
0FFE00
0E0F00
0E0700
0E0780
0E0380
0E0380
0E0388
0E0388
0E0388
0E03D8
3F81F0
FFE1E0
ENDCHAR
STARTCHAR S
ENCODING 83
SWIDTH 630 0
DWIDTH 20 0
BBX 17 25 2 0
BITMAP
0FF100
3FFB00
701F00
600700
E00700
E00300
E00100
F00100
F00000
7E0000
7FE000
1FFC00
07FE00
007F00
000F80
800780
800380
C00380
C00380
C00380
E00780
F00700
F80E00
DFFC00
87F000
ENDCHAR
STARTCHAR T
ENCODING 84
SWIDTH 667 0
DWIDTH 21 0
BBX 19 25 1 0
BITMAP
FFFFE0
FFFFE0
F0E3E0
E0E0E0
C0E060
C0E060
80E020
80E020
80E020
00E000
00E000
00E000
00E000
00E000
00E000
00E000
00E000
00E000
00E000
00E000
00E000
00E000
00E000
03F800
0FFE00
ENDCHAR
STARTCHAR U
ENCODING 85
SWIDTH 815 0
DWIDTH 26 0
BBX 26 25 0 0
BITMAP
FFE0FFC0
3F803F00
0E000C00
0E000C00
0E000C00
0E000C00
0E000C00
0E000C00
0E000C00
0E000C00
0E000C00
0E000C00
0E000C00
0E000C00
0E000C00
0E000C00
0E000C00
0E000C00
0E000C00
0F001800
07001800
07803000
03E0F000
01FFC000
007F0000
ENDCHAR
STARTCHAR V
ENCODING 86
SWIDTH 722 0
DWIDTH 23 0
BBX 23 25 0 0
BITMAP
FFC3FE
3E00F8
1E0070
1E0070
0E0060
0F0060
0F0040
0700C0
0780C0
078080
038180
03C180
03C100
01C300
01E300
01E200
00E600
00F600
00F400
007C00
007C00
003800
003800
003800
001000
ENDCHAR
STARTCHAR W
ENCODING 87
SWIDTH 981 0
DWIDTH 31 0
BBX 31 25 0 0
BITMAP
FF1FF1FE
7E07C07C
3C038038
1C038030
1E03C030
1E03C060
0E03C060
0E03E060
0F03E060
0706E0C0
0706E0C0
0784F0C0
078C70C0
038C7180
038C7980
03C83980
01D83900
01F83F00
01F81F00
00F01F00
00F01E00
00F01E00
00E00E00
00600C00
00600C00
ENDCHAR
STARTCHAR X
ENCODING 88
SWIDTH 704 0
DWIDTH 22 0
BBX 23 25 0 0
BITMAP
FFC7FC
3F01F0
1F00E0
0F01C0
0F8180
078380
03C300
03E600
01EE00
00FC00
00F800
007800
007C00
007C00
00FE00
01DF00
018F00
038780
030780
0603C0
0E03E0
0C01E0
1C00F0
3E00F8
FF87FE
ENDCHAR
STARTCHAR Y
ENCODING 89
SWIDTH 704 0
DWIDTH 23 0
BBX 23 25 0 0
BITMAP
FF83FE
7E00F8
3E0070
1E0060
0F00E0
0F00C0
078180
07C180
03C300
03E300
01E600
00F600
00FC00
007C00
007800
003800
003800
003800
003800
003800
003800
003800
003800
00FE00
03FF80
ENDCHAR
STARTCHAR Z
ENCODING 90
SWIDTH 611 0
DWIDTH 19 0
BBX 17 25 1 0
BITMAP
7FFF80
7FFF80
780F00
700F00
601E00
603E00
603C00
407C00
407800
00F000
00F000
01E000
03E000
03C000
078000
078080
0F0080
1F0080
1E0180
3E0180
3C0180
780380
780780
FFFF80
FFFF80
ENDCHAR
STARTCHAR bracketleft
ENCODING 91
SWIDTH 333 0
DWIDTH 11 0
BBX 7 29 3 -4
BITMAP
FE
C0
C0
C0
C0
C0
C0
C0
C0
C0
C0
C0
C0
C0
C0
C0
C0
C0
C0
C0
C0
C0
C0
C0
C0
C0
C0
C0
FE
ENDCHAR
STARTCHAR backslash
ENCODING 92
SWIDTH 606 0
DWIDTH 20 0
BBX 15 25 2 0
BITMAP
E000
7000
7000
3800
3800
1C00
1C00
0E00
0E00
0700
0700
0380
0380
0380
01C0
01C0
00E0
00E0
0070
0070
0038
0038
001C
001C
000E
ENDCHAR
STARTCHAR bracketright
ENCODING 93
SWIDTH 333 0
DWIDTH 11 0
BBX 7 29 1 -4
BITMAP
FE
06
06
06
06
06
06
06
06
06
06
06
06
06
06
06
06
06
06
06
06
06
06
06
06
06
06
06
FE
ENDCHAR
STARTCHAR asciicircum
ENCODING 94
SWIDTH 606 0
DWIDTH 20 0
BBX 16 13 2 12
BITMAP
03C0
03C0
07E0
07E0
0E70
0E70
1C38
1C38
381C
381C
700E
700E
E007
ENDCHAR
STARTCHAR underscore
ENCODING 95
SWIDTH 500 0
DWIDTH 16 0
BBX 16 2 0 -4
BITMAP
FFFF
FFFF
ENDCHAR
STARTCHAR grave
ENCODING 96
SWIDTH 333 0
DWIDTH 11 0
BBX 7 6 1 17
BITMAP
C0
E0
70
38
0C
06
ENDCHAR
STARTCHAR a
ENCODING 97
SWIDTH 556 0
DWIDTH 17 0
BBX 16 16 1 0
BITMAP
0FC0
3FF0
7878
7038
6038
0038
01F8
0FF8
3C38
7038
E038
E038
E078
F1FD
7F9F
3E0E
ENDCHAR
STARTCHAR b
ENCODING 98
SWIDTH 556 0
DWIDTH 17 0
BBX 15 25 0 0
BITMAP
1800
F800
3800
3800
3800
3800
3800
3800
3800
39E0
3BF8
3E1C
3C1C
3C0E
380E
380E
380E
380E
380E
380E
3C0E
3C1C
3E1C
37F8
21E0
ENDCHAR
STARTCHAR c
ENCODING 99
SWIDTH 444 0
DWIDTH 14 0
BBX 12 16 1 0
BITMAP
0780
1FE0
3870
70F0
70F0
E060
E000
E000
E000
E000
E000
7010
7030
3860
3FC0
0F80
ENDCHAR
STARTCHAR d
ENCODING 100
SWIDTH 574 0
DWIDTH 18 0
BBX 16 25 1 0
BITMAP
000C
007C
001C
001C
001C
001C
001C
001C
001C
079C
1FDC
387C
703C
703C
E01C
E01C
E01C
E01C
E01C
E01C
F03C
703C
787C
1FDC
079F
ENDCHAR
STARTCHAR e
ENCODING 101
SWIDTH 500 0
DWIDTH 16 0
BBX 14 16 1 0
BITMAP
07C0
1FF0
3878
7038
601C
E01C
E01C
FFFC
E000
E000
E000
F004
700C
7838
3FF0
0FC0
ENDCHAR
STARTCHAR f
ENCODING 102
SWIDTH 333 0
DWIDTH 11 0
BBX 14 25 0 0
BITMAP
01F8
071C
0E1C
0C1C
1C08
1C00
1C00
1C00
1C00
FFC0
1C00
1C00
1C00
1C00
1C00
1C00
1C00
1C00
1C00
1C00
1C00
1C00
1C00
1C00
FFC0
ENDCHAR
STARTCHAR g
ENCODING 103
SWIDTH 537 0
DWIDTH 17 0
BBX 16 23 1 -7
BITMAP
079F
1FFB
3873
7038
7038
7038
7038
7038
3870
1FE0
3780
6000
6000
7FE0
7FF8
3FFC
303E
600E
E00E
E00E
F83C
7FF8
0FC0
ENDCHAR
STARTCHAR h
ENCODING 104
SWIDTH 611 0
DWIDTH 20 0
BBX 19 25 0 0
BITMAP
0C0000
FC0000
1C0000
1C0000
1C0000
1C0000
1C0000
1C0000
1C0000
1C7000
1DFC00
1F1E00
1E0E00
1C0700
1C0700
1C0700
1C0700
1C0700
1C0700
1C0700
1C0700
1C0700
1C0700
1C0700
FF3FE0
ENDCHAR
STARTCHAR i
ENCODING 105
SWIDTH 315 0
DWIDTH 10 0
BBX 9 24 1 0
BITMAP
1800
3C00
3C00
1800
0000
0000
0000
0000
1C00
FC00
1C00
1C00
1C00
1C00
1C00
1C00
1C00
1C00
1C00
1C00
1C00
1C00
1C00
FF80
ENDCHAR
STARTCHAR j
ENCODING 106
SWIDTH 296 0
DWIDTH 10 0
BBX 9 31 -2 -7
BITMAP
0300
0780
0780
0300
0000
0000
0000
0000
0380
1F80
0380
0380
0380
0380
0380
0380
0380
0380
0380
0380
0380
0380
0380
0380
0380
0380
4380
E300
E300
E600
7C00
ENDCHAR
STARTCHAR k
ENCODING 107
SWIDTH 593 0
DWIDTH 20 0
BBX 19 25 0 0
BITMAP
0C0000
FC0000
1C0000
1C0000
1C0000
1C0000
1C0000
1C0000
1C0000
1C7F80
1C1E00
1C1800
1C3000
1C6000
1CC000
1DC000
1FE000
1EF000
1C7800
1C3C00
1C1C00
1C0E00
1C0F00
1C0780
FF1FE0
ENDCHAR
STARTCHAR l
ENCODING 108
SWIDTH 315 0
DWIDTH 11 0
BBX 9 25 1 0
BITMAP
0C00
1C00
FC00
1C00
1C00
1C00
1C00
1C00
1C00
1C00
1C00
1C00
1C00
1C00
1C00
1C00
1C00
1C00
1C00
1C00
1C00
1C00
1C00
1C00
FF80
ENDCHAR
STARTCHAR m
ENCODING 109
SWIDTH 889 0
DWIDTH 27 0
BBX 27 16 0 0
BITMAP
1CF07800
FDFCFE00
1F1D8E00
1E0F0700
1E0F0700
1C0E0700
1C0E0700
1C0E0700
1C0E0700
1C0E0700
1C0E0700
1C0E0700
1C0E0700
1C0E0700
1C0E0700
FF3F9FE0
ENDCHAR
STARTCHAR n
ENCODING 110
SWIDTH 611 0
DWIDTH 19 0
BBX 19 16 0 0
BITMAP
1C7800
FDFE00
1F8E00
1E0700
1E0700
1C0700
1C0700
1C0700
1C0700
1C0700
1C0700
1C0700
1C0700
1C0700
1C0700
FF1FE0
ENDCHAR
STARTCHAR o
ENCODING 111
SWIDTH 500 0
DWIDTH 16 0
BBX 14 16 1 0
BITMAP
0780
1FE0
3870
7038
7038
E01C
E01C
E01C
E01C
E01C
E01C
7038
7038
3870
1FE0
0780
ENDCHAR
STARTCHAR p
ENCODING 112
SWIDTH 574 0
DWIDTH 19 0
BBX 16 23 1 -7
BITMAP
19F0
FBFC
3E1E
3C0E
3C07
3807
3807
3807
3807
3807
3807
3C0E
3C0E
3E1C
3BFC
39F0
3800
3800
3800
3800
3800
7C00
FF00
ENDCHAR
STARTCHAR q
ENCODING 113
SWIDTH 556 0
DWIDTH 17 0
BBX 16 23 1 -7
BITMAP
07C4
1FEC
383C
703C
701C
E01C
E01C
E01C
E01C
E01C
E01C
F03C
703C
387C
3FDC
0F9C
001C
001C
001C
001C
001C
003E
00FF
ENDCHAR
STARTCHAR r
ENCODING 114
SWIDTH 444 0
DWIDTH 15 0
BBX 14 16 0 0
BITMAP
1C78
FDFC
1F3C
1E3C
1E18
1C00
1C00
1C00
1C00
1C00
1C00
1C00
1C00
1C00
1C00
FF80
ENDCHAR
STARTCHAR s
ENCODING 115
SWIDTH 463 0
DWIDTH 15 0
BBX 11 16 2 0
BITMAP
1EC0
7FC0
E1C0
C0C0
C0C0
F040
FE00
7F80
3FC0
07E0
80E0
C060
C060
E0E0
FFC0
9F00
ENDCHAR
STARTCHAR t
ENCODING 116
SWIDTH 389 0
DWIDTH 13 0
BBX 12 23 0 0
BITMAP
0400
0400
0C00
0C00
1C00
1C00
3C00
FFE0
1C00
1C00
1C00
1C00
1C00
1C00
1C00
1C00
1C10
1C10
1C30
1C30
1E60
0FE0
07C0
ENDCHAR
STARTCHAR u
ENCODING 117
SWIDTH 611 0
DWIDTH 20 0
BBX 18 16 0 0
BITMAP
1C0700
FC3F00
1C0700
1C0700
1C0700
1C0700
1C0700
1C0700
1C0700
1C0700
1C0700
1C0F00
1C0F00
1E3F00
0FF7C0
07C700
ENDCHAR
STARTCHAR v
ENCODING 118
SWIDTH 537 0
DWIDTH 17 0
BBX 17 16 0 0
BITMAP
FF1F80
7C0700
3C0600
1E0600
1E0C00
0E0C00
0F0800
071800
071800
07B000
03B000
03E000
01E000
01E000
00C000
00C000
ENDCHAR
STARTCHAR w
ENCODING 119
SWIDTH 778 0
DWIDTH 24 0
BBX 24 16 0 0
BITMAP
FE7F3F
783C0E
381C0C
3C1C1C
1C1E18
1C1E18
0E3610
0E2730
0F6730
076760
074360
03C3C0
03C3C0
0381C0
018180
018180
ENDCHAR
STARTCHAR x
ENCODING 120
SWIDTH 537 0
DWIDTH 19 0
BBX 16 16 1 0
BITMAP
FF7F
3C1C
1E18
0E30
0F30
0760
03C0
03C0
01E0
03E0
0670
0C78
1C38
383C
781E
FE7F
ENDCHAR
STARTCHAR y
ENCODING 121
SWIDTH 537 0
DWIDTH 20 0
BBX 18 23 1 -7
BITMAP
FF1FC0
3C0700
3C0600
1C0600
1E0C00
0E0C00
0F0800
071800
071800
07B000
03B000
03E000
01E000
01E000
00C000
00C000
018000
018000
630000
F30000
E60000
FC0000
700000
ENDCHAR
STARTCHAR z
ENCODING 122
SWIDTH 481 0
DWIDTH 15 0
BBX 13 16 1 0
BITMAP
7FF8
7878
60F0
60E0
41E0
43C0
0380
0780
0F00
0E00
1E08
3C08
3818
7838
F0F8
FFF8
ENDCHAR
STARTCHAR braceleft
ENCODING 123
SWIDTH 333 0
DWIDTH 11 0
BBX 6 30 3 -4
BITMAP
0C
1C
38
30
30
30
30
30
30
30
30
30
30
70
E0
E0
70
30
30
30
30
30
30
30
30
30
30
38
1C
0C
ENDCHAR
STARTCHAR bar
ENCODING 124
SWIDTH 606 0
DWIDTH 20 0
BBX 2 25 9 0
BITMAP
C0
C0
C0
C0
C0
C0
C0
C0
C0
C0
C0
C0
C0
C0
C0
C0
C0
C0
C0
C0
C0
C0
C0
C0
C0
ENDCHAR
STARTCHAR braceright
ENCODING 125
SWIDTH 333 0
DWIDTH 11 0
BBX 6 30 2 -4
BITMAP
C0
E0
70
30
30
30
30
30
30
30
30
30
30
38
1C
1C
38
30
30
30
30
30
30
30
30
30
30
70
E0
C0
ENDCHAR
STARTCHAR asciitilde
ENCODING 126
SWIDTH 606 0
DWIDTH 20 0
BBX 16 4 2 6
BITMAP
1E03
7F87
E1FE
C078
ENDCHAR
STARTCHAR space
ENCODING 160
SWIDTH 278 0
DWIDTH 9 0
BBX 1 1 1 0
BITMAP
00
ENDCHAR
STARTCHAR exclamdown
ENCODING 161
SWIDTH 296 0
DWIDTH 10 0
BBX 4 25 3 -7
BITMAP
60
F0
F0
60
00
00
00
60
60
60
60
60
60
60
60
60
60
60
F0
F0
F0
F0
F0
F0
60
ENDCHAR
STARTCHAR cent
ENCODING 162
SWIDTH 556 0
DWIDTH 18 0
BBX 13 24 2 -4
BITMAP
0018
0018
0010
0030
07E0
1FF0
3870
7070
70F0
E0E0
E080
E180
E100
E300
E300
F210
7630
3C60
1FE0
0F80
0800
1800
1000
1000
ENDCHAR
STARTCHAR sterling
ENCODING 163
SWIDTH 556 0
DWIDTH 19 0
BBX 16 23 1 0
BITMAP
01F0
07FC
0E0E
0C0E
1C1E
1C1E
1C1C
1C00
1E00
0E00
0E00
FFF8
0F00
0700
0700
0700
0600
0600
7E03
DF07
8F8E
DFFC
70F0
ENDCHAR
STARTCHAR currency
ENCODING 164
SWIDTH 606 0
DWIDTH 19 0
BBX 16 17 1 3
BITMAP
43C2
EFF7
7FFE
3C3C
700E
700E
E007
E007
E007
E007
E007
700E
700E
3C3C
7FFE
EFF7
03C0
ENDCHAR
STARTCHAR yen
ENCODING 165
SWIDTH 704 0
DWIDTH 19 0
BBX 17 23 0 0
BITMAP
FF1F80
3C0F00
1C0600
1E0600
0E0400
0F0C00
070800
071800
039000
03B000
01E000
00E000
07FC00
07FC00
00E000
00E000
07FC00
07FC00
00E000
00E000
00E000
07F800
07F800
ENDCHAR
STARTCHAR brokenbar
ENCODING 166
SWIDTH 606 0
DWIDTH 20 0
BBX 2 25 9 0
BITMAP
C0
C0
C0
C0
C0
C0
C0
C0
C0
C0
00
00
00
00
00
C0
C0
C0
C0
C0
C0
C0
C0
C0
C0
ENDCHAR
STARTCHAR section
ENCODING 167
SWIDTH 500 0
DWIDTH 17 0
BBX 12 30 2 -5
BITMAP
0F00
39C0
30C0
71C0
71C0
7080
3800
3C00
1E00
0F00
3F80
63C0
C1E0
C0F0
C070
E030
F030
7830
3C60
1FC0
0F00
0780
03C0
01C0
10E0
38E0
38E0
30C0
39C0
0F00
ENDCHAR
STARTCHAR dieresis
ENCODING 168
SWIDTH 333 0
DWIDTH 11 0
BBX 9 3 1 19
BITMAP
6300
F780
6300
ENDCHAR
STARTCHAR copyright
ENCODING 169
SWIDTH 737 0
DWIDTH 25 0
BBX 24 25 0 0
BITMAP
007E00
03FF80
0781E0
0E0070
180038
30001C
307F0C
60E386
618186
438086
C30083
C70003
C70003
C70003
C70003
C30003
438006
61C186
61E38C
307E0C
180018
1C0070
0701E0
03FF80
007E00
ENDCHAR
STARTCHAR ordfeminine
ENCODING 170
SWIDTH 334 0
DWIDTH 11 0
BBX 11 14 0 11
BITMAP
3F00
6380
6180
6380
0F80
7980
E180
C180
E380
7DE0
0000
0000
0000
FFC0
ENDCHAR
STARTCHAR guillemotleft
ENCODING 171
SWIDTH 426 0
DWIDTH 14 0
BBX 11 11 1 2
BITMAP
0420
0C60
18C0
3180
7380
E700
7380
3180
18C0
0C60
0420
ENDCHAR
STARTCHAR logicalnot
ENCODING 172
SWIDTH 606 0
DWIDTH 20 0
BBX 16 9 1 3
BITMAP
FFFF
FFFF
0003
0003
0003
0003
0003
0003
0003
ENDCHAR
STARTCHAR hyphen
ENCODING 173
SWIDTH 333 0
DWIDTH 11 0
BBX 8 3 1 7
BITMAP
FF
FF
FF
ENDCHAR
STARTCHAR registered
ENCODING 174
SWIDTH 737 0
DWIDTH 25 0
BBX 24 24 0 0
BITMAP
007E00
03FFC0
0F01F0
1C0038
380018
33FC0C
60C70E
60C306
40C306
C0C303
C0C603
C0FC03
C0CC03
C0CE03
C0C603
60C706
60C306
60C38E
33E3CC
180018
1C0070
0700E0
03FFC0
007E00
ENDCHAR
STARTCHAR macron
ENCODING 175
SWIDTH 333 0
DWIDTH 11 0
BBX 10 2 0 19
BITMAP
FFC0
FFC0
ENDCHAR
STARTCHAR degree
ENCODING 176
SWIDTH 400 0
DWIDTH 13 0
BBX 9 9 2 14
BITMAP
3E00
7700
C180
C180
8080
C180
C180
7700
3E00
ENDCHAR
STARTCHAR plusminus
ENCODING 177
SWIDTH 606 0
DWIDTH 20 0
BBX 16 16 2 0
BITMAP
0180
0180
0180
0180
FFFF
FFFF
0180
0180
0180
0180
0180
0000
0000
0000
FFFF
FFFF
ENDCHAR
STARTCHAR twosuperior
ENCODING 178
SWIDTH 333 0
DWIDTH 11 0
BBX 10 14 0 9
BITMAP
3F00
7380
6180
7180
7180
0180
0300
0700
0E00
1C00
3840
7040
FFC0
FFC0
ENDCHAR
STARTCHAR threesuperior
ENCODING 179
SWIDTH 333 0
DWIDTH 11 0
BBX 9 14 1 9
BITMAP
3E00
6300
7180
6180
0180
0700
3E00
0700
0300
6180
E180
C380
E700
7E00
ENDCHAR
STARTCHAR acute
ENCODING 180
SWIDTH 333 0
DWIDTH 11 0
BBX 7 6 2 19
BITMAP
06
0E
1C
38
60
C0
ENDCHAR
STARTCHAR mu
ENCODING 181
SWIDTH 611 0
DWIDTH 20 0
BBX 17 23 1 -7
BITMAP
380E00
F83E00
380E00
380E00
380E00
380E00
380E00
380E00
380E00
380E00
380E00
381E00
381E00
3C7E00
3FEE00
2F8F80
200000
200000
700000
700000
700000
700000
200000
ENDCHAR
STARTCHAR paragraph
ENCODING 182
SWIDTH 606 0
DWIDTH 20 0
BBX 17 30 2 -5
BITMAP
0FFF80
3FFF80
78C600
F0C600
F0C600
F0C600
F0C600
F0C600
F0C600
F0C600
78C600
7CC600
3FC600
0FC600
00C600
00C600
00C600
00C600
00C600
00C600
00C600
00C600
00C600
00C600
00C600
00C600
00C600
00C600
03FF80
03FF80
ENDCHAR
STARTCHAR periodcentered
ENCODING 183
SWIDTH 278 0
DWIDTH 9 0
BBX 4 4 2 6
BITMAP
60
F0
F0
60
ENDCHAR
STARTCHAR cedilla
ENCODING 184
SWIDTH 333 0
DWIDTH 11 0
BBX 6 7 1 -7
BITMAP
10
20
78
0C
0C
8C
78
ENDCHAR
STARTCHAR onesuperior
ENCODING 185
SWIDTH 333 0
DWIDTH 11 0
BBX 8 14 1 9
BITMAP
38
F8
18
18
18
18
18
18
18
18
18
18
18
FF
ENDCHAR
STARTCHAR ordmasculine
ENCODING 186
SWIDTH 300 0
DWIDTH 10 0
BBX 11 14 -1 11
BITMAP
0E00
3B80
60C0
E0E0
C060
C060
E0E0
60C0
3B80
0E00
0000
0000
0000
7FC0
ENDCHAR
STARTCHAR guillemotright
ENCODING 187
SWIDTH 426 0
DWIDTH 14 0
BBX 11 11 1 2
BITMAP
8400
C600
6300
3180
39C0
1CE0
39C0
3180
6300
C600
8400
ENDCHAR
STARTCHAR onequarter
ENCODING 188
SWIDTH 834 0
DWIDTH 28 0
BBX 25 23 1 0
BITMAP
38001800
F8003000
18003000
18006000
1800C000
18008000
18018000
18030000
18060000
18060400
180C0C00
18181C00
18183C00
FF306C00
00604C00
00C0CC00
00C18C00
01830C00
0303FF80
03000C00
06000C00
0C000C00
08003F00
ENDCHAR
STARTCHAR onehalf
ENCODING 189
SWIDTH 834 0
DWIDTH 28 0
BBX 25 23 1 0
BITMAP
38001800
F8003000
18002000
18006000
1800C000
18018000
18018000
18030000
18060000
18063E00
180C6300
1818C180
1830C180
FF30E180
0060C300
00C00700
00C00E00
01801C00
03003800
03007080
0600E080
0C01FF80
0801FF80
ENDCHAR
STARTCHAR threequarters
ENCODING 190
SWIDTH 834 0
DWIDTH 28 0
BBX 25 23 1 0
BITMAP
3E000800
63001800
71803000
61803000
01806000
0700C000
1E018000
07018000
03830000
61860400
E1860C00
C38C1C00
E7183C00
7E306C00
0030CC00
0060CC00
00C18C00
00C30C00
0183FF80
03000C00
06000C00
06000C00
0C003F00
ENDCHAR
STARTCHAR questiondown
ENCODING 191
SWIDTH 444 0
DWIDTH 14 0
BBX 12 25 1 -7
BITMAP
0300
0780
0780
0300
0000
0000
0000
0300
0300
0200
0200
0600
0C00
1C00
3800
7800
7000
F000
E070
E070
E070
F030
7030
3CE0
1FC0
ENDCHAR
STARTCHAR Agrave
ENCODING 192
SWIDTH 722 0
DWIDTH 23 0
BBX 23 32 0 0
BITMAP
060000
070000
038000
01C000
006000
003000
000000
001000
003800
003800
007800
007C00
007C00
00DC00
00DE00
019E00
018E00
018F00
030700
030780
030780
060380
07FFC0
07FFC0
0C01C0
0C01E0
0C01E0
1800F0
1800F0
3800F8
7C01FC
FE03FE
ENDCHAR
STARTCHAR Aacute
ENCODING 193
SWIDTH 722 0
DWIDTH 23 0
BBX 23 32 0 0
BITMAP
000180
000380
000700
000E00
001800
003000
000000
001000
003800
003800
007800
007C00
007C00
00DC00
00DE00
019E00
018E00
018F00
030700
030780
030780
060380
07FFC0
07FFC0
0C01C0
0C01E0
0C01E0
1800F0
1800F0
3800F8
7C01FC
FE03FE
ENDCHAR
STARTCHAR Acircumflex
ENCODING 194
SWIDTH 722 0
DWIDTH 23 0
BBX 23 31 0 0
BITMAP
001800
003C00
007E00
00C300
018180
000000
001000
003800
003800
007800
007C00
007C00
00DC00
00DE00
019E00
018E00
018F00
030700
030780
030780
060380
07FFC0
07FFC0
0C01C0
0C01E0
0C01E0
1800F0
1800F0
3800F8
7C01FC
FE03FE
ENDCHAR
STARTCHAR Atilde
ENCODING 195
SWIDTH 722 0
DWIDTH 23 0
BBX 23 30 0 0
BITMAP
00F180
01FF00
031E00
000000
000000
001000
003800
003800
007800
007C00
007C00
00DC00
00DE00
019E00
018E00
018F00
030700
030780
030780
060380
07FFC0
07FFC0
0C01C0
0C01E0
0C01E0
1800F0
1800F0
3800F8
7C01FC
FE03FE
ENDCHAR
STARTCHAR Adieresis
ENCODING 196
SWIDTH 722 0
DWIDTH 23 0
BBX 23 30 0 0
BITMAP
018600
03CF00
018600
000000
000000
001000
003800
003800
007800
007C00
007C00
00DC00
00DE00
019E00
018E00
018F00
030700
030780
030780
060380
07FFC0
07FFC0
0C01C0
0C01E0
0C01E0
1800F0
1800F0
3800F8
7C01FC
FE03FE
ENDCHAR
STARTCHAR Aring
ENCODING 197
SWIDTH 722 0
DWIDTH 23 0
BBX 23 32 0 0
BITMAP
007800
00CC00
008400
008400
00CC00
007800
000000
001000
003800
003800
007800
007C00
007C00
00DC00
00DE00
019E00
018E00
018F00
030700
030780
030780
060380
07FFC0
07FFC0
0C01C0
0C01E0
0C01E0
1800F0
1800F0
3800F8
7C01FC
FE03FE
ENDCHAR
STARTCHAR AE
ENCODING 198
SWIDTH 1000 0
DWIDTH 32 0
BBX 30 25 0 0
BITMAP
01FFFFFC
007FFFFC
001DC07C
0019C01C
0019C01C
0031C00C
0031C08C
0061C084
0061C184
00C1C180
00C1C380
0181FF80
0181FF80
0301C380
03FFC180
07FFC180
0601C084
0C01C084
0C01C004
1801C00C
1801C00C
3001C01C
3001C07C
7807FFFC
FE1FFFFC
ENDCHAR
STARTCHAR Ccedilla
ENCODING 199
SWIDTH 722 0
DWIDTH 22 0
BBX 20 32 1 -7
BITMAP
00F860
03FF60
0F07E0
1C01E0
3C00E0
3800E0
780060
780060
F00060
F00020
F00000
F00000
F00000
F00000
F00000
F00000
F00030
780030
780020
780060
3C0060
1C00C0
0E0180
07CF00
01FE00
002000
004000
00F000
001800
001800
011800
00F000
ENDCHAR
STARTCHAR Egrave
ENCODING 200
SWIDTH 722 0
DWIDTH 24 0
BBX 20 32 1 0
BITMAP
030000
038000
01C000
00E000
003000
001800
000000
FFFFF0
3FFFF0
0E01F0
0E0070
0E0070
0E0030
0E0430
0E0410
0E0410
0E0C00
0E3C00
0FFC00
0FFC00
0E3C00
0E0C00
0E0C00
0E0410
0E0410
0E0010
0E0030
0E0030
0E0070
0E01F0
3FFFF0
FFFFF0
ENDCHAR
STARTCHAR Eacute
ENCODING 201
SWIDTH 722 0
DWIDTH 24 0
BBX 20 32 1 0
BITMAP
000180
000380
000700
000E00
001800
003000
000000
FFFFF0
3FFFF0
0E01F0
0E0070
0E0070
0E0030
0E0430
0E0410
0E0410
0E0C00
0E3C00
0FFC00
0FFC00
0E3C00
0E0C00
0E0C00
0E0410
0E0410
0E0010
0E0030
0E0030
0E0070
0E01F0
3FFFF0
FFFFF0
ENDCHAR
STARTCHAR Ecircumflex
ENCODING 202
SWIDTH 722 0
DWIDTH 24 0
BBX 20 32 1 0
BITMAP
003000
007800
00FC00
018600
030300
000000
000000
FFFFF0
3FFFF0
0E01F0
0E0070
0E0070
0E0030
0E0430
0E0410
0E0410
0E0C00
0E3C00
0FFC00
0FFC00
0E3C00
0E0C00
0E0C00
0E0410
0E0410
0E0010
0E0030
0E0030
0E0070
0E01F0
3FFFF0
FFFFF0
ENDCHAR
STARTCHAR Edieresis
ENCODING 203
SWIDTH 722 0
DWIDTH 24 0
BBX 20 30 1 0
BITMAP
00C600
01EF00
00C600
000000
000000
FFFFF0
3FFFF0
0E01F0
0E0070
0E0070
0E0030
0E0430
0E0410
0E0410
0E0C00
0E3C00
0FFC00
0FFC00
0E3C00
0E0C00
0E0C00
0E0410
0E0410
0E0010
0E0030
0E0030
0E0070
0E01F0
3FFFF0
FFFFF0
ENDCHAR
STARTCHAR Igrave
ENCODING 204
SWIDTH 407 0
DWIDTH 13 0
BBX 11 32 1 0
BITMAP
6000
7000
3800
1C00
0600
0300
0000
FFE0
3F80
0E00
0E00
0E00
0E00
0E00
0E00
0E00
0E00
0E00
0E00
0E00
0E00
0E00
0E00
0E00
0E00
0E00
0E00
0E00
0E00
0E00
3F80
FFE0
ENDCHAR
STARTCHAR Iacute
ENCODING 205
SWIDTH 407 0
DWIDTH 13 0
BBX 11 32 1 0
BITMAP
00C0
01C0
0380
0700
0C00
1800
0000
FFE0
3F80
0E00
0E00
0E00
0E00
0E00
0E00
0E00
0E00
0E00
0E00
0E00
0E00
0E00
0E00
0E00
0E00
0E00
0E00
0E00
0E00
0E00
3F80
FFE0
ENDCHAR
STARTCHAR Icircumflex
ENCODING 206
SWIDTH 407 0
DWIDTH 13 0
BBX 11 31 1 0
BITMAP
0600
0F00
1F80
30C0
6060
0000
FFE0
3F80
0E00
0E00
0E00
0E00
0E00
0E00
0E00
0E00
0E00
0E00
0E00
0E00
0E00
0E00
0E00
0E00
0E00
0E00
0E00
0E00
0E00
3F80
FFE0
ENDCHAR
STARTCHAR Idieresis
ENCODING 207
SWIDTH 407 0
DWIDTH 13 0
BBX 11 30 1 0
BITMAP
3180
7BC0
3180
0000
0000
FFE0
3F80
0E00
0E00
0E00
0E00
0E00
0E00
0E00
0E00
0E00
0E00
0E00
0E00
0E00
0E00
0E00
0E00
0E00
0E00
0E00
0E00
0E00
3F80
FFE0
ENDCHAR
STARTCHAR Eth
ENCODING 208
SWIDTH 778 0
DWIDTH 24 0
BBX 22 25 1 0
BITMAP
FFFC00
FFFF80
1E07C0
0E01E0
0E00F0
0E0070
0E0078
0E0078
0E0038
0E003C
0E003C
0E003C
7FE03C
7FE03C
0E003C
0E003C
0E003C
0E0038
0E0078
0E0078
0E0070
0E00E0
0E01C0
FFFF80
FFFE00
ENDCHAR
STARTCHAR Ntilde
ENCODING 209
SWIDTH 815 0
DWIDTH 28 0
BBX 26 30 1 0
BITMAP
001E3000
003FE000
0063C000
00000000
00000000
FF00FFC0
1F003F00
0F800C00
0FC00C00
0FC00C00
0DE00C00
0DF00C00
0CF80C00
0C780C00
0C7C0C00
0C3E0C00
0C1E0C00
0C1F0C00
0C0F8C00
0C078C00
0C07CC00
0C03CC00
0C01EC00
0C00EC00
0C00FC00
0C007C00
0C003C00
0C003C00
3F001C00
FFC00C00
ENDCHAR
STARTCHAR Ograve
ENCODING 210
SWIDTH 778 0
DWIDTH 24 0
BBX 22 32 1 0
BITMAP
060000
070000
038000
01C000
006000
003000
000000
01FE00
07FF80
0F03C0
1C00E0
3C00F0
380070
780078
780078
F0003C
F0003C
F0003C
F0003C
F0003C
F0003C
F0003C
F0003C
F00038
780078
780078
380070
3C00F0
1C00E0
0F03C0
07FF80
01FE00
ENDCHAR
STARTCHAR Oacute
ENCODING 211
SWIDTH 778 0
DWIDTH 24 0
BBX 22 32 1 0
BITMAP
000300
000700
000E00
001C00
003000
006000
000000
01FE00
07FF80
0F03C0
1C00E0
3C00F0
380070
780078
780078
F0003C
F0003C
F0003C
F0003C
F0003C
F0003C
F0003C
F0003C
F00038
780078
780078
380070
3C00F0
1C00E0
0F03C0
07FF80
01FE00
ENDCHAR
STARTCHAR Ocircumflex
ENCODING 212
SWIDTH 778 0
DWIDTH 24 0
BBX 22 31 1 0
BITMAP
003000
007800
00FC00
018600
030300
000000
01FE00
07FF80
0F03C0
1C00E0
3C00F0
380070
780078
780078
F0003C
F0003C
F0003C
F0003C
F0003C
F0003C
F0003C
F0003C
F00038
780078
780078
380070
3C00F0
1C00E0
0F03C0
07FF80
01FE00
ENDCHAR
STARTCHAR Otilde
ENCODING 213
SWIDTH 778 0
DWIDTH 24 0
BBX 22 30 1 0
BITMAP
00F180
01FF00
031E00
000000
000000
01FE00
07FF80
0F03C0
1C00E0
3C00F0
380070
780078
780078
F0003C
F0003C
F0003C
F0003C
F0003C
F0003C
F0003C
F0003C
F00038
780078
780078
380070
3C00F0
1C00E0
0F03C0
07FF80
01FE00
ENDCHAR
STARTCHAR Odieresis
ENCODING 214
SWIDTH 778 0
DWIDTH 24 0
BBX 22 30 1 0
BITMAP
00C600
01EF00
00C600
000000
000000
01FE00
07FF80
0F03C0
1C00E0
3C00F0
380070
780078
780078
F0003C
F0003C
F0003C
F0003C
F0003C
F0003C
F0003C
F0003C
F00038
780078
780078
380070
3C00F0
1C00E0
0F03C0
07FF80
01FE00
ENDCHAR
STARTCHAR multiply
ENCODING 215
SWIDTH 606 0
DWIDTH 20 0
BBX 17 15 2 1
BITMAP
E00380
700700
380E00
1C1C00
0E3800
077000
03E000
01C000
03E000
077000
0E3800
1C1C00
380E00
700700
E00380
ENDCHAR
STARTCHAR Oslash
ENCODING 216
SWIDTH 778 0
DWIDTH 24 0
BBX 22 28 1 -2
BITMAP
000018
01FE30
07FFB0
0E03E0
1C00E0
3C01F0
3801F0
780378
780678
F0063C
F00C3C
F0183C
F0383C
F0303C
F0603C
F0E03C
F0C03C
718038
7B0078
7B0078
3E0070
3C00F0
1E01E0
1F03C0
37FF80
71FE00
600000
C00000
ENDCHAR
STARTCHAR Ugrave
ENCODING 217
SWIDTH 815 0
DWIDTH 26 0
BBX 26 32 0 0
BITMAP
00300000
00380000
001C0000
000E0000
00030000
00018000
00000000
FFE0FFC0
3F803F00
0E000C00
0E000C00
0E000C00
0E000C00
0E000C00
0E000C00
0E000C00
0E000C00
0E000C00
0E000C00
0E000C00
0E000C00
0E000C00
0E000C00
0E000C00
0E000C00
0E000C00
0F001800
07001800
07803000
03E0F000
01FFC000
007F0000
ENDCHAR
STARTCHAR Uacute
ENCODING 218
SWIDTH 815 0
DWIDTH 26 0
BBX 26 32 0 0
BITMAP
00003000
00007000
0000E000
0001C000
00030000
00060000
00000000
FFE0FFC0
3F803F00
0E000C00
0E000C00
0E000C00
0E000C00
0E000C00
0E000C00
0E000C00
0E000C00
0E000C00
0E000C00
0E000C00
0E000C00
0E000C00
0E000C00
0E000C00
0E000C00
0E000C00
0F001800
07001800
07803000
03E0F000
01FFC000
007F0000
ENDCHAR
STARTCHAR Ucircumflex
ENCODING 219
SWIDTH 815 0
DWIDTH 26 0
BBX 26 31 0 0
BITMAP
00060000
000F0000
001F8000
0030C000
00606000
00000000
FFE0FFC0
3F803F00
0E000C00
0E000C00
0E000C00
0E000C00
0E000C00
0E000C00
0E000C00
0E000C00
0E000C00
0E000C00
0E000C00
0E000C00
0E000C00
0E000C00
0E000C00
0E000C00
0E000C00
0F001800
07001800
07803000
03E0F000
01FFC000
007F0000
ENDCHAR
STARTCHAR Udieresis
ENCODING 220
SWIDTH 815 0
DWIDTH 26 0
BBX 26 30 0 0
BITMAP
0030C000
0079E000
0030C000
00000000
00000000
FFE0FFC0
3F803F00
0E000C00
0E000C00
0E000C00
0E000C00
0E000C00
0E000C00
0E000C00
0E000C00
0E000C00
0E000C00
0E000C00
0E000C00
0E000C00
0E000C00
0E000C00
0E000C00
0E000C00
0F001800
07001800
07803000
03E0F000
01FFC000
007F0000
ENDCHAR
STARTCHAR Yacute
ENCODING 221
SWIDTH 704 0
DWIDTH 23 0
BBX 23 32 0 0
BITMAP
000180
000380
000700
000E00
001800
003000
000000
FF83FE
7E00F8
3E0070
1E0060
0F00E0
0F00C0
078180
07C180
03C300
03E300
01E600
00F600
00FC00
007C00
007800
003800
003800
003800
003800
003800
003800
003800
003800
00FE00
03FF80
ENDCHAR
STARTCHAR Thorn
ENCODING 222
SWIDTH 667 0
DWIDTH 22 0
BBX 20 25 1 0
BITMAP
FFE000
1F0000
0E0000
0E0000
0E0000
0E0000
0FFE00
0FFF80
0E03C0
0E01E0
0E00F0
0E00F0
0E00F0
0E00F0
0E00F0
0E01E0
0E03E0
0FFFC0
0FFF00
0E0000
0E0000
0E0000
0E0000
1F0000
FFE000
ENDCHAR
STARTCHAR germandbls
ENCODING 223
SWIDTH 574 0
DWIDTH 19 0
BBX 17 26 0 -1
BITMAP
03F800
079C00
0E0E00
0E0F00
1C0700
1C0700
1C0700
1C0700
1C0E00
1C0E00
1CF800
1CF800
1C0E00
1C0700
1C0700
1C0780
1C0380
1C0380
1C0380
1C0380
1C0380
1CE780
1CE700
3CE700
FCFE00
003800
ENDCHAR
STARTCHAR agrave
ENCODING 224
SWIDTH 556 0
DWIDTH 17 0
BBX 16 23 1 0
BITMAP
0C00
0E00
0700
0380
00C0
0060
0000
07C0
1FF0
7878
7038
7038
7038
01F8
0FF8
3C38
7038
E038
E038
E078
F0FD
7F9F
3F0E
ENDCHAR
STARTCHAR aacute
ENCODING 225
SWIDTH 556 0
DWIDTH 17 0
BBX 16 23 1 0
BITMAP
0030
0070
00E0
01C0
0300
0600
0000
07C0
1FF0
7878
7038
7038
7038
01F8
0FF8
3C38
7038
E038
E038
E078
F0FD
7F9F
3F0E
ENDCHAR
STARTCHAR acircumflex
ENCODING 226
SWIDTH 556 0
DWIDTH 17 0
BBX 16 22 1 0
BITMAP
0300
0780
0FC0
1860
3030
0000
07C0
1FF0
7878
7038
7038
7038
01F8
0FF8
3C38
7038
E038
E038
E078
F0FD
7F9F
3E0E
ENDCHAR
STARTCHAR atilde
ENCODING 227
SWIDTH 556 0
DWIDTH 17 0
BBX 16 21 1 0
BITMAP
0F18
1FF0
31E0
0000
0000
07C0
1FF0
7878
7038
7038
7038
01F8
0FF8
3C38
7038
E038
E038
E078
F0FD
7F9F
3E0E
ENDCHAR
STARTCHAR adieresis
ENCODING 228
SWIDTH 556 0
DWIDTH 17 0
BBX 16 21 1 0
BITMAP
0C60
1EF0
0C60
0000
0000
07C0
1FF0
7878
7038
7038
7038
01F8
0FF8
3C38
7038
E038
E038
E078
F0FD
7F9F
3E0E
ENDCHAR
STARTCHAR aring
ENCODING 229
SWIDTH 556 0
DWIDTH 17 0
BBX 16 23 1 0
BITMAP
0780
0CC0
0840
0840
0CC0
0780
0000
07C0
1FF0
7878
7038
7038
7038
01F8
0FF8
3C38
7038
E038
E038
E078
F0FD
7F9F
3E0E
ENDCHAR
STARTCHAR ae
ENCODING 230
SWIDTH 796 0
DWIDTH 25 0
BBX 23 16 1 0
BITMAP
0FC3E0
3FE7F8
707C1C
703C0C
70380E
70380E
01F80E
0FFFFE
3C3800
703800
F03800
E03C02
E07C06
F0FE1C
7FCFF8
3F03F0
ENDCHAR
STARTCHAR ccedilla
ENCODING 231
SWIDTH 444 0
DWIDTH 14 0
BBX 12 23 1 -7
BITMAP
0780
1FE0
3870
70F0
70F0
E060
E000
E000
E000
E000
F000
F010
7830
7C60
3FC0
0F00
0200
0400
0F00
0180
0180
1180
0F00
ENDCHAR
STARTCHAR egrave
ENCODING 232
SWIDTH 500 0
DWIDTH 16 0
BBX 14 23 1 0
BITMAP
1800
1C00
0E00
0700
0180
00C0
0000
07C0
1FF0
3838
7018
701C
F01C
F01C
FFFC
E000
E000
F000
F004
780C
3C38
1FF0
07C0
ENDCHAR
STARTCHAR eacute
ENCODING 233
SWIDTH 500 0
DWIDTH 16 0
BBX 14 23 1 0
BITMAP
0018
0038
0070
00E0
0180
0300
0000
07C0
1FF0
3878
7038
601C
E01C
E01C
FFFC
E000
E000
F000
F004
780C
3C38
1FF0
07C0
ENDCHAR
STARTCHAR ecircumflex
ENCODING 234
SWIDTH 500 0
DWIDTH 16 0
BBX 14 22 1 0
BITMAP
0300
0780
0FC0
1860
3030
0000
07C0
1FF0
3838
7018
701C
F01C
F01C
FFFC
E000
E000
F000
F004
780C
3C38
1FF0
07C0
ENDCHAR
STARTCHAR edieresis
ENCODING 235
SWIDTH 500 0
DWIDTH 16 0
BBX 14 21 1 0
BITMAP
0C60
1EF0
0C60
0000
0000
07C0
1FF0
3838
7018
701C
F01C
F01C
FFFC
E000
E000
F000
F004
780C
3C18
1FF0
07C0
ENDCHAR
STARTCHAR igrave
ENCODING 236
SWIDTH 315 0
DWIDTH 11 0
BBX 9 23 1 0
BITMAP
C000
E000
7000
3800
0C00
0600
0000
FC00
1C00
1C00
1C00
1C00
1C00
1C00
1C00
1C00
1C00
1C00
1C00
1C00
1C00
1C00
FF80
ENDCHAR
STARTCHAR iacute
ENCODING 237
SWIDTH 315 0
DWIDTH 11 0
BBX 9 23 1 0
BITMAP
0180
0380
0700
0E00
1800
3000
0000
FC00
1C00
1C00
1C00
1C00
1C00
1C00
1C00
1C00
1C00
1C00
1C00
1C00
1C00
1C00
FF80
ENDCHAR
STARTCHAR icircumflex
ENCODING 238
SWIDTH 315 0
DWIDTH 11 0
BBX 10 22 0 0
BITMAP
0C00
1E00
3F00
6180
C0C0
0000
7E00
0E00
0E00
0E00
0E00
0E00
0E00
0E00
0E00
0E00
0E00
0E00
0E00
0E00
0E00
7FC0
ENDCHAR
STARTCHAR idieresis
ENCODING 239
SWIDTH 315 0
DWIDTH 11 0
BBX 9 21 1 0
BITMAP
6300
F780
6300
0000
0000
FC00
1C00
1C00
1C00
1C00
1C00
1C00
1C00
1C00
1C00
1C00
1C00
1C00
1C00
1C00
FF80
ENDCHAR
STARTCHAR eth
ENCODING 240
SWIDTH 500 0
DWIDTH 17 0
BBX 14 25 1 0
BITMAP
3000
3C00
0EE0
07C0
0F80
0DC0
00E0
00F0
0070
07F8
1FF8
3878
703C
703C
E01C
E01C
E01C
E01C
E01C
E01C
F03C
7038
7878
3FF0
0FC0
ENDCHAR
STARTCHAR ntilde
ENCODING 241
SWIDTH 611 0
DWIDTH 19 0
BBX 19 21 0 0
BITMAP
03C600
07FC00
0C7800
000000
000000
1C7800
FDFE00
1F9E00
1E0F00
1E0700
1C0700
1C0700
1C0700
1C0700
1C0700
1C0700
1C0700
1C0700
1C0700
1C0700
FF1FE0
ENDCHAR
STARTCHAR ograve
ENCODING 242
SWIDTH 500 0
DWIDTH 16 0
BBX 14 23 1 0
BITMAP
3000
3800
1C00
0E00
0300
0180
0000
0780
1FE0
3870
7038
7038
E01C
E01C
E01C
E01C
E01C
E01C
F03C
7038
7878
1FE0
0780
ENDCHAR
STARTCHAR oacute
ENCODING 243
SWIDTH 500 0
DWIDTH 16 0
BBX 14 23 1 0
BITMAP
0018
0038
0070
00E0
0180
0300
0000
0780
1FE0
3870
7038
7038
E01C
E01C
E01C
E01C
E01C
E01C
F03C
7038
7878
1FE0
0780
ENDCHAR
STARTCHAR ocircumflex
ENCODING 244
SWIDTH 500 0
DWIDTH 16 0
BBX 14 22 1 0
BITMAP
0300
0780
0FC0
1860
3030
0000
0780
1FE0
3870
7038
7038
E01C
E01C
E01C
E01C
E01C
E01C
7038
7038
3870
1FE0
0780
ENDCHAR
STARTCHAR otilde
ENCODING 245
SWIDTH 500 0
DWIDTH 16 0
BBX 14 21 1 0
BITMAP
0F18
1FF0
31E0
0000
0000
0780
1FE0
3870
7038
7038
E01C
E01C
E01C
E01C
E01C
E01C
7038
7038
3870
1FE0
0780
ENDCHAR
STARTCHAR odieresis
ENCODING 246
SWIDTH 500 0
DWIDTH 16 0
BBX 14 21 1 0
BITMAP
18C0
3DE0
18C0
0000
0000
0780
1FE0
3870
7038
7038
E01C
E01C
E01C
E01C
E01C
E01C
7038
7038
3870
1FE0
0780
ENDCHAR
STARTCHAR divide
ENCODING 247
SWIDTH 606 0
DWIDTH 20 0
BBX 16 16 2 0
BITMAP
0180
03C0
03C0
0180
0000
0000
0000
FFFF
FFFF
0000
0000
0000
0180
03C0
03C0
0180
ENDCHAR
STARTCHAR oslash
ENCODING 248
SWIDTH 500 0
DWIDTH 16 0
BBX 14 22 1 -3
BITMAP
0018
0018
0030
07F0
1FF0
3870
70F8
70D8
E19C
E19C
E31C
E31C
E61C
E61C
EC38
7C38
7870
3FE0
3F80
3000
6000
6000
ENDCHAR
STARTCHAR ugrave
ENCODING 249
SWIDTH 611 0
DWIDTH 20 0
BBX 18 23 0 0
BITMAP
060000
070000
038000
01C000
006000
003000
000000
1C0700
FC3F00
1C0700
1C0700
1C0700
1C0700
1C0700
1C0700
1C0700
1C0700
1C0700
1C0F00
1C0F00
0E3F00
0FF7C0
07C700
ENDCHAR
STARTCHAR uacute
ENCODING 250
SWIDTH 611 0
DWIDTH 20 0
BBX 18 23 0 0
BITMAP
000C00
001C00
003800
007000
00C000
018000
000000
1C0700
FC3F00
1C0700
1C0700
1C0700
1C0700
1C0700
1C0700
1C0700
1C0700
1C0700
1C0F00
1C0F00
0E3F00
0FF7C0
07C700
ENDCHAR
STARTCHAR ucircumflex
ENCODING 251
SWIDTH 611 0
DWIDTH 20 0
BBX 18 22 0 0
BITMAP
00C000
01E000
03F000
061800
0C0C00
000000
1C0700
FC3F00
1C0700
1C0700
1C0700
1C0700
1C0700
1C0700
1C0700
1C0700
1C0700
1C0F00
1C0F00
0E3F00
0FF7C0
07C700
ENDCHAR
STARTCHAR udieresis
ENCODING 252
SWIDTH 611 0
DWIDTH 20 0
BBX 18 21 0 0
BITMAP
031800
07BC00
031800
000000
000000
1C0700
FC3F00
1C0700
1C0700
1C0700
1C0700
1C0700
1C0700
1C0700
1C0700
1C0700
1C0F00
1C0F00
0E3F00
0FF7C0
07C700
ENDCHAR
STARTCHAR yacute
ENCODING 253
SWIDTH 537 0
DWIDTH 19 0
BBX 17 30 1 -7
BITMAP
000C00
001C00
003800
007000
00C000
018000
000000
FF1F80
7C0700
3C0600
1C0600
1E0C00
0E0C00
0F0800
071800
071800
07B000
03B000
03E000
01E000
01E000
00C000
00C000
018000
018000
630000
E30000
E60000
FC0000
700000
ENDCHAR
STARTCHAR thorn
ENCODING 254
SWIDTH 574 0
DWIDTH 19 0
BBX 16 29 1 -7
BITMAP
3800
F800
3800
3800
3800
3800
38F0
3BFC
3F1E
3C0E
3C0F
3807
3807
3807
3807
3807
3807
3C0F
3C0E
3E1E
3BFC
39F0
3800
3800
3800
3800
3800
3800
FF00
ENDCHAR
STARTCHAR ydieresis
ENCODING 255
SWIDTH 537 0
DWIDTH 20 0
BBX 18 28 1 -7
BITMAP
031800
07BC00
031800
000000
000000
FF1FC0
7C0700
3C0600
1C0600
1E0C00
0E0C00
0F0800
071800
071800
07B000
03B000
03E000
01E000
01E000
00C000
00C000
018000
018000
630000
E30000
E60000
FC0000
700000
ENDCHAR
STARTCHAR Amacron
ENCODING 256
SWIDTH 722 0
DWIDTH 23 0
BBX 23 28 0 0
BITMAP
03FF00
03FF00
000000
001000
003800
003800
007800
007C00
007C00
00DC00
00DE00
019E00
018E00
018F00
030700
030780
030780
060380
07FFC0
07FFC0
0C01C0
0C01E0
0C01E0
1800F0
1800F0
3800F8
7C01FC
FE03FE
ENDCHAR
STARTCHAR amacron
ENCODING 257
SWIDTH 556 0
DWIDTH 17 0
BBX 16 19 1 0
BITMAP
3FF0
3FF0
0000
0FC0
3FF0
7878
7038
6038
0038
01F8
0FF8
3C38
7038
E038
E038
E078
F1FD
7F9F
3E0E
ENDCHAR
STARTCHAR Abreve
ENCODING 258
SWIDTH 722 0
DWIDTH 23 0
BBX 23 30 0 0
BITMAP
010100
018300
00FE00
003800
000000
001000
003800
003800
007800
007C00
007C00
00DC00
00DE00
019E00
018E00
018F00
030700
030780
030780
060380
07FFC0
07FFC0
0C01C0
0C01E0
0C01E0
1800F0
1800F0
3800F8
7C01FC
FE03FE
ENDCHAR
STARTCHAR abreve
ENCODING 259
SWIDTH 556 0
DWIDTH 17 0
BBX 16 21 1 0
BITMAP
1010
1830
0FE0
0380
0000
0FC0
3FF0
7878
7038
6038
0038
01F8
0FF8
3C38
7038
E038
E038
E078
F1FD
7F9F
3E0E
ENDCHAR
STARTCHAR Aogonek
ENCODING 260
SWIDTH 722 0
DWIDTH 23 0
BBX 23 30 0 -5
BITMAP
001000
003800
003800
007800
007C00
007C00
00DC00
00DE00
019E00
018E00
018F00
030700
030780
030780
060380
07FFC0
07FFC0
0C01C0
0C01E0
0C01E0
1800F0
1800F0
3800F8
7C01FC
FE03FE
000C00
001800
003800
003F00
001E00
ENDCHAR
STARTCHAR aogonek
ENCODING 261
SWIDTH 556 0
DWIDTH 17 0
BBX 16 21 1 -5
BITMAP
0FC0
3FF0
7878
7038
6038
0038
01F8
0FF8
3C38
7038
E038
E038
E078
F1FD
7F9F
3E0E
0180
0300
0700
07E0
03C0
ENDCHAR
STARTCHAR Cacute
ENCODING 262
SWIDTH 722 0
DWIDTH 22 0
BBX 20 32 1 0
BITMAP
000300
000700
000E00
001C00
003000
006000
000000
01FC60
07FF60
0E03E0
1C01E0
3C00E0
3800E0
780060
780060
F00020
F00020
F00000
F00000
F00000
F00000
F00000
F00000
F00030
780030
780030
780060
3C0060
1C00C0
0F0380
07FF00
01FC00
ENDCHAR
STARTCHAR cacute
ENCODING 263
SWIDTH 444 0
DWIDTH 14 0
BBX 12 23 1 0
BITMAP
0060
00E0
01C0
0380
0600
0C00
0000
0780
1FE0
3870
70F0
70F0
E060
E000
E000
E000
E000
E000
7010
7030
3860
3FC0
0F80
ENDCHAR
STARTCHAR Ccircumflex
ENCODING 264
SWIDTH 722 0
DWIDTH 22 0
BBX 20 31 1 0
BITMAP
003000
007800
00FC00
018600
030300
000000
01FC60
07FF60
0E03E0
1C01E0
3C00E0
3800E0
780060
780060
F00020
F00020
F00000
F00000
F00000
F00000
F00000
F00000
F00030
780030
780030
780060
3C0060
1C00C0
0F0380
07FF00
01FC00
ENDCHAR
STARTCHAR ccircumflex
ENCODING 265
SWIDTH 444 0
DWIDTH 14 0
BBX 12 22 1 0
BITMAP
0300
0780
0FC0
1860
3030
0000
0780
1FE0
3870
70F0
70F0
E060
E000
E000
E000
E000
E000
7010
7030
3860
3FC0
0F80
ENDCHAR
STARTCHAR Cdotaccent
ENCODING 266
SWIDTH 722 0
DWIDTH 22 0
BBX 20 29 1 0
BITMAP
003000
007800
003000
000000
01FC60
07FF60
0E03E0
1C01E0
3C00E0
3800E0
780060
780060
F00020
F00020
F00000
F00000
F00000
F00000
F00000
F00000
F00030
780030
780030
780060
3C0060
1C00C0
0F0380
07FF00
01FC00
ENDCHAR
STARTCHAR cdotaccent
ENCODING 267
SWIDTH 444 0
DWIDTH 14 0
BBX 12 20 1 0
BITMAP
0300
0780
0300
0000
0780
1FE0
3870
70F0
70F0
E060
E000
E000
E000
E000
E000
7010
7030
3860
3FC0
0F80
ENDCHAR
STARTCHAR Ccaron
ENCODING 268
SWIDTH 722 0
DWIDTH 22 0
BBX 20 31 1 0
BITMAP
030300
018600
00FC00
007800
003000
000000
01FC60
07FF60
0E03E0
1C01E0
3C00E0
3800E0
780060
780060
F00020
F00020
F00000
F00000
F00000
F00000
F00000
F00000
F00030
780030
780030
780060
3C0060
1C00C0
0F0380
07FF00
01FC00
ENDCHAR
STARTCHAR ccaron
ENCODING 269
SWIDTH 444 0
DWIDTH 14 0
BBX 12 22 1 0
BITMAP
3030
1860
0FC0
0780
0300
0000
0780
1FE0
3870
70F0
70F0
E060
E000
E000
E000
E000
E000
7010
7030
3860
3FC0
0F80
ENDCHAR
STARTCHAR Dcaron
ENCODING 270
SWIDTH 778 0
DWIDTH 25 0
BBX 22 31 1 0
BITMAP
030300
018600
00FC00
007800
003000
000000
FFFE00
3FFFC0
0E03E0
0E00F0
0E0070
0E0078
0E0078
0E003C
0E003C
0E003C
0E003C
0E003C
0E003C
0E003C
0E003C
0E003C
0E003C
0E003C
0E0038
0E0078
0E0070
0E00E0
0E03E0
3FFFC0
FFFE00
ENDCHAR
STARTCHAR dcaron
ENCODING 271
SWIDTH 749 0
DWIDTH 24 0
BBX 22 25 1 0
BITMAP
000C18
007C3C
001C3C
001C1C
001C0C
001C08
001C18
001C30
001C60
079C00
1FDC00
387C00
703C00
703C00
E01C00
E01C00
E01C00
E01C00
E01C00
E01C00
F03C00
703C00
787C00
1FDC00
079F00
ENDCHAR
STARTCHAR Dcroat
ENCODING 272
SWIDTH 778 0
DWIDTH 24 0
BBX 22 25 1 0
BITMAP
FFFC00
FFFF80
1E07C0
0E01E0
0E00F0
0E0070
0E0078
0E0078
0E0038
0E003C
0E003C
0E003C
7FE03C
7FE03C
0E003C
0E003C
0E003C
0E0038
0E0078
0E0078
0E0070
0E00E0
0E01C0
FFFF80
FFFE00
ENDCHAR
STARTCHAR dcroat
ENCODING 273
SWIDTH 574 0
DWIDTH 18 0
BBX 18 25 1 0
BITMAP
000C00
007C00
001C00
001C00
001C00
001C00
001C00
01FFC0
01FFC0
079C00
1FDC00
387C00
703C00
703C00
E01C00
E01C00
E01C00
E01C00
E01C00
E01C00
F03C00
703C00
787C00
1FDC00
079F00
ENDCHAR
STARTCHAR Emacron
ENCODING 274
SWIDTH 722 0
DWIDTH 24 0
BBX 20 28 1 0
BITMAP
03FF00
03FF00
000000
FFFFF0
3FFFF0
0E01F0
0E0070
0E0070
0E0030
0E0430
0E0410
0E0410
0E0C00
0E3C00
0FFC00
0FFC00
0E3C00
0E0C00
0E0C00
0E0410
0E0410
0E0010
0E0030
0E0030
0E0070
0E01F0
3FFFF0
FFFFF0
ENDCHAR
STARTCHAR emacron
ENCODING 275
SWIDTH 500 0
DWIDTH 16 0
BBX 14 19 1 0
BITMAP
3FF0
3FF0
0000
07C0
1FF0
3878
7038
601C
E01C
E01C
FFFC
E000
E000
E000
F004
700C
7838
3FF0
0FC0
ENDCHAR
STARTCHAR Ebreve
ENCODING 276
SWIDTH 722 0
DWIDTH 24 0
BBX 20 30 1 0
BITMAP
020200
030600
01FC00
007000
000000
FFFFF0
3FFFF0
0E01F0
0E0070
0E0070
0E0030
0E0430
0E0410
0E0410
0E0C00
0E3C00
0FFC00
0FFC00
0E3C00
0E0C00
0E0C00
0E0410
0E0410
0E0010
0E0030
0E0030
0E0070
0E01F0
3FFFF0
FFFFF0
ENDCHAR
STARTCHAR ebreve
ENCODING 277
SWIDTH 500 0
DWIDTH 16 0
BBX 14 21 1 0
BITMAP
1010
1830
0FE0
0380
0000
07C0
1FF0
3878
7038
601C
E01C
E01C
FFFC
E000
E000
E000
F004
700C
7838
3FF0
0FC0
ENDCHAR
STARTCHAR Edotaccent
ENCODING 278
SWIDTH 722 0
DWIDTH 24 0
BBX 20 29 1 0
BITMAP
003000
007800
003000
000000
FFFFF0
3FFFF0
0E01F0
0E0070
0E0070
0E0030
0E0430
0E0410
0E0410
0E0C00
0E3C00
0FFC00
0FFC00
0E3C00
0E0C00
0E0C00
0E0410
0E0410
0E0010
0E0030
0E0030
0E0070
0E01F0
3FFFF0
FFFFF0
ENDCHAR
STARTCHAR edotaccent
ENCODING 279
SWIDTH 500 0
DWIDTH 16 0
BBX 14 20 1 0
BITMAP
0300
0780
0300
0000
07C0
1FF0
3878
7038
601C
E01C
E01C
FFFC
E000
E000
E000
F004
700C
7838
3FF0
0FC0
ENDCHAR
STARTCHAR Eogonek
ENCODING 280
SWIDTH 722 0
DWIDTH 24 0
BBX 20 30 1 -5
BITMAP
FFFFF0
3FFFF0
0E01F0
0E0070
0E0070
0E0030
0E0430
0E0410
0E0410
0E0C00
0E3C00
0FFC00
0FFC00
0E3C00
0E0C00
0E0C00
0E0410
0E0410
0E0010
0E0030
0E0030
0E0070
0E01F0
3FFFF0
FFFFF0
003000
006000
00E000
00FC00
007800
ENDCHAR
STARTCHAR eogonek
ENCODING 281
SWIDTH 500 0
DWIDTH 16 0
BBX 14 21 1 -5
BITMAP
07C0
1FF0
3878
7038
601C
E01C
E01C
FFFC
E000
E000
E000
F004
700C
7838
3FF0
0FC0
0300
0600
0E00
0FC0
0780
ENDCHAR
STARTCHAR Ecaron
ENCODING 282
SWIDTH 722 0
DWIDTH 24 0
BBX 20 31 1 0
BITMAP
030300
018600
00FC00
007800
003000
000000
FFFFF0
3FFFF0
0E01F0
0E0070
0E0070
0E0030
0E0430
0E0410
0E0410
0E0C00
0E3C00
0FFC00
0FFC00
0E3C00
0E0C00
0E0C00
0E0410
0E0410
0E0010
0E0030
0E0030
0E0070
0E01F0
3FFFF0
FFFFF0
ENDCHAR
STARTCHAR ecaron
ENCODING 283
SWIDTH 500 0
DWIDTH 16 0
BBX 14 22 1 0
BITMAP
3030
1860
0FC0
0780
0300
0000
07C0
1FF0
3878
7038
601C
E01C
E01C
FFFC
E000
E000
E000
F004
700C
7838
3FF0
0FC0
ENDCHAR
STARTCHAR Gcircumflex
ENCODING 284
SWIDTH 778 0
DWIDTH 24 0
BBX 24 31 1 0
BITMAP
001800
003C00
007E00
00C300
018180
000000
01FE30
07FFB0
0F03F0
1E00F0
3C0070
380070
780030
700030
700010
F00010
F00000
F00000
F00000
F00000
F007FF
F000F8
F00070
700070
700070
780070
3800F0
1C00F0
0F01B0
07FF30
01FE10
ENDCHAR
STARTCHAR gcircumflex
ENCODING 285
SWIDTH 537 0
DWIDTH 17 0
BBX 16 29 1 -7
BITMAP
0180
03C0
07E0
0C30
1818
0000
079F
1FFB
3873
7038
7038
7038
7038
7038
3870
1FE0
3780
6000
6000
7FE0
7FF8
3FFC
303E
600E
E00E
E00E
F83C
7FF8
0FC0
ENDCHAR
STARTCHAR Gbreve
ENCODING 286
SWIDTH 778 0
DWIDTH 24 0
BBX 24 30 1 0
BITMAP
010100
018300
00FE00
003800
000000
01FE30
07FFB0
0F03F0
1E00F0
3C0070
380070
780030
700030
700010
F00010
F00000
F00000
F00000
F00000
F007FF
F000F8
F00070
700070
700070
780070
3800F0
1C00F0
0F01B0
07FF30
01FE10
ENDCHAR
STARTCHAR gbreve
ENCODING 287
SWIDTH 537 0
DWIDTH 17 0
BBX 16 28 1 -7
BITMAP
0808
0C18
07F0
01C0
0000
079F
1FFB
3873
7038
7038
7038
7038
7038
3870
1FE0
3780
6000
6000
7FE0
7FF8
3FFC
303E
600E
E00E
E00E
F83C
7FF8
0FC0
ENDCHAR
STARTCHAR Gdotaccent
ENCODING 288
SWIDTH 778 0
DWIDTH 24 0
BBX 24 29 1 0
BITMAP
001800
003C00
001800
000000
01FE30
07FFB0
0F03F0
1E00F0
3C0070
380070
780030
700030
700010
F00010
F00000
F00000
F00000
F00000
F007FF
F000F8
F00070
700070
700070
780070
3800F0
1C00F0
0F01B0
07FF30
01FE10
ENDCHAR
STARTCHAR gdotaccent
ENCODING 289
SWIDTH 537 0
DWIDTH 17 0
BBX 16 27 1 -7
BITMAP
0180
03C0
0180
0000
079F
1FFB
3873
7038
7038
7038
7038
7038
3870
1FE0
3780
6000
6000
7FE0
7FF8
3FFC
303E
600E
E00E
E00E
F83C
7FF8
0FC0
ENDCHAR
STARTCHAR Gcommaaccent
ENCODING 290
SWIDTH 778 0
DWIDTH 24 0
BBX 24 36 1 -11
BITMAP
01FE30
07FFB0
0F03F0
1E00F0
3C0070
380070
780030
700030
700010
F00010
F00000
F00000
F00000
F00000
F007FF
F000F8
F00070
700070
700070
780070
3800F0
1C00F0
0F01B0
07FF30
01FE10
000000
003800
007C00
007C00
003C00
000C00
000C00
001800
003000
007000
004000
ENDCHAR
STARTCHAR gcommaaccent
ENCODING 291
SWIDTH 537 0
DWIDTH 17 0
BBX 16 33 1 -7
BITMAP
0060
00C0
0180
0100
0300
0380
03C0
03C0
0180
0000
079F
1FFB
3873
7038
7038
7038
7038
7038
3870
1FE0
3780
6000
6000
7FE0
7FF8
3FFC
303E
600E
E00E
E00E
F83C
7FF8
0FC0
ENDCHAR
STARTCHAR Hcircumflex
ENCODING 292
SWIDTH 833 0
DWIDTH 27 0
BBX 25 31 1 0
BITMAP
000C0000
001E0000
003F0000
00618000
00C0C000
00000000
FFE3FF80
3F80FE00
0E003800
0E003800
0E003800
0E003800
0E003800
0E003800
0E003800
0E003800
0E003800
0FFFF800
0FFFF800
0E003800
0E003800
0E003800
0E003800
0E003800
0E003800
0E003800
0E003800
0E003800
0E003800
3F80FE00
FFE3FF80
ENDCHAR
STARTCHAR hcircumflex
ENCODING 293
SWIDTH 611 0
DWIDTH 20 0
BBX 19 31 0 0
BITMAP
060000
0F0000
1F8000
30C000
606000
000000
0C0000
FC0000
1C0000
1C0000
1C0000
1C0000
1C0000
1C0000
1C0000
1C7000
1DFC00
1F1E00
1E0E00
1C0700
1C0700
1C0700
1C0700
1C0700
1C0700
1C0700
1C0700
1C0700
1C0700
1C0700
FF3FE0
ENDCHAR
STARTCHAR Hbar
ENCODING 294
SWIDTH 833 0
DWIDTH 27 0
BBX 25 25 1 0
BITMAP
FFE3FF80
3F80FE00
0E003800
0E003800
0E003800
0E003800
0E003800
0E003800
FFFFFF80
FFFFFF80
0E003800
0FFFF800
0FFFF800
0E003800
0E003800
0E003800
0E003800
0E003800
0E003800
0E003800
0E003800
0E003800
0E003800
3F80FE00
FFE3FF80
ENDCHAR
STARTCHAR hbar
ENCODING 295
SWIDTH 611 0
DWIDTH 20 0
BBX 19 25 0 0
BITMAP
0C0000
FC0000
1C0000
1C0000
1C0000
1C0000
1C0000
FFE000
FFE000
1C7000
1DFC00
1F1E00
1E0E00
1C0700
1C0700
1C0700
1C0700
1C0700
1C0700
1C0700
1C0700
1C0700
1C0700
1C0700
FF3FE0
ENDCHAR
STARTCHAR Itilde
ENCODING 296
SWIDTH 407 0
DWIDTH 13 0
BBX 11 29 1 0
BITMAP
3C60
7FC0
C780
0000
FFE0
3F80
0E00
0E00
0E00
0E00
0E00
0E00
0E00
0E00
0E00
0E00
0E00
0E00
0E00
0E00
0E00
0E00
0E00
0E00
0E00
0E00
0E00
3F80
FFE0
ENDCHAR
STARTCHAR itilde
ENCODING 297
SWIDTH 315 0
DWIDTH 11 0
BBX 11 20 0 0
BITMAP
3C60
7FC0
C780
0000
0E00
3E00
0E00
0E00
0E00
0E00
0E00
0E00
0E00
0E00
0E00
0E00
0E00
0E00
0E00
7FC0
ENDCHAR
STARTCHAR Imacron
ENCODING 298
SWIDTH 407 0
DWIDTH 13 0
BBX 11 28 1 0
BITMAP
7FE0
7FE0
0000
FFE0
3F80
0E00
0E00
0E00
0E00
0E00
0E00
0E00
0E00
0E00
0E00
0E00
0E00
0E00
0E00
0E00
0E00
0E00
0E00
0E00
0E00
0E00
3F80
FFE0
ENDCHAR
STARTCHAR imacron
ENCODING 299
SWIDTH 315 0
DWIDTH 11 0
BBX 10 19 0 0
BITMAP
FFC0
FFC0
0000
0E00
3E00
0E00
0E00
0E00
0E00
0E00
0E00
0E00
0E00
0E00
0E00
0E00
0E00
0E00
7FC0
ENDCHAR
STARTCHAR Ibreve
ENCODING 300
SWIDTH 407 0
DWIDTH 13 0
BBX 11 30 1 0
BITMAP
4040
60C0
3F80
0E00
0000
FFE0
3F80
0E00
0E00
0E00
0E00
0E00
0E00
0E00
0E00
0E00
0E00
0E00
0E00
0E00
0E00
0E00
0E00
0E00
0E00
0E00
0E00
0E00
3F80
FFE0
ENDCHAR
STARTCHAR ibreve
ENCODING 301
SWIDTH 315 0
DWIDTH 11 0
BBX 9 21 1 0
BITMAP
8080
C180
7F00
1C00
0000
1C00
7C00
1C00
1C00
1C00
1C00
1C00
1C00
1C00
1C00
1C00
1C00
1C00
1C00
1C00
FF80
ENDCHAR
STARTCHAR Iogonek
ENCODING 302
SWIDTH 407 0
DWIDTH 13 0
BBX 11 30 1 -5
BITMAP
FFE0
3F80
0E00
0E00
0E00
0E00
0E00
0E00
0E00
0E00
0E00
0E00
0E00
0E00
0E00
0E00
0E00
0E00
0E00
0E00
0E00
0E00
0E00
3F80
FFE0
0600
0C00
1C00
1F80
0F00
ENDCHAR
STARTCHAR iogonek
ENCODING 303
SWIDTH 315 0
DWIDTH 10 0
BBX 9 29 1 -5
BITMAP
1800
3C00
3C00
1800
0000
0000
0000
0000
1C00
FC00
1C00
1C00
1C00
1C00
1C00
1C00
1C00
1C00
1C00
1C00
1C00
1C00
1C00
FF80
0C00
1800
3800
3F00
1E00
ENDCHAR
STARTCHAR Idotaccent
ENCODING 304
SWIDTH 407 0
DWIDTH 13 0
BBX 11 29 1 0
BITMAP
0600
0F00
0600
0000
FFE0
3F80
0E00
0E00
0E00
0E00
0E00
0E00
0E00
0E00
0E00
0E00
0E00
0E00
0E00
0E00
0E00
0E00
0E00
0E00
0E00
0E00
0E00
3F80
FFE0
ENDCHAR
STARTCHAR dotlessi
ENCODING 305
SWIDTH 315 0
DWIDTH 11 0
BBX 9 16 1 0
BITMAP
1C00
7C00
1C00
1C00
1C00
1C00
1C00
1C00
1C00
1C00
1C00
1C00
1C00
1C00
1C00
FF80
ENDCHAR
STARTCHAR IJ
ENCODING 306
SWIDTH 943 0
DWIDTH 30 0
BBX 28 25 1 0
BITMAP
FFE07FF0
3F800F80
0E000700
0E000700
0E000700
0E000700
0E000700
0E000700
0E000700
0E000700
0E000700
0E000700
0E000700
0E000700
0E000700
0E000700
0E0E0700
0E1F0700
0E1F0700
0E1F0700
0E1E0700
0E180F00
0E1C0E00
3F8FFE00
FFE3F800
ENDCHAR
STARTCHAR ij
ENCODING 307
SWIDTH 595 0
DWIDTH 20 0
BBX 16 31 1 -7
BITMAP
1806
3C0F
3C0F
1806
0000
0000
0000
0000
1C07
FC3F
1C07
1C07
1C07
1C07
1C07
1C07
1C07
1C07
1C07
1C07
1C07
1C07
1C07
FF87
0007
0007
0087
01C6
01C6
01CC
00F8
ENDCHAR
STARTCHAR Jcircumflex
ENCODING 308
SWIDTH 556 0
DWIDTH 18 0
BBX 17 31 0 0
BITMAP
003000
007800
00FC00
018600
030300
000000
03FF80
007C00
003800
003800
003800
003800
003800
003800
003800
003800
003800
003800
003800
003800
003800
003800
703800
F83800
F83800
F83800
F03800
C07800
E07000
7FF000
1FC000
ENDCHAR
STARTCHAR jcircumflex
ENCODING 309
SWIDTH 296 0
DWIDTH 10 0
BBX 11 29 -2 -7
BITMAP
0600
0F00
1F80
30C0
6060
0000
0380
1F80
0380
0380
0380
0380
0380
0380
0380
0380
0380
0380
0380
0380
0380
0380
0380
0380
4380
E300
E300
E600
7C00
ENDCHAR
STARTCHAR Kcommaaccent
ENCODING 310
SWIDTH 778 0
DWIDTH 25 0
BBX 25 36 1 -11
BITMAP
FFE3FF00
3F81FC00
0E00F000
0E00E000
0E01C000
0E018000
0E030000
0E060000
0E0E0000
0E1C0000
0E380000
0E7C0000
0EFE0000
0FDE0000
0F8F0000
0F078000
0E07C000
0E03C000
0E01E000
0E01F000
0E00F000
0E007800
0E007C00
3F003E00
FFC0FF80
00000000
001C0000
003E0000
003E0000
001E0000
00060000
00060000
000C0000
00180000
00380000
00200000
ENDCHAR
STARTCHAR kcommaaccent
ENCODING 311
SWIDTH 593 0
DWIDTH 20 0
BBX 19 36 0 -11
BITMAP
0C0000
FC0000
1C0000
1C0000
1C0000
1C0000
1C0000
1C0000
1C0000
1C7F80
1C1E00
1C1800
1C3000
1C6000
1CC000
1DC000
1FE000
1EF000
1C7800
1C3C00
1C1C00
1C0E00
1C0F00
1C0780
FF1FE0
000000
00E000
01F000
01F000
00F000
003000
003000
006000
00C000
01C000
010000
ENDCHAR
STARTCHAR kgreenlandic
ENCODING 312
SWIDTH 593 0
DWIDTH 20 0
BBX 19 16 0 0
BITMAP
1C7F80
1C1E00
1C1800
1C3000
1C6000
1CC000
1DC000
1FE000
1EF000
1C7800
1C3C00
1C1C00
1C0E00
1C0F00
1C0780
FF1FE0
ENDCHAR
STARTCHAR Lacute
ENCODING 313
SWIDTH 667 0
DWIDTH 22 0
BBX 20 32 1 0
BITMAP
003000
007000
00E000
01C000
030000
060000
000000
FFE000
3F8000
0E0000
0E0000
0E0000
0E0000
0E0000
0E0000
0E0000
0E0000
0E0000
0E0000
0E0000
0E0000
0E0000
0E0000
0E0010
0E0010
0E0010
0E0030
0E0030
0E0070
0E01F0
3FFFE0
FFFFE0
ENDCHAR
STARTCHAR lacute
ENCODING 314
SWIDTH 315 0
DWIDTH 11 0
BBX 9 32 1 0
BITMAP
0180
0380
0700
0E00
1800
3000
0000
0C00
1C00
FC00
1C00
1C00
1C00
1C00
1C00
1C00
1C00
1C00
1C00
1C00
1C00
1C00
1C00
1C00
1C00
1C00
1C00
1C00
1C00
1C00
1C00
FF80
ENDCHAR
STARTCHAR Lcommaaccent
ENCODING 315
SWIDTH 667 0
DWIDTH 22 0
BBX 20 36 1 -11
BITMAP
FFE000
3F8000
0E0000
0E0000
0E0000
0E0000
0E0000
0E0000
0E0000
0E0000
0E0000
0E0000
0E0000
0E0000
0E0000
0E0000
0E0010
0E0010
0E0010
0E0030
0E0030
0E0070
0E01F0
3FFFE0
FFFFE0
000000
007000
00F800
00F800
007800
001800
001800
003000
006000
00E000
008000
ENDCHAR
STARTCHAR lcommaaccent
ENCODING 316
SWIDTH 315 0
DWIDTH 11 0
BBX 9 36 1 -11
BITMAP
0C00
1C00
FC00
1C00
1C00
1C00
1C00
1C00
1C00
1C00
1C00
1C00
1C00
1C00
1C00
1C00
1C00
1C00
1C00
1C00
1C00
1C00
1C00
1C00
FF80
0000
1C00
3E00
3E00
1E00
0600
0600
0C00
1800
3800
2000
ENDCHAR
STARTCHAR Lcaron
ENCODING 317
SWIDTH 838 0
DWIDTH 28 0
BBX 26 25 1 0
BITMAP
FFE00180
3F8003C0
0E0003C0
0E0001C0
0E0000C0
0E000080
0E000180
0E000300
0E000600
0E000000
0E000000
0E000000
0E000000
0E000000
0E000000
0E000000
0E001000
0E001000
0E001000
0E003000
0E003000
0E007000
0E01F000
3FFFE000
FFFFE000
ENDCHAR
STARTCHAR lcaron
ENCODING 318
SWIDTH 503 0
DWIDTH 17 0
BBX 15 25 1 0
BITMAP
0C0C
1C1E
FC1E
1C0E
1C06
1C04
1C0C
1C18
1C30
1C00
1C00
1C00
1C00
1C00
1C00
1C00
1C00
1C00
1C00
1C00
1C00
1C00
1C00
1C00
FF80
ENDCHAR
STARTCHAR Ldot
ENCODING 319
SWIDTH 912 0
DWIDTH 30 0
BBX 26 25 1 0
BITMAP
FFE00000
3F800000
0E000000
0E000000
0E000000
0E000000
0E000000
0E000000
0E000000
0E000000
0E000000
0E000000
0E000000
0E000000
0E000000
0E000180
0E0013C0
0E0013C0
0E001180
0E003000
0E003000
0E007000
0E01F000
3FFFE000
FFFFE000
ENDCHAR
STARTCHAR ldot
ENCODING 320
SWIDTH 577 0
DWIDTH 19 0
BBX 15 25 1 0
BITMAP
0C00
1C00
FC00
1C00
1C00
1C00
1C00
1C00
1C00
1C00
1C00
1C00
1C00
1C00
1C00
1C0C
1C1E
1C1E
1C0C
1C00
1C00
1C00
1C00
1C00
FF80
ENDCHAR
STARTCHAR Lslash
ENCODING 321
SWIDTH 667 0
DWIDTH 22 0
BBX 20 25 1 0
BITMAP
FFE000
3F8000
0E0000
0E0000
0E0000
0E0000
0E0000
0E0000
0E6000
0EE000
0FC000
0F8000
0F0000
1E0000
3E0000
7E0000
6E0030
0E0030
0E0030
0E0070
0E0070
0E0060
0E00E0
1F07E0
FFFFE0
ENDCHAR
STARTCHAR lslash
ENCODING 322
SWIDTH 315 0
DWIDTH 11 0
BBX 9 25 1 0
BITMAP
7C00
7C00
1C00
1C00
1C00
1C00
1C00
1C00
1D80
1F80
1E00
3C00
FC00
DC00
1C00
1C00
1C00
1C00
1C00
1C00
1C00
1C00
1C00
1C00
FF80
ENDCHAR
STARTCHAR Nacute
ENCODING 323
SWIDTH 815 0
DWIDTH 28 0
BBX 26 32 1 0
BITMAP
00018000
00038000
00070000
000E0000
00180000
00300000
00000000
FF00FFC0
1F003F00
0F800C00
0FC00C00
0FC00C00
0DE00C00
0DF00C00
0CF80C00
0C780C00
0C7C0C00
0C3E0C00
0C1E0C00
0C1F0C00
0C0F8C00
0C078C00
0C07CC00
0C03CC00
0C01EC00
0C00EC00
0C00FC00
0C007C00
0C003C00
0C003C00
3F001C00
FFC00C00
ENDCHAR
STARTCHAR nacute
ENCODING 324
SWIDTH 611 0
DWIDTH 19 0
BBX 19 23 0 0
BITMAP
000C00
001C00
003800
007000
00C000
018000
000000
1C7800
FDFE00
1F8E00
1E0700
1E0700
1C0700
1C0700
1C0700
1C0700
1C0700
1C0700
1C0700
1C0700
1C0700
1C0700
FF1FE0
ENDCHAR
STARTCHAR Ncommaaccent
ENCODING 325
SWIDTH 815 0
DWIDTH 28 0
BBX 26 36 1 -11
BITMAP
FF00FFC0
1F003F00
0F800C00
0FC00C00
0FC00C00
0DE00C00
0DF00C00
0CF80C00
0C780C00
0C7C0C00
0C3E0C00
0C1E0C00
0C1F0C00
0C0F8C00
0C078C00
0C07CC00
0C03CC00
0C01EC00
0C00EC00
0C00FC00
0C007C00
0C003C00
0C003C00
3F001C00
FFC00C00
00000000
001C0000
003E0000
003E0000
001E0000
00060000
00060000
000C0000
00180000
00380000
00200000
ENDCHAR
STARTCHAR ncommaaccent
ENCODING 326
SWIDTH 611 0
DWIDTH 19 0
BBX 19 27 0 -11
BITMAP
1C7800
FDFE00
1F8E00
1E0700
1E0700
1C0700
1C0700
1C0700
1C0700
1C0700
1C0700
1C0700
1C0700
1C0700
1C0700
FF1FE0
000000
00E000
01F000
01F000
00F000
003000
003000
006000
00C000
01C000
010000
ENDCHAR
STARTCHAR Ncaron
ENCODING 327
SWIDTH 815 0
DWIDTH 28 0
BBX 26 31 1 0
BITMAP
01818000
00C30000
007E0000
003C0000
00180000
00000000
FF00FFC0
1F003F00
0F800C00
0FC00C00
0FC00C00
0DE00C00
0DF00C00
0CF80C00
0C780C00
0C7C0C00
0C3E0C00
0C1E0C00
0C1F0C00
0C0F8C00
0C078C00
0C07CC00
0C03CC00
0C01EC00
0C00EC00
0C00FC00
0C007C00
0C003C00
0C003C00
3F001C00
FFC00C00
ENDCHAR
STARTCHAR ncaron
ENCODING 328
SWIDTH 611 0
DWIDTH 19 0
BBX 19 22 0 0
BITMAP
0C0C00
061800
03F000
01E000
00C000
000000
1C7800
FDFE00
1F8E00
1E0700
1E0700
1C0700
1C0700
1C0700
1C0700
1C0700
1C0700
1C0700
1C0700
1C0700
1C0700
FF1FE0
ENDCHAR
STARTCHAR napostrophe
ENCODING 329
SWIDTH 805 0
DWIDTH 26 0
BBX 25 25 1 0
BITMAP
30000000
78000000
78000000
38000000
18000000
10000000
30000000
60000000
C0000000
0071E000
03F7F800
007E3800
00781C00
00781C00
00701C00
00701C00
00701C00
00701C00
00701C00
00701C00
00701C00
00701C00
00701C00
00701C00
03FC7F80
ENDCHAR
STARTCHAR Eng
ENCODING 330
SWIDTH 815 0
DWIDTH 28 0
BBX 26 32 1 -7
BITMAP
FF00FFC0
1F003F00
0F800C00
0FC00C00
0FC00C00
0DE00C00
0DF00C00
0CF80C00
0C780C00
0C7C0C00
0C3E0C00
0C1E0C00
0C1F0C00
0C0F8C00
0C078C00
0C07CC00
0C03CC00
0C01EC00
0C00FC00
0C00FC00
0C007C00
0C003C00
0C003C00
3F001C00
FFC01C00
00001C00
00001C00
00021C00
00071800
00071800
00073000
0003E000
ENDCHAR
STARTCHAR eng
ENCODING 331
SWIDTH 611 0
DWIDTH 19 0
BBX 16 23 0 -7
BITMAP
1C78
FDFE
1F8E
1E07
1E07
1C07
1C07
1C07
1C07
1C07
1C07
1C07
1C07
1C07
1C07
FF07
0007
0007
0087
01C6
01C6
01CC
00F8
ENDCHAR
STARTCHAR Omacron
ENCODING 332
SWIDTH 778 0
DWIDTH 24 0
BBX 22 28 1 0
BITMAP
03FF00
03FF00
000000
01FE00
07FF80
0F03C0
1C00E0
3C00F0
380070
780078
700038
F0003C
F0003C
E0001C
E0001C
E0001C
E0001C
E0001C
F0003C
F00038
700038
780078
380070
3C00F0
1C00E0
0F03C0
07FF80
01FE00
ENDCHAR
STARTCHAR omacron
ENCODING 333
SWIDTH 500 0
DWIDTH 16 0
BBX 14 19 1 0
BITMAP
3FF0
3FF0
0000
0780
1FE0
3870
7038
7038
E01C
E01C
E01C
E01C
E01C
E01C
7038
7038
3870
1FE0
0780
ENDCHAR
STARTCHAR Obreve
ENCODING 334
SWIDTH 778 0
DWIDTH 24 0
BBX 22 30 1 0
BITMAP
010100
018300
00FE00
003800
000000
01FE00
07FF80
0F03C0
1C00E0
3C00F0
380070
780078
700038
F0003C
F0003C
E0001C
E0001C
E0001C
E0001C
E0001C
F0003C
F00038
700038
780078
380070
3C00F0
1C00E0
0F03C0
07FF80
01FE00
ENDCHAR
STARTCHAR obreve
ENCODING 335
SWIDTH 500 0
DWIDTH 16 0
BBX 14 21 1 0
BITMAP
1010
1830
0FE0
0380
0000
0780
1FE0
3870
7038
7038
E01C
E01C
E01C
E01C
E01C
E01C
7038
7038
3870
1FE0
0780
ENDCHAR
STARTCHAR Ohungarumlaut
ENCODING 336
SWIDTH 778 0
DWIDTH 24 0
BBX 22 32 1 0
BITMAP
006600
006600
00CC00
00CC00
008800
008800
000000
01FE00
07FF80
0F03C0
1C00E0
3C00F0
380070
780078
700038
F0003C
F0003C
E0001C
E0001C
E0001C
E0001C
E0001C
F0003C
F00038
700038
780078
380070
3C00F0
1C00E0
0F03C0
07FF80
01FE00
ENDCHAR
STARTCHAR ohungarumlaut
ENCODING 337
SWIDTH 500 0
DWIDTH 16 0
BBX 14 23 1 0
BITMAP
0660
0660
0CC0
0CC0
0880
0880
0000
0780
1FE0
3870
7038
7038
E01C
E01C
E01C
E01C
E01C
E01C
7038
7038
3870
1FE0
0780
ENDCHAR
STARTCHAR OE
ENCODING 338
SWIDTH 1000 0
DWIDTH 32 0
BBX 30 25 1 0
BITMAP
01FFFFF8
07DFF1F8
0E07C038
1C03C018
3C03C018
3801C01C
7801C00C
7801C10C
7801C10C
F001C300
F001C300
F001C700
F001FF00
F001FF00
F001C700
F001C300
F001C304
7801C10C
7801C10C
7801C00C
3803C00C
1C03C01C
0E03C03C
079FE0FC
01FFFFFC
ENDCHAR
STARTCHAR oe
ENCODING 339
SWIDTH 833 0
DWIDTH 26 0
BBX 24 16 1 0
BITMAP
0FC1F0
1CF79C
387E0E
703E0E
F03C07
F01C07
E01C07
E01FFF
E01C00
E01C00
E01C00
703E01
703E03
38770E
1EE7FC
0780F0
ENDCHAR
STARTCHAR Racute
ENCODING 340
SWIDTH 722 0
DWIDTH 23 0
BBX 21 32 1 0
BITMAP
000600
000E00
001C00
003800
006000
00C000
000000
FFFE00
3FFF80
0E07C0
0E01C0
0E01E0
0E00E0
0E00E0
0E01E0
0E01E0
0E01C0
0E03C0
0E0F00
0FFC00
0FFE00
0E0F00
0E0700
0E0780
0E0380
0E0380
0E0388
0E0388
0E0388
0E03D8
3F81F0
FFE1E0
ENDCHAR
STARTCHAR racute
ENCODING 341
SWIDTH 444 0
DWIDTH 15 0
BBX 14 23 0 0
BITMAP
0030
0070
00E0
01C0
0300
0600
0000
1C78
FDFC
1F3C
1E3C
1E18
1C00
1C00
1C00
1C00
1C00
1C00
1C00
1C00
1C00
1C00
FF80
ENDCHAR
STARTCHAR Rcommaaccent
ENCODING 342
SWIDTH 722 0
DWIDTH 23 0
BBX 21 36 1 -11
BITMAP
FFFE00
3FFF80
0E07C0
0E01C0
0E01E0
0E00E0
0E00E0
0E01E0
0E01E0
0E01C0
0E03C0
0E0F00
0FFC00
0FFE00
0E0F00
0E0700
0E0780
0E0380
0E0380
0E0388
0E0388
0E0388
0E03D8
3F81F0
FFE1E0
000000
007000
00F800
00F800
007800
001800
001800
003000
006000
00E000
008000
ENDCHAR
STARTCHAR rcommaaccent
ENCODING 343
SWIDTH 444 0
DWIDTH 15 0
BBX 14 27 0 -11
BITMAP
1C78
FDFC
1F3C
1E3C
1E18
1C00
1C00
1C00
1C00
1C00
1C00
1C00
1C00
1C00
1C00
FF80
0000
0E00
1F00
1F00
0F00
0300
0300
0600
0C00
1C00
1000
ENDCHAR
STARTCHAR Rcaron
ENCODING 344
SWIDTH 722 0
DWIDTH 23 0
BBX 21 31 1 0
BITMAP
060600
030C00
01F800
00F000
006000
000000
FFFE00
3FFF80
0E07C0
0E01C0
0E01E0
0E00E0
0E00E0
0E01E0
0E01E0
0E01C0
0E03C0
0E0F00
0FFC00
0FFE00
0E0F00
0E0700
0E0780
0E0380
0E0380
0E0388
0E0388
0E0388
0E03D8
3F81F0
FFE1E0
ENDCHAR
STARTCHAR rcaron
ENCODING 345
SWIDTH 444 0
DWIDTH 15 0
BBX 14 22 0 0
BITMAP
1818
0C30
07E0
03C0
0180
0000
1C78
FDFC
1F3C
1E3C
1E18
1C00
1C00
1C00
1C00
1C00
1C00
1C00
1C00
1C00
1C00
FF80
ENDCHAR
STARTCHAR Sacute
ENCODING 346
SWIDTH 630 0
DWIDTH 20 0
BBX 17 32 2 0
BITMAP
001800
003800
007000
00E000
018000
030000
000000
0FF100
3FFB00
701F00
600700
E00700
E00300
E00100
F00100
F00000
7E0000
7FE000
1FFC00
07FE00
007F00
000F80
800780
800380
C00380
C00380
C00380
E00780
F00700
F80E00
DFFC00
87F000
ENDCHAR
STARTCHAR sacute
ENCODING 347
SWIDTH 463 0
DWIDTH 15 0
BBX 11 23 2 0
BITMAP
00C0
01C0
0380
0700
0C00
1800
0000
1EC0
7FC0
E1C0
C0C0
C0C0
F040
FE00
7F80
3FC0
07E0
80E0
C060
C060
E0E0
FFC0
9F00
ENDCHAR
STARTCHAR Scircumflex
ENCODING 348
SWIDTH 630 0
DWIDTH 20 0
BBX 17 31 2 0
BITMAP
018000
03C000
07E000
0C3000
181800
000000
0FF100
3FFB00
701F00
600700
E00700
E00300
E00100
F00100
F00000
7E0000
7FE000
1FFC00
07FE00
007F00
000F80
800780
800380
C00380
C00380
C00380
E00780
F00700
F80E00
DFFC00
87F000
ENDCHAR
STARTCHAR scircumflex
ENCODING 349
SWIDTH 463 0
DWIDTH 15 0
BBX 11 22 2 0
BITMAP
0C00
1E00
3F00
6180
C0C0
0000
1EC0
7FC0
E1C0
C0C0
C0C0
F040
FE00
7F80
3FC0
07E0
80E0
C060
C060
E0E0
FFC0
9F00
ENDCHAR
STARTCHAR Scedilla
ENCODING 350
SWIDTH 630 0
DWIDTH 20 0
BBX 17 32 2 -7
BITMAP
0FF100
3FFB00
701F00
600700
E00700
E00300
E00100
F00100
F00000
7E0000
7FE000
1FFC00
07FE00
007F00
000F80
800780
800380
C00380
C00380
C00380
E00780
F00700
F80E00
DFFC00
87F000
008000
010000
03C000
006000
006000
046000
03C000
ENDCHAR
STARTCHAR scedilla
ENCODING 351
SWIDTH 463 0
DWIDTH 15 0
BBX 11 23 2 -7
BITMAP
1EC0
7FC0
E1C0
C0C0
C0C0
F040
FE00
7F80
3FC0
07E0
80E0
C060
C060
E0E0
FFC0
9F00
0400
0800
1E00
0300
0300
2300
1E00
ENDCHAR
STARTCHAR Scaron
ENCODING 352
SWIDTH 630 0
DWIDTH 20 0
BBX 18 26 1 0
BITMAP
0C0C00
061800
03F000
01E000
00C000
000000
07F880
1E0F80
380380
300180
700180
700080
780080
7E0000
3FE000
1FFC00
0FFF00
01FF80
001FC0
8003C0
8001C0
C001C0
C001C0
E00380
F80F00
8FFC00
ENDCHAR
STARTCHAR scaron
ENCODING 353
SWIDTH 463 0
DWIDTH 15 0
BBX 11 22 2 0
BITMAP
C0C0
6180
3F00
1E00
0C00
0000
3EC0
73C0
C1C0
C0C0
C0C0
F040
FE00
7F80
3FC0
07E0
80E0
C060
C060
E060
F9C0
9F80
ENDCHAR
STARTCHAR Tcommaaccent
ENCODING 354
SWIDTH 667 0
DWIDTH 21 0
BBX 19 32 1 -7
BITMAP
FFFFE0
FFFFE0
F0E3E0
E0E0E0
C0E060
C0E060
80E020
80E020
80E020
00E000
00E000
00E000
00E000
00E000
00E000
00E000
00E000
00E000
00E000
00E000
00E000
00E000
00E000
03F800
0FFE00
002000
004000
00F000
001800
001800
011800
00F000
ENDCHAR
STARTCHAR tcommaaccent
ENCODING 355
SWIDTH 389 0
DWIDTH 13 0
BBX 12 30 0 -7
BITMAP
0400
0400
0C00
0C00
1C00
1C00
3C00
FFE0
1C00
1C00
1C00
1C00
1C00
1C00
1C00
1C00
1C10
1C10
1C30
1C30
1E60
0FE0
07C0
0100
0200
0780
00C0
00C0
08C0
0780
ENDCHAR
STARTCHAR Tcaron
ENCODING 356
SWIDTH 667 0
DWIDTH 21 0
BBX 19 31 1 0
BITMAP
060600
030C00
01F800
00F000
006000
000000
FFFFE0
FFFFE0
F0E3E0
E0E0E0
C0E060
C0E060
80E020
80E020
80E020
00E000
00E000
00E000
00E000
00E000
00E000
00E000
00E000
00E000
00E000
00E000
00E000
00E000
00E000
03F800
0FFE00
ENDCHAR
STARTCHAR tcaron
ENCODING 357
SWIDTH 574 0
DWIDTH 19 0
BBX 18 25 0 0
BITMAP
000180
0003C0
0403C0
0401C0
0C00C0
0C0080
1C0180
1C0300
3C0600
FFE000
1C0000
1C0000
1C0000
1C0000
1C0000
1C0000
1C0000
1C0000
1C1000
1C1000
1C3000
1C3000
1E6000
0FE000
07C000
ENDCHAR
STARTCHAR Tbar
ENCODING 358
SWIDTH 667 0
DWIDTH 21 0
BBX 19 25 1 0
BITMAP
FFFFE0
FFFFE0
F0E3E0
E0E0E0
C0E060
C0E060
80E020
80E020
80E020
00E000
00E000
0FFE00
0FFE00
00E000
00E000
00E000
00E000
00E000
00E000
00E000
00E000
00E000
00E000
03F800
0FFE00
ENDCHAR
STARTCHAR tbar
ENCODING 359
SWIDTH 389 0
DWIDTH 13 0
BBX 12 23 0 0
BITMAP
0400
0400
0C00
0C00
1C00
1C00
3C00
FFE0
1C00
1C00
1C00
1C00
1C00
1C00
1C00
7FF0
7FF0
1C10
1C30
1C30
1E60
0FE0
07C0
ENDCHAR
STARTCHAR Utilde
ENCODING 360
SWIDTH 815 0
DWIDTH 26 0
BBX 26 29 0 0
BITMAP
0078C000
00FF8000
018F0000
00000000
FFE0FFC0
3F803F00
0E000C00
0E000C00
0E000C00
0E000C00
0E000C00
0E000C00
0E000C00
0E000C00
0E000C00
0E000C00
0E000C00
0E000C00
0E000C00
0E000C00
0E000C00
0E000C00
0E000C00
0F001800
07001800
07803000
03E0F000
01FFC000
007F0000
ENDCHAR
STARTCHAR utilde
ENCODING 361
SWIDTH 611 0
DWIDTH 20 0
BBX 18 20 0 0
BITMAP
03C600
07FC00
0C7800
000000
1C0700
FC3F00
1C0700
1C0700
1C0700
1C0700
1C0700
1C0700
1C0700
1C0700
1C0700
1C0F00
1C0F00
1E3F00
0FF7C0
07C700
ENDCHAR
STARTCHAR Umacron
ENCODING 362
SWIDTH 815 0
DWIDTH 26 0
BBX 26 28 0 0
BITMAP
00FFC000
00FFC000
00000000
FFE0FFC0
3F803F00
0E000C00
0E000C00
0E000C00
0E000C00
0E000C00
0E000C00
0E000C00
0E000C00
0E000C00
0E000C00
0E000C00
0E000C00
0E000C00
0E000C00
0E000C00
0E000C00
0E000C00
0F001800
07001800
07803000
03E0F000
01FFC000
007F0000
ENDCHAR
STARTCHAR umacron
ENCODING 363
SWIDTH 611 0
DWIDTH 20 0
BBX 18 19 0 0
BITMAP
0FFC00
0FFC00
000000
1C0700
FC3F00
1C0700
1C0700
1C0700
1C0700
1C0700
1C0700
1C0700
1C0700
1C0700
1C0F00
1C0F00
1E3F00
0FF7C0
07C700
ENDCHAR
STARTCHAR Ubreve
ENCODING 364
SWIDTH 815 0
DWIDTH 26 0
BBX 26 30 0 0
BITMAP
00808000
00C18000
007F0000
001C0000
00000000
FFE0FFC0
3F803F00
0E000C00
0E000C00
0E000C00
0E000C00
0E000C00
0E000C00
0E000C00
0E000C00
0E000C00
0E000C00
0E000C00
0E000C00
0E000C00
0E000C00
0E000C00
0E000C00
0E000C00
0F001800
07001800
07803000
03E0F000
01FFC000
007F0000
ENDCHAR
STARTCHAR ubreve
ENCODING 365
SWIDTH 611 0
DWIDTH 20 0
BBX 18 21 0 0
BITMAP
040400
060C00
03F800
00E000
000000
1C0700
FC3F00
1C0700
1C0700
1C0700
1C0700
1C0700
1C0700
1C0700
1C0700
1C0700
1C0F00
1C0F00
1E3F00
0FF7C0
07C700
ENDCHAR
STARTCHAR Uring
ENCODING 366
SWIDTH 815 0
DWIDTH 26 0
BBX 26 32 0 0
BITMAP
001E0000
00330000
00210000
00210000
00330000
001E0000
00000000
FFE0FFC0
3F803F00
0E000C00
0E000C00
0E000C00
0E000C00
0E000C00
0E000C00
0E000C00
0E000C00
0E000C00
0E000C00
0E000C00
0E000C00
0E000C00
0E000C00
0E000C00
0E000C00
0E000C00
0F001800
07001800
07803000
03E0F000
01FFC000
007F0000
ENDCHAR
STARTCHAR uring
ENCODING 367
SWIDTH 611 0
DWIDTH 20 0
BBX 18 23 0 0
BITMAP
01E000
033000
021000
021000
033000
01E000
000000
1C0700
FC3F00
1C0700
1C0700
1C0700
1C0700
1C0700
1C0700
1C0700
1C0700
1C0700
1C0F00
1C0F00
1E3F00
0FF7C0
07C700
ENDCHAR
STARTCHAR Uhungarumlaut
ENCODING 368
SWIDTH 815 0
DWIDTH 26 0
BBX 26 32 0 0
BITMAP
00198000
00198000
00330000
00330000
00220000
00220000
00000000
FFE0FFC0
3F803F00
0E000C00
0E000C00
0E000C00
0E000C00
0E000C00
0E000C00
0E000C00
0E000C00
0E000C00
0E000C00
0E000C00
0E000C00
0E000C00
0E000C00
0E000C00
0E000C00
0E000C00
0F001800
07001800
07803000
03E0F000
01FFC000
007F0000
ENDCHAR
STARTCHAR uhungarumlaut
ENCODING 369
SWIDTH 611 0
DWIDTH 20 0
BBX 18 23 0 0
BITMAP
019800
019800
033000
033000
022000
022000
000000
1C0700
FC3F00
1C0700
1C0700
1C0700
1C0700
1C0700
1C0700
1C0700
1C0700
1C0700
1C0F00
1C0F00
1E3F00
0FF7C0
07C700
ENDCHAR
STARTCHAR Uogonek
ENCODING 370
SWIDTH 815 0
DWIDTH 26 0
BBX 26 30 0 -5
BITMAP
FFE0FFC0
3F803F00
0E000C00
0E000C00
0E000C00
0E000C00
0E000C00
0E000C00
0E000C00
0E000C00
0E000C00
0E000C00
0E000C00
0E000C00
0E000C00
0E000C00
0E000C00
0E000C00
0E000C00
0F001800
07001800
07803000
03E0F000
01FFC000
007F0000
000C0000
00180000
00380000
003F0000
001E0000
ENDCHAR
STARTCHAR uogonek
ENCODING 371
SWIDTH 611 0
DWIDTH 20 0
BBX 18 21 0 -5
BITMAP
1C0700
FC3F00
1C0700
1C0700
1C0700
1C0700
1C0700
1C0700
1C0700
1C0700
1C0700
1C0F00
1C0F00
1E3F00
0FF7C0
07C700
006000
00C000
01C000
01F800
00F000
ENDCHAR
STARTCHAR Wcircumflex
ENCODING 372
SWIDTH 981 0
DWIDTH 31 0
BBX 31 31 0 0
BITMAP
00030000
00078000
000FC000
00186000
00303000
00000000
FF1FF1FE
7E07C07C
3C038038
1C038030
1E03C030
1E03C060
0E03C060
0E03E060
0F03E060
0706E0C0
0706E0C0
0784F0C0
078C70C0
038C7180
038C7980
03C83980
01D83900
01F83F00
01F81F00
00F01F00
00F01E00
00F01E00
00E00E00
00600C00
00600C00
ENDCHAR
STARTCHAR wcircumflex
ENCODING 373
SWIDTH 778 0
DWIDTH 24 0
BBX 24 22 0 0
BITMAP
001800
003C00
007E00
00C300
018180
000000
FE7F3F
783C0E
381C0C
3C1C1C
1C1E18
1C1E18
0E3610
0E2730
0F6730
076760
074360
03C3C0
03C3C0
0381C0
018180
018180
ENDCHAR
STARTCHAR Ycircumflex
ENCODING 374
SWIDTH 704 0
DWIDTH 23 0
BBX 23 31 0 0
BITMAP
003000
007800
00FC00
018600
030300
000000
FF83FE
7E00F8
3E0070
1E0060
0F00E0
0F00C0
078180
07C180
03C300
03E300
01E600
00F600
00FC00
007C00
007800
003800
003800
003800
003800
003800
003800
003800
003800
00FE00
03FF80
ENDCHAR
STARTCHAR ycircumflex
ENCODING 375
SWIDTH 537 0
DWIDTH 20 0
BBX 18 29 1 -7
BITMAP
00C000
01E000
03F000
061800
0C0C00
000000
FF1FC0
3C0700
3C0600
1C0600
1E0C00
0E0C00
0F0800
071800
071800
07B000
03B000
03E000
01E000
01E000
00C000
00C000
018000
018000
630000
F30000
E60000
FC0000
700000
ENDCHAR
STARTCHAR Ydieresis
ENCODING 376
SWIDTH 704 0
DWIDTH 23 0
BBX 23 24 0 0
BITMAP
006300
00F780
006300
000000
FF80FE
3E0038
1E0030
0F0060
0F0060
0780C0
03C180
03C180
01E300
00F600
00FE00
007C00
007C00
003800
003800
003800
003800
003800
007C00
03FF80
ENDCHAR
STARTCHAR Zacute
ENCODING 377
SWIDTH 611 0
DWIDTH 19 0
BBX 17 32 1 0
BITMAP
000C00
001C00
003800
007000
00C000
018000
000000
7FFF80
7FFF80
780F00
700F00
601E00
603E00
603C00
407C00
407800
00F000
00F000
01E000
03E000
03C000
078000
078080
0F0080
1F0080
1E0180
3E0180
3C0180
780380
780780
FFFF80
FFFF80
ENDCHAR
STARTCHAR zacute
ENCODING 378
SWIDTH 481 0
DWIDTH 15 0
BBX 13 23 1 0
BITMAP
0030
0070
00E0
01C0
0300
0600
0000
7FF8
7878
60F0
60E0
41E0
43C0
0380
0780
0F00
0E00
1E08
3C08
3818
7838
F0F8
FFF8
ENDCHAR
STARTCHAR Zdotaccent
ENCODING 379
SWIDTH 611 0
DWIDTH 19 0
BBX 17 29 1 0
BITMAP
00C000
01E000
00C000
000000
7FFF80
7FFF80
780F00
700F00
601E00
603E00
603C00
407C00
407800
00F000
00F000
01E000
03E000
03C000
078000
078080
0F0080
1F0080
1E0180
3E0180
3C0180
780380
780780
FFFF80
FFFF80
ENDCHAR
STARTCHAR zdotaccent
ENCODING 380
SWIDTH 481 0
DWIDTH 15 0
BBX 13 20 1 0
BITMAP
0300
0780
0300
0000
7FF8
7878
60F0
60E0
41E0
43C0
0380
0780
0F00
0E00
1E08
3C08
3818
7838
F0F8
FFF8
ENDCHAR
STARTCHAR Zcaron
ENCODING 381
SWIDTH 611 0
DWIDTH 19 0
BBX 17 26 1 0
BITMAP
0C0C00
061800
03F000
01E000
00C000
000000
7FFF80
7C0780
700F00
601F00
601E00
403C00
407800
407800
40F000
01E000
03C000
03C080
078080
0F0080
1F0080
1E0180
3C0180
780380
F80F80
FFFF80
ENDCHAR
STARTCHAR zcaron
ENCODING 382
SWIDTH 481 0
DWIDTH 15 0
BBX 13 22 1 0
BITMAP
3030
1860
0FC0
0780
0300
0000
7FF8
7878
60F0
60E0
41E0
43C0
0380
0780
0F00
0E00
1E08
3C18
3818
7838
F078
FFF8
ENDCHAR
STARTCHAR uni0186
ENCODING 390
SWIDTH 722 0
DWIDTH 22 0
BBX 20 25 1 0
BITMAP
03F800
0FFE00
1C0F00
300380
6003C0
6001E0
C001E0
C001E0
C000F0
0000F0
0000F0
0000F0
0000F0
0000F0
0000F0
4000F0
4000F0
6001E0
6001E0
7001C0
7003C0
780380
7C0700
6FFE00
63F800
ENDCHAR
STARTCHAR uni0189
ENCODING 393
SWIDTH 778 0
DWIDTH 24 0
BBX 22 25 1 0
BITMAP
FFFC00
FFFF80
1E07C0
0E01E0
0E00F0
0E0070
0E0078
0E0078
0E0038
0E003C
0E003C
0E003C
7FE03C
7FE03C
0E003C
0E003C
0E003C
0E0038
0E0078
0E0078
0E0070
0E00E0
0E01C0
FFFF80
FFFE00
ENDCHAR
STARTCHAR uni018E
ENCODING 398
SWIDTH 722 0
DWIDTH 24 0
BBX 20 25 1 0
BITMAP
FFFFF0
FFFFC0
F80700
E00700
C00700
C00700
800700
820700
820700
030700
030700
03C700
03FF00
03FF00
03C700
030700
820700
820700
C20700
C00700
E00700
E00700
F80700
FFFFC0
FFFFF0
ENDCHAR
STARTCHAR florin
ENCODING 402
SWIDTH 556 0
DWIDTH 19 0
BBX 17 32 0 -7
BITMAP
000F00
001B80
003380
007380
007100
007000
006000
00E000
00E000
00E000
00E000
0FFE00
00E000
00E000
00E000
00E000
01E000
01C000
01C000
01C000
01C000
01C000
01C000
01C000
01C000
03C000
038000
038000
E38000
E70000
EE0000
7C0000
ENDCHAR
STARTCHAR uni0197
ENCODING 407
SWIDTH 407 0
DWIDTH 13 0
BBX 11 25 1 0
BITMAP
FFE0
3F80
0E00
0E00
0E00
0E00
0E00
0E00
0E00
0E00
0E00
FFE0
FFE0
0E00
0E00
0E00
0E00
0E00
0E00
0E00
0E00
0E00
0E00
3F80
FFE0
ENDCHAR
STARTCHAR uni019A
ENCODING 410
SWIDTH 315 0
DWIDTH 11 0
BBX 11 25 0 0
BITMAP
0600
0E00
7E00
0E00
0E00
0E00
0E00
0E00
0E00
0E00
0E00
FFE0
FFE0
0E00
0E00
0E00
0E00
0E00
0E00
0E00
0E00
0E00
0E00
0E00
7FC0
ENDCHAR
STARTCHAR uni019D
ENCODING 413
SWIDTH 815 0
DWIDTH 28 0
BBX 28 32 -1 -7
BITMAP
3FC03FF0
07C00FC0
03E00300
03F00300
03F00300
03780300
037C0300
033E0300
031E0300
031F0300
030F8300
03078300
0307C300
0303E300
0301E300
0301F300
0300F300
03007B00
03803B00
03803F00
03801F00
03800F00
03800F00
03800700
03800300
03800000
03800000
43800000
E3000000
E3000000
E6000000
7C000000
ENDCHAR
STARTCHAR uni019F
ENCODING 415
SWIDTH 778 0
DWIDTH 24 0
BBX 22 25 1 0
BITMAP
01FE00
07FF80
0F03C0
1C00E0
3C00F0
380070
780078
700038
F0003C
F0003C
E0001C
FFFFFC
FFFFFC
E0001C
E0001C
F0003C
F00038
700038
780078
380070
3C00F0
1C00E0
0F03C0
07FF80
01FE00
ENDCHAR
STARTCHAR Ohorn
ENCODING 416
SWIDTH 778 0
DWIDTH 24 0
BBX 25 25 1 0
BITMAP
01FE0300
07FF8780
0F03C780
1C00E380
3C00F180
38007100
78007B00
70003E00
F0003C00
F0003C00
E0001C00
E0001C00
E0001C00
E0001C00
E0001C00
F0003C00
F0003800
70003800
78007800
38007000
3C00F000
1C00E000
0F03C000
07FF8000
01FE0000
ENDCHAR
STARTCHAR ohorn
ENCODING 417
SWIDTH 500 0
DWIDTH 16 0
BBX 18 16 1 0
BITMAP
078180
1FE3C0
3873C0
7039C0
7038C0
E01C80
E01D80
E01F00
E01E00
E01C00
E01C00
703800
703800
387000
1FE000
078000
ENDCHAR
STARTCHAR uni01A7
ENCODING 423
SWIDTH 630 0
DWIDTH 20 0
BBX 17 25 2 0
BITMAP
47F800
6FFE00
7C0700
700300
700380
600380
400380
400780
000780
003F00
03FF00
1FFC00
3FF000
7F0000
F80000
F00080
E00080
E00180
E00180
E00180
F00380
700780
380F80
1FFD80
07F080
ENDCHAR
STARTCHAR uni01A8
ENCODING 424
SWIDTH 463 0
DWIDTH 15 0
BBX 11 16 2 0
BITMAP
6F00
7FC0
70E0
6060
6060
41E0
0FE0
3FC0
7F80
FC00
E020
C060
C060
E0E0
7FE0
1F20
ENDCHAR
STARTCHAR uni01AE
ENCODING 430
SWIDTH 667 0
DWIDTH 21 0
BBX 19 32 1 -7
BITMAP
FFFFE0
FFFFE0
F0E3E0
E0E0E0
C0E060
C0E060
80E020
80E020
80E020
00E000
00E000
00E000
00E000
00E000
00E000
00E000
00E000
00E000
00E000
00E000
00E000
00E000
00E000
00E000
00E000
00E000
00E000
00E100
006380
006380
003380
001F00
ENDCHAR
STARTCHAR Uhorn
ENCODING 431
SWIDTH 815 0
DWIDTH 26 0
BBX 28 25 0 0
BITMAP
FFE0FFE0
3F803FF0
0E000CF0
0E000C70
0E000C30
0E000C20
0E000C60
0E000CC0
0E000D80
0E000C00
0E000C00
0E000C00
0E000C00
0E000C00
0E000C00
0E000C00
0E000C00
0E000C00
0E000C00
0F001800
07001800
07803000
03E0F000
01FFC000
007F0000
ENDCHAR
STARTCHAR uhorn
ENCODING 432
SWIDTH 611 0
DWIDTH 20 0
BBX 21 16 0 0
BITMAP
1C0730
FC3F78
1C0778
1C0738
1C0718
1C0710
1C0730
1C0760
1C07C0
1C0700
1C0700
1C0F00
1C0F00
1E3F00
0FF7C0
07C700
ENDCHAR
STARTCHAR uni01B5
ENCODING 437
SWIDTH 611 0
DWIDTH 19 0
BBX 17 25 1 0
BITMAP
7FFF80
7FFF80
780F00
700F00
601E00
603E00
603C00
407C00
407800
00F000
00F000
1FFC00
1FFC00
03C000
078000
078080
0F0080
1F0080
1E0180
3E0180
3C0180
780380
780780
FFFF80
FFFF80
ENDCHAR
STARTCHAR uni01B6
ENCODING 438
SWIDTH 481 0
DWIDTH 15 0
BBX 13 16 1 0
BITMAP
7FF8
7878
60F0
60E0
41E0
43C0
0380
7FF0
7FF0
0E00
1E08
3C08
3818
7838
F0F8
FFF8
ENDCHAR
STARTCHAR uni01BB
ENCODING 443
SWIDTH 556 0
DWIDTH 18 0
BBX 15 24 1 0
BITMAP
07E0
1FF8
381C
601E
700E
780E
780E
780E
301E
001C
001C
FFFE
FFFE
0070
00E0
01C0
0380
0702
0E02
1C06
3806
7FFE
FFFE
FFFE
ENDCHAR
STARTCHAR uni01BC
ENCODING 444
SWIDTH 556 0
DWIDTH 18 0
BBX 14 24 2 0
BITMAP
3808
3FF8
3FF0
3FE0
3000
3000
2000
6000
63C0
6FF0
7C78
7038
603C
001C
001C
001C
601C
F01C
F01C
F03C
E038
7078
7FF0
1F80
ENDCHAR
STARTCHAR uni01C0
ENCODING 448
SWIDTH 606 0
DWIDTH 20 0
BBX 2 25 9 0
BITMAP
C0
C0
C0
C0
C0
C0
C0
C0
C0
C0
C0
C0
C0
C0
C0
C0
C0
C0
C0
C0
C0
C0
C0
C0
C0
ENDCHAR
STARTCHAR uni01C2
ENCODING 450
SWIDTH 606 0
DWIDTH 20 0
BBX 16 25 2 -4
BITMAP
0180
0180
0180
0180
0180
0180
0180
0180
0180
FFFF
FFFF
0180
0180
0180
0180
FFFF
FFFF
0180
0180
0180
0180
0180
0180
0180
0180
ENDCHAR
STARTCHAR uni01C3
ENCODING 451
SWIDTH 296 0
DWIDTH 10 0
BBX 4 25 3 0
BITMAP
60
F0
F0
F0
F0
F0
F0
60
60
60
60
60
60
60
60
60
60
60
00
00
00
60
F0
F0
60
ENDCHAR
STARTCHAR uni01CD
ENCODING 461
SWIDTH 722 0
DWIDTH 23 0
BBX 23 31 0 0
BITMAP
030300
018600
00FC00
007800
003000
000000
001000
003800
003800
007800
007C00
007C00
00DC00
00DE00
019E00
018E00
018F00
030700
030780
030780
060380
07FFC0
07FFC0
0C01C0
0C01E0
0C01E0
1800F0
1800F0
3800F8
7C01FC
FE03FE
ENDCHAR
STARTCHAR uni01CE
ENCODING 462
SWIDTH 556 0
DWIDTH 17 0
BBX 16 22 1 0
BITMAP
3030
1860
0FC0
0780
0300
0000
0FC0
3FF0
7878
7038
6038
0038
01F8
0FF8
3C38
7038
E038
E038
E078
F1FD
7F9F
3E0E
ENDCHAR
STARTCHAR uni01CF
ENCODING 463
SWIDTH 407 0
DWIDTH 13 0
BBX 11 31 1 0
BITMAP
6060
30C0
1F80
0F00
0600
0000
FFE0
3F80
0E00
0E00
0E00
0E00
0E00
0E00
0E00
0E00
0E00
0E00
0E00
0E00
0E00
0E00
0E00
0E00
0E00
0E00
0E00
0E00
0E00
3F80
FFE0
ENDCHAR
STARTCHAR uni01D0
ENCODING 464
SWIDTH 315 0
DWIDTH 11 0
BBX 10 22 0 0
BITMAP
C0C0
6180
3F00
1E00
0C00
0000
0E00
3E00
0E00
0E00
0E00
0E00
0E00
0E00
0E00
0E00
0E00
0E00
0E00
0E00
0E00
7FC0
ENDCHAR
STARTCHAR uni01D1
ENCODING 465
SWIDTH 778 0
DWIDTH 24 0
BBX 22 31 1 0
BITMAP
030300
018600
00FC00
007800
003000
000000
01FE00
07FF80
0F03C0
1C00E0
3C00F0
380070
780078
700038
F0003C
F0003C
E0001C
E0001C
E0001C
E0001C
E0001C
F0003C
F00038
700038
780078
380070
3C00F0
1C00E0
0F03C0
07FF80
01FE00
ENDCHAR
STARTCHAR uni01D2
ENCODING 466
SWIDTH 500 0
DWIDTH 16 0
BBX 14 22 1 0
BITMAP
3030
1860
0FC0
0780
0300
0000
0780
1FE0
3870
7038
7038
E01C
E01C
E01C
E01C
E01C
E01C
7038
7038
3870
1FE0
0780
ENDCHAR
STARTCHAR uni01D3
ENCODING 467
SWIDTH 815 0
DWIDTH 26 0
BBX 26 31 0 0
BITMAP
00C0C000
00618000
003F0000
001E0000
000C0000
00000000
FFE0FFC0
3F803F00
0E000C00
0E000C00
0E000C00
0E000C00
0E000C00
0E000C00
0E000C00
0E000C00
0E000C00
0E000C00
0E000C00
0E000C00
0E000C00
0E000C00
0E000C00
0E000C00
0E000C00
0F001800
07001800
07803000
03E0F000
01FFC000
007F0000
ENDCHAR
STARTCHAR uni01D4
ENCODING 468
SWIDTH 611 0
DWIDTH 20 0
BBX 18 22 0 0
BITMAP
0C0C00
061800
03F000
01E000
00C000
000000
1C0700
FC3F00
1C0700
1C0700
1C0700
1C0700
1C0700
1C0700
1C0700
1C0700
1C0700
1C0F00
1C0F00
1E3F00
0FF7C0
07C700
ENDCHAR
STARTCHAR uni01D5
ENCODING 469
SWIDTH 815 0
DWIDTH 26 0
BBX 26 33 0 0
BITMAP
00FFC000
00FFC000
00000000
0030C000
0079E000
0030C000
00000000
00000000
FFE0FFC0
3F803F00
0E000C00
0E000C00
0E000C00
0E000C00
0E000C00
0E000C00
0E000C00
0E000C00
0E000C00
0E000C00
0E000C00
0E000C00
0E000C00
0E000C00
0E000C00
0E000C00
0E000C00
0F001800
07001800
07803000
03E0F000
01FFC000
007F0000
ENDCHAR
STARTCHAR uni01D6
ENCODING 470
SWIDTH 611 0
DWIDTH 20 0
BBX 18 24 0 0
BITMAP
0FFC00
0FFC00
000000
031800
07BC00
031800
000000
000000
1C0700
FC3F00
1C0700
1C0700
1C0700
1C0700
1C0700
1C0700
1C0700
1C0700
1C0700
1C0F00
1C0F00
0E3F00
0FF7C0
07C700
ENDCHAR
STARTCHAR uni01D7
ENCODING 471
SWIDTH 815 0
DWIDTH 26 0
BBX 26 37 0 0
BITMAP
0000C000
0001C000
00038000
00070000
000C0000
00180000
00000000
0030C000
0079E000
0030C000
00000000
00000000
FFE0FFC0
3F803F00
0E000C00
0E000C00
0E000C00
0E000C00
0E000C00
0E000C00
0E000C00
0E000C00
0E000C00
0E000C00
0E000C00
0E000C00
0E000C00
0E000C00
0E000C00
0E000C00
0E000C00
0F001800
07001800
07803000
03E0F000
01FFC000
007F0000
ENDCHAR
STARTCHAR uni01D8
ENCODING 472
SWIDTH 611 0
DWIDTH 20 0
BBX 18 28 0 0
BITMAP
000C00
001C00
003800
007000
00C000
018000
000000
031800
07BC00
031800
000000
000000
1C0700
FC3F00
1C0700
1C0700
1C0700
1C0700
1C0700
1C0700
1C0700
1C0700
1C0700
1C0F00
1C0F00
0E3F00
0FF7C0
07C700
ENDCHAR
STARTCHAR uni01D9
ENCODING 473
SWIDTH 815 0
DWIDTH 26 0
BBX 26 36 0 0
BITMAP
00C0C000
00618000
003F0000
001E0000
000C0000
00000000
0030C000
0079E000
0030C000
00000000
00000000
FFE0FFC0
3F803F00
0E000C00
0E000C00
0E000C00
0E000C00
0E000C00
0E000C00
0E000C00
0E000C00
0E000C00
0E000C00
0E000C00
0E000C00
0E000C00
0E000C00
0E000C00
0E000C00
0E000C00
0F001800
07001800
07803000
03E0F000
01FFC000
007F0000
ENDCHAR
STARTCHAR uni01DA
ENCODING 474
SWIDTH 611 0
DWIDTH 20 0
BBX 18 27 0 0
BITMAP
0C0C00
061800
03F000
01E000
00C000
000000
031800
07BC00
031800
000000
000000
1C0700
FC3F00
1C0700
1C0700
1C0700
1C0700
1C0700
1C0700
1C0700
1C0700
1C0700
1C0F00
1C0F00
0E3F00
0FF7C0
07C700
ENDCHAR
STARTCHAR uni01DB
ENCODING 475
SWIDTH 815 0
DWIDTH 26 0
BBX 26 37 0 0
BITMAP
00C00000
00E00000
00700000
00380000
000C0000
00060000
00000000
0030C000
0079E000
0030C000
00000000
00000000
FFE0FFC0
3F803F00
0E000C00
0E000C00
0E000C00
0E000C00
0E000C00
0E000C00
0E000C00
0E000C00
0E000C00
0E000C00
0E000C00
0E000C00
0E000C00
0E000C00
0E000C00
0E000C00
0E000C00
0F001800
07001800
07803000
03E0F000
01FFC000
007F0000
ENDCHAR
STARTCHAR uni01DC
ENCODING 476
SWIDTH 611 0
DWIDTH 20 0
BBX 18 28 0 0
BITMAP
060000
070000
038000
01C000
006000
003000
000000
031800
07BC00
031800
000000
000000
1C0700
FC3F00
1C0700
1C0700
1C0700
1C0700
1C0700
1C0700
1C0700
1C0700
1C0700
1C0F00
1C0F00
0E3F00
0FF7C0
07C700
ENDCHAR
STARTCHAR uni01DD
ENCODING 477
SWIDTH 500 0
DWIDTH 16 0
BBX 14 16 1 0
BITMAP
0FC0
3FF0
7078
C038
803C
001C
001C
001C
FFFC
E01C
E01C
E018
7038
7870
3FE0
0F80
ENDCHAR
STARTCHAR uni01DE
ENCODING 478
SWIDTH 722 0
DWIDTH 23 0
BBX 23 33 0 0
BITMAP
03FF00
03FF00
000000
018600
03CF00
018600
000000
000000
001000
003800
003800
007800
007C00
007C00
00DC00
00DE00
019E00
018E00
018F00
030700
030780
030780
060380
07FFC0
07FFC0
0C01C0
0C01E0
0C01E0
1800F0
1800F0
3800F8
7C01FC
FE03FE
ENDCHAR
STARTCHAR uni01DF
ENCODING 479
SWIDTH 556 0
DWIDTH 17 0
BBX 16 24 1 0
BITMAP
1FF8
1FF8
0000
0C60
1EF0
0C60
0000
0000
07C0
1FF0
7878
7038
7038
7038
01F8
0FF8
3C38
7038
E038
E038
E078
F0FD
7F9F
3E0E
ENDCHAR
STARTCHAR uni01E0
ENCODING 480
SWIDTH 722 0
DWIDTH 23 0
BBX 23 32 0 0
BITMAP
03FF00
03FF00
000000
003000
007800
003000
000000
001000
003800
003800
007800
007C00
007C00
00DC00
00DE00
019E00
018E00
018F00
030700
030780
030780
060380
07FFC0
07FFC0
0C01C0
0C01E0
0C01E0
1800F0
1800F0
3800F8
7C01FC
FE03FE
ENDCHAR
STARTCHAR uni01E1
ENCODING 481
SWIDTH 556 0
DWIDTH 17 0
BBX 16 23 1 0
BITMAP
3FF0
3FF0
0000
0300
0780
0300
0000
0FC0
3FF0
7878
7038
6038
0038
01F8
0FF8
3C38
7038
E038
E038
E078
F1FD
7F9F
3E0E
ENDCHAR
STARTCHAR uni01E2
ENCODING 482
SWIDTH 1000 0
DWIDTH 32 0
BBX 30 28 0 0
BITMAP
0007FE00
0007FE00
00000000
01FFFFFC
007FFFFC
001DC07C
0019C01C
0019C01C
0031C00C
0031C08C
0061C084
0061C184
00C1C180
00C1C380
0181FF80
0181FF80
0301C380
03FFC180
07FFC180
0601C084
0C01C084
0C01C004
1801C00C
1801C00C
3001C01C
3001C07C
7807FFFC
FE1FFFFC
ENDCHAR
STARTCHAR uni01E3
ENCODING 483
SWIDTH 796 0
DWIDTH 25 0
BBX 23 19 1 0
BITMAP
03FF00
03FF00
000000
0FC3E0
3FE7F8
707C1C
703C0C
70380E
70380E
01F80E
0FFFFE
3C3800
703800
F03800
E03C02
E07C06
F0FE1C
7FCFF8
3F03F0
ENDCHAR
STARTCHAR uni01E4
ENCODING 484
SWIDTH 778 0
DWIDTH 24 0
BBX 27 25 1 0
BITMAP
01FE3000
07FFB000
0F03F000
1E00F000
3C007000
38007000
78003000
70003000
70001000
F0001000
F0000000
F0000000
F0000000
F0000000
F007FF00
F000F800
F0007000
70007000
70007000
78007000
3800FFE0
1C00FFE0
0F01B000
07FF3000
01FE1000
ENDCHAR
STARTCHAR uni01E5
ENCODING 485
SWIDTH 537 0
DWIDTH 17 0
BBX 16 23 1 -7
BITMAP
079F
1FFB
3873
7038
7038
7038
7038
7038
3870
1FE0
3780
6000
6000
7FE0
7FF8
3FFC
FFFF
FFFF
E00E
E00E
F83C
7FF8
0FC0
ENDCHAR
STARTCHAR Gcaron
ENCODING 486
SWIDTH 778 0
DWIDTH 24 0
BBX 24 31 1 0
BITMAP
018180
00C300
007E00
003C00
001800
000000
01FE30
07FFB0
0F03F0
1E00F0
3C0070
380070
780030
700030
700010
F00010
F00000
F00000
F00000
F00000
F007FF
F000F8
F00070
700070
700070
780070
3800F0
1C00F0
0F01B0
07FF30
01FE10
ENDCHAR
STARTCHAR gcaron
ENCODING 487
SWIDTH 537 0
DWIDTH 17 0
BBX 16 29 1 -7
BITMAP
1818
0C30
07E0
03C0
0180
0000
079F
1FFB
3873
7038
7038
7038
7038
7038
3870
1FE0
3780
6000
6000
7FE0
7FF8
3FFC
303E
600E
E00E
E00E
F83C
7FF8
0FC0
ENDCHAR
STARTCHAR uni01E8
ENCODING 488
SWIDTH 778 0
DWIDTH 25 0
BBX 25 31 1 0
BITMAP
01818000
00C30000
007E0000
003C0000
00180000
00000000
FFE3FF00
3F81FC00
0E00F000
0E00E000
0E01C000
0E018000
0E030000
0E060000
0E0E0000
0E1C0000
0E380000
0E7C0000
0EFE0000
0FDE0000
0F8F0000
0F078000
0E07C000
0E03C000
0E01E000
0E01F000
0E00F000
0E007800
0E007C00
3F003E00
FFC0FF80
ENDCHAR
STARTCHAR uni01E9
ENCODING 489
SWIDTH 593 0
DWIDTH 20 0
BBX 19 31 0 0
BITMAP
606000
30C000
1F8000
0F0000
060000
000000
0C0000
FC0000
1C0000
1C0000
1C0000
1C0000
1C0000
1C0000
1C0000
1C7F80
1C1E00
1C1800
1C3000
1C6000
1CC000
1DC000
1FE000
1EF000
1C7800
1C3C00
1C1C00
1C0E00
1C0F00
1C0780
FF1FE0
ENDCHAR
STARTCHAR uni01EA
ENCODING 490
SWIDTH 778 0
DWIDTH 24 0
BBX 22 30 1 -5
BITMAP
01FE00
07FF80
0F03C0
1C00E0
3C00F0
380070
780078
700038
F0003C
F0003C
E0001C
E0001C
E0001C
E0001C
E0001C
F0003C
F00038
700038
780078
380070
3C00F0
1C00E0
0F03C0
07FF80
01FE00
003000
006000
00E000
00FC00
007800
ENDCHAR
STARTCHAR uni01EB
ENCODING 491
SWIDTH 500 0
DWIDTH 16 0
BBX 14 21 1 -5
BITMAP
0780
1FE0
3870
7038
7038
E01C
E01C
E01C
E01C
E01C
E01C
7038
7038
3870
1FE0
0780
0300
0600
0E00
0FC0
0780
ENDCHAR
STARTCHAR uni01EC
ENCODING 492
SWIDTH 778 0
DWIDTH 24 0
BBX 22 33 1 -5
BITMAP
03FF00
03FF00
000000
01FE00
07FF80
0F03C0
1C00E0
3C00F0
380070
780078
700038
F0003C
F0003C
E0001C
E0001C
E0001C
E0001C
E0001C
F0003C
F00038
700038
780078
380070
3C00F0
1C00E0
0F03C0
07FF80
01FE00
003000
006000
00E000
00FC00
007800
ENDCHAR
STARTCHAR uni01ED
ENCODING 493
SWIDTH 500 0
DWIDTH 16 0
BBX 14 24 1 -5
BITMAP
3FF0
3FF0
0000
0780
1FE0
3870
7038
7038
E01C
E01C
E01C
E01C
E01C
E01C
7038
7038
3870
1FE0
0780
0300
0600
0E00
0FC0
0780
ENDCHAR
STARTCHAR uni01F0
ENCODING 496
SWIDTH 296 0
DWIDTH 10 0
BBX 11 29 -2 -7
BITMAP
6060
30C0
1F80
0F00
0600
0000
0380
1F80
0380
0380
0380
0380
0380
0380
0380
0380
0380
0380
0380
0380
0380
0380
0380
0380
4380
E300
E300
E600
7C00
ENDCHAR
STARTCHAR uni01F4
ENCODING 500
SWIDTH 778 0
DWIDTH 24 0
BBX 24 32 1 0
BITMAP
000180
000380
000700
000E00
001800
003000
000000
01FE30
07FFB0
0F03F0
1E00F0
3C0070
380070
780030
700030
700010
F00010
F00000
F00000
F00000
F00000
F007FF
F000F8
F00070
700070
700070
780070
3800F0
1C00F0
0F01B0
07FF30
01FE10
ENDCHAR
STARTCHAR uni01F5
ENCODING 501
SWIDTH 537 0
DWIDTH 17 0
BBX 16 30 1 -7
BITMAP
0018
0038
0070
00E0
0180
0300
0000
079F
1FFB
3873
7038
7038
7038
7038
7038
3870
1FE0
3780
6000
6000
7FE0
7FF8
3FFC
303E
600E
E00E
E00E
F83C
7FF8
0FC0
ENDCHAR
STARTCHAR uni01F8
ENCODING 504
SWIDTH 815 0
DWIDTH 28 0
BBX 26 32 1 0
BITMAP
01800000
01C00000
00E00000
00700000
00180000
000C0000
00000000
FF00FFC0
1F003F00
0F800C00
0FC00C00
0FC00C00
0DE00C00
0DF00C00
0CF80C00
0C780C00
0C7C0C00
0C3E0C00
0C1E0C00
0C1F0C00
0C0F8C00
0C078C00
0C07CC00
0C03CC00
0C01EC00
0C00EC00
0C00FC00
0C007C00
0C003C00
0C003C00
3F001C00
FFC00C00
ENDCHAR
STARTCHAR uni01F9
ENCODING 505
SWIDTH 611 0
DWIDTH 19 0
BBX 19 23 0 0
BITMAP
0C0000
0E0000
070000
038000
00C000
006000
000000
1C7800
FDFE00
1F8E00
1E0700
1E0700
1C0700
1C0700
1C0700
1C0700
1C0700
1C0700
1C0700
1C0700
1C0700
1C0700
FF1FE0
ENDCHAR
STARTCHAR Aringacute
ENCODING 506
SWIDTH 722 0
DWIDTH 23 0
BBX 23 39 0 0
BITMAP
000300
000700
000E00
001C00
003000
006000
000000
007800
00CC00
008400
008400
00CC00
007800
000000
001000
003800
003800
007800
007C00
007C00
00DC00
00DE00
019E00
018E00
018F00
030700
030780
030780
060380
07FFC0
07FFC0
0C01C0
0C01E0
0C01E0
1800F0
1800F0
3800F8
7C01FC
FE03FE
ENDCHAR
STARTCHAR aringacute
ENCODING 507
SWIDTH 556 0
DWIDTH 17 0
BBX 16 30 1 0
BITMAP
0030
0070
00E0
01C0
0300
0600
0000
0780
0CC0
0840
0840
0CC0
0780
0000
07C0
1FF0
7878
7038
7038
7038
01F8
0FF8
3C38
7038
E038
E038
E078
F0FD
7F9F
3E0E
ENDCHAR
STARTCHAR AEacute
ENCODING 508
SWIDTH 1000 0
DWIDTH 32 0
BBX 30 32 0 0
BITMAP
00000600
00000E00
00001C00
00003800
00006000
0000C000
00000000
01FFFFFC
007FFFFC
001DC07C
0019C01C
0019C01C
0031C00C
0031C08C
0061C084
0061C184
00C1C180
00C1C380
0181FF80
0181FF80
0301C380
03FFC180
07FFC180
0601C084
0C01C084
0C01C004
1801C00C
1801C00C
3001C01C
3001C07C
7807FFFC
FE1FFFFC
ENDCHAR
STARTCHAR aeacute
ENCODING 509
SWIDTH 796 0
DWIDTH 25 0
BBX 23 23 1 0
BITMAP
000300
000700
000E00
001C00
003000
006000
000000
0FC3E0
3FE7F8
707C1C
703C0C
70380E
70380E
01F80E
0FFFFE
3C3800
703800
F03800
E03C02
E07C06
F0FE1C
7FCFF8
3F03F0
ENDCHAR
STARTCHAR Oslashacute
ENCODING 510
SWIDTH 778 0
DWIDTH 24 0
BBX 22 35 1 -2
BITMAP
000180
000380
000700
000E00
001800
003000
000000
000018
01FE30
07FFB0
0E03E0
1C00E0
3C01F0
3801F0
780378
780678
F0063C
F00C3C
F0183C
F0383C
F0303C
F0603C
F0E03C
F0C03C
718038
7B0078
7B0078
3E0070
3C00F0
1E01E0
1F03C0
37FF80
71FE00
600000
C00000
ENDCHAR
STARTCHAR oslashacute
ENCODING 511
SWIDTH 500 0
DWIDTH 16 0
BBX 14 29 1 -3
BITMAP
0018
0038
0070
00E0
0180
0300
0000
0018
0018
0030
07F0
1FF0
3870
70F8
70D8
E19C
E19C
E31C
E31C
E61C
E61C
EC38
7C38
7870
3FE0
3F80
3000
6000
6000
ENDCHAR
STARTCHAR uni0200
ENCODING 512
SWIDTH 722 0
DWIDTH 23 0
BBX 23 32 0 0
BITMAP
019800
019800
00CC00
00CC00
004400
004400
000000
001000
003800
003800
007800
007C00
007C00
00DC00
00DE00
019E00
018E00
018F00
030700
030780
030780
060380
07FFC0
07FFC0
0C01C0
0C01E0
0C01E0
1800F0
1800F0
3800F8
7C01FC
FE03FE
ENDCHAR
STARTCHAR uni0201
ENCODING 513
SWIDTH 556 0
DWIDTH 17 0
BBX 16 23 1 0
BITMAP
1980
1980
0CC0
0CC0
0440
0440
0000
0FC0
3FF0
7878
7038
6038
0038
01F8
0FF8
3C38
7038
E038
E038
E078
F1FD
7F9F
3E0E
ENDCHAR
STARTCHAR uni0202
ENCODING 514
SWIDTH 722 0
DWIDTH 23 0
BBX 23 30 0 0
BITMAP
003800
00FE00
018300
010100
000000
001000
003800
003800
007800
007C00
007C00
00DC00
00DE00
019E00
018E00
018F00
030700
030780
030780
060380
07FFC0
07FFC0
0C01C0
0C01E0
0C01E0
1800F0
1800F0
3800F8
7C01FC
FE03FE
ENDCHAR
STARTCHAR uni0203
ENCODING 515
SWIDTH 556 0
DWIDTH 17 0
BBX 16 21 1 0
BITMAP
0380
0FE0
1830
1010
0000
0FC0
3FF0
7878
7038
6038
0038
01F8
0FF8
3C38
7038
E038
E038
E078
F1FD
7F9F
3E0E
ENDCHAR
STARTCHAR uni0204
ENCODING 516
SWIDTH 722 0
DWIDTH 24 0
BBX 20 32 1 0
BITMAP
019800
019800
00CC00
00CC00
004400
004400
000000
FFFFF0
3FFFF0
0E01F0
0E0070
0E0070
0E0030
0E0430
0E0410
0E0410
0E0C00
0E3C00
0FFC00
0FFC00
0E3C00
0E0C00
0E0C00
0E0410
0E0410
0E0010
0E0030
0E0030
0E0070
0E01F0
3FFFF0
FFFFF0
ENDCHAR
STARTCHAR uni0205
ENCODING 517
SWIDTH 500 0
DWIDTH 16 0
BBX 14 23 1 0
BITMAP
1980
1980
0CC0
0CC0
0440
0440
0000
07C0
1FF0
3878
7038
601C
E01C
E01C
FFFC
E000
E000
E000
F004
700C
7838
3FF0
0FC0
ENDCHAR
STARTCHAR uni0206
ENCODING 518
SWIDTH 722 0
DWIDTH 24 0
BBX 20 30 1 0
BITMAP
007000
01FC00
030600
020200
000000
FFFFF0
3FFFF0
0E01F0
0E0070
0E0070
0E0030
0E0430
0E0410
0E0410
0E0C00
0E3C00
0FFC00
0FFC00
0E3C00
0E0C00
0E0C00
0E0410
0E0410
0E0010
0E0030
0E0030
0E0070
0E01F0
3FFFF0
FFFFF0
ENDCHAR
STARTCHAR uni0207
ENCODING 519
SWIDTH 500 0
DWIDTH 16 0
BBX 14 21 1 0
BITMAP
0380
0FE0
1830
1010
0000
07C0
1FF0
3878
7038
601C
E01C
E01C
FFFC
E000
E000
E000
F004
700C
7838
3FF0
0FC0
ENDCHAR
STARTCHAR uni0208
ENCODING 520
SWIDTH 407 0
DWIDTH 13 0
BBX 11 32 1 0
BITMAP
6600
6600
3300
3300
1100
1100
0000
FFE0
3F80
0E00
0E00
0E00
0E00
0E00
0E00
0E00
0E00
0E00
0E00
0E00
0E00
0E00
0E00
0E00
0E00
0E00
0E00
0E00
0E00
0E00
3F80
FFE0
ENDCHAR
STARTCHAR uni0209
ENCODING 521
SWIDTH 315 0
DWIDTH 11 0
BBX 9 23 1 0
BITMAP
CC00
CC00
6600
6600
2200
2200
0000
1C00
7C00
1C00
1C00
1C00
1C00
1C00
1C00
1C00
1C00
1C00
1C00
1C00
1C00
1C00
FF80
ENDCHAR
STARTCHAR uni020A
ENCODING 522
SWIDTH 407 0
DWIDTH 13 0
BBX 11 30 1 0
BITMAP
0E00
3F80
60C0
4040
0000
FFE0
3F80
0E00
0E00
0E00
0E00
0E00
0E00
0E00
0E00
0E00
0E00
0E00
0E00
0E00
0E00
0E00
0E00
0E00
0E00
0E00
0E00
0E00
3F80
FFE0
ENDCHAR
STARTCHAR uni020B
ENCODING 523
SWIDTH 315 0
DWIDTH 11 0
BBX 9 21 1 0
BITMAP
1C00
7F00
C180
8080
0000
1C00
7C00
1C00
1C00
1C00
1C00
1C00
1C00
1C00
1C00
1C00
1C00
1C00
1C00
1C00
FF80
ENDCHAR
STARTCHAR uni020C
ENCODING 524
SWIDTH 778 0
DWIDTH 24 0
BBX 22 32 1 0
BITMAP
019800
019800
00CC00
00CC00
004400
004400
000000
01FE00
07FF80
0F03C0
1C00E0
3C00F0
380070
780078
700038
F0003C
F0003C
E0001C
E0001C
E0001C
E0001C
E0001C
F0003C
F00038
700038
780078
380070
3C00F0
1C00E0
0F03C0
07FF80
01FE00
ENDCHAR
STARTCHAR uni020D
ENCODING 525
SWIDTH 500 0
DWIDTH 16 0
BBX 14 23 1 0
BITMAP
1980
1980
0CC0
0CC0
0440
0440
0000
0780
1FE0
3870
7038
7038
E01C
E01C
E01C
E01C
E01C
E01C
7038
7038
3870
1FE0
0780
ENDCHAR
STARTCHAR uni020E
ENCODING 526
SWIDTH 778 0
DWIDTH 24 0
BBX 22 30 1 0
BITMAP
003800
00FE00
018300
010100
000000
01FE00
07FF80
0F03C0
1C00E0
3C00F0
380070
780078
700038
F0003C
F0003C
E0001C
E0001C
E0001C
E0001C
E0001C
F0003C
F00038
700038
780078
380070
3C00F0
1C00E0
0F03C0
07FF80
01FE00
ENDCHAR
STARTCHAR uni020F
ENCODING 527
SWIDTH 500 0
DWIDTH 16 0
BBX 14 21 1 0
BITMAP
0380
0FE0
1830
1010
0000
0780
1FE0
3870
7038
7038
E01C
E01C
E01C
E01C
E01C
E01C
7038
7038
3870
1FE0
0780
ENDCHAR
STARTCHAR uni0210
ENCODING 528
SWIDTH 722 0
DWIDTH 23 0
BBX 21 32 1 0
BITMAP
033000
033000
019800
019800
008800
008800
000000
FFFE00
3FFF80
0E07C0
0E01C0
0E01E0
0E00E0
0E00E0
0E01E0
0E01E0
0E01C0
0E03C0
0E0F00
0FFC00
0FFE00
0E0F00
0E0700
0E0780
0E0380
0E0380
0E0388
0E0388
0E0388
0E03D8
3F81F0
FFE1E0
ENDCHAR
STARTCHAR uni0211
ENCODING 529
SWIDTH 444 0
DWIDTH 15 0
BBX 14 23 0 0
BITMAP
1980
1980
0CC0
0CC0
0440
0440
0000
1C78
FDFC
1F3C
1E3C
1E18
1C00
1C00
1C00
1C00
1C00
1C00
1C00
1C00
1C00
1C00
FF80
ENDCHAR
STARTCHAR uni0212
ENCODING 530
SWIDTH 722 0
DWIDTH 23 0
BBX 21 30 1 0
BITMAP
007000
01FC00
030600
020200
000000
FFFE00
3FFF80
0E07C0
0E01C0
0E01E0
0E00E0
0E00E0
0E01E0
0E01E0
0E01C0
0E03C0
0E0F00
0FFC00
0FFE00
0E0F00
0E0700
0E0780
0E0380
0E0380
0E0388
0E0388
0E0388
0E03D8
3F81F0
FFE1E0
ENDCHAR
STARTCHAR uni0213
ENCODING 531
SWIDTH 444 0
DWIDTH 15 0
BBX 14 21 0 0
BITMAP
0380
0FE0
1830
1010
0000
1C78
FDFC
1F3C
1E3C
1E18
1C00
1C00
1C00
1C00
1C00
1C00
1C00
1C00
1C00
1C00
FF80
ENDCHAR
STARTCHAR uni0214
ENCODING 532
SWIDTH 815 0
DWIDTH 26 0
BBX 26 32 0 0
BITMAP
00CC0000
00CC0000
00660000
00660000
00220000
00220000
00000000
FFE0FFC0
3F803F00
0E000C00
0E000C00
0E000C00
0E000C00
0E000C00
0E000C00
0E000C00
0E000C00
0E000C00
0E000C00
0E000C00
0E000C00
0E000C00
0E000C00
0E000C00
0E000C00
0E000C00
0F001800
07001800
07803000
03E0F000
01FFC000
007F0000
ENDCHAR
STARTCHAR uni0215
ENCODING 533
SWIDTH 611 0
DWIDTH 20 0
BBX 18 23 0 0
BITMAP
066000
066000
033000
033000
011000
011000
000000
1C0700
FC3F00
1C0700
1C0700
1C0700
1C0700
1C0700
1C0700
1C0700
1C0700
1C0700
1C0F00
1C0F00
1E3F00
0FF7C0
07C700
ENDCHAR
STARTCHAR uni0216
ENCODING 534
SWIDTH 815 0
DWIDTH 26 0
BBX 26 30 0 0
BITMAP
001C0000
007F0000
00C18000
00808000
00000000
FFE0FFC0
3F803F00
0E000C00
0E000C00
0E000C00
0E000C00
0E000C00
0E000C00
0E000C00
0E000C00
0E000C00
0E000C00
0E000C00
0E000C00
0E000C00
0E000C00
0E000C00
0E000C00
0E000C00
0F001800
07001800
07803000
03E0F000
01FFC000
007F0000
ENDCHAR
STARTCHAR uni0217
ENCODING 535
SWIDTH 611 0
DWIDTH 20 0
BBX 18 21 0 0
BITMAP
00E000
03F800
060C00
040400
000000
1C0700
FC3F00
1C0700
1C0700
1C0700
1C0700
1C0700
1C0700
1C0700
1C0700
1C0700
1C0F00
1C0F00
1E3F00
0FF7C0
07C700
ENDCHAR
STARTCHAR Scommaaccent
ENCODING 536
SWIDTH 630 0
DWIDTH 20 0
BBX 17 36 2 -11
BITMAP
0FF100
3FFB00
701F00
600700
E00700
E00300
E00100
F00100
F00000
7E0000
7FE000
1FFC00
07FE00
007F00
000F80
800780
800380
C00380
C00380
C00380
E00780
F00700
F80E00
DFFC00
87F000
000000
01C000
03E000
03E000
01E000
006000
006000
00C000
018000
038000
020000
ENDCHAR
STARTCHAR scommaaccent
ENCODING 537
SWIDTH 463 0
DWIDTH 15 0
BBX 11 27 2 -11
BITMAP
1EC0
7FC0
E1C0
C0C0
C0C0
F040
FE00
7F80
3FC0
07E0
80E0
C060
C060
E0E0
FFC0
9F00
0000
0E00
1F00
1F00
0F00
0300
0300
0600
0C00
1C00
1000
ENDCHAR
STARTCHAR Tcommaaccent
ENCODING 538
SWIDTH 667 0
DWIDTH 21 0
BBX 19 36 1 -11
BITMAP
FFFFE0
FFFFE0
F0E3E0
E0E0E0
C0E060
C0E060
80E020
80E020
80E020
00E000
00E000
00E000
00E000
00E000
00E000
00E000
00E000
00E000
00E000
00E000
00E000
00E000
00E000
03F800
0FFE00
000000
00E000
01F000
01F000
00F000
003000
003000
006000
00C000
01C000
010000
ENDCHAR
STARTCHAR tcommaaccent
ENCODING 539
SWIDTH 389 0
DWIDTH 13 0
BBX 12 34 0 -11
BITMAP
0400
0400
0C00
0C00
1C00
1C00
3C00
FFE0
1C00
1C00
1C00
1C00
1C00
1C00
1C00
1C00
1C10
1C10
1C30
1C30
1E60
0FE0
07C0
0000
0700
0F80
0F80
0780
0180
0180
0300
0600
0E00
0800
ENDCHAR
STARTCHAR uni021E
ENCODING 542
SWIDTH 833 0
DWIDTH 27 0
BBX 25 31 1 0
BITMAP
00C0C000
00618000
003F0000
001E0000
000C0000
00000000
FFE3FF80
3F80FE00
0E003800
0E003800
0E003800
0E003800
0E003800
0E003800
0E003800
0E003800
0E003800
0FFFF800
0FFFF800
0E003800
0E003800
0E003800
0E003800
0E003800
0E003800
0E003800
0E003800
0E003800
0E003800
3F80FE00
FFE3FF80
ENDCHAR
STARTCHAR uni021F
ENCODING 543
SWIDTH 611 0
DWIDTH 20 0
BBX 19 31 0 0
BITMAP
606000
30C000
1F8000
0F0000
060000
000000
0C0000
FC0000
1C0000
1C0000
1C0000
1C0000
1C0000
1C0000
1C0000
1C7000
1DFC00
1F1E00
1E0E00
1C0700
1C0700
1C0700
1C0700
1C0700
1C0700
1C0700
1C0700
1C0700
1C0700
1C0700
FF3FE0
ENDCHAR
STARTCHAR uni0226
ENCODING 550
SWIDTH 722 0
DWIDTH 23 0
BBX 23 29 0 0
BITMAP
003000
007800
003000
000000
001000
003800
003800
007800
007C00
007C00
00DC00
00DE00
019E00
018E00
018F00
030700
030780
030780
060380
07FFC0
07FFC0
0C01C0
0C01E0
0C01E0
1800F0
1800F0
3800F8
7C01FC
FE03FE
ENDCHAR
STARTCHAR uni0227
ENCODING 551
SWIDTH 556 0
DWIDTH 17 0
BBX 16 20 1 0
BITMAP
0300
0780
0300
0000
0FC0
3FF0
7878
7038
6038
0038
01F8
0FF8
3C38
7038
E038
E038
E078
F1FD
7F9F
3E0E
ENDCHAR
STARTCHAR uni0228
ENCODING 552
SWIDTH 722 0
DWIDTH 24 0
BBX 20 32 1 -7
BITMAP
FFFFF0
3FFFF0
0E01F0
0E0070
0E0070
0E0030
0E0430
0E0410
0E0410
0E0C00
0E3C00
0FFC00
0FFC00
0E3C00
0E0C00
0E0C00
0E0410
0E0410
0E0010
0E0030
0E0030
0E0070
0E01F0
3FFFF0
FFFFF0
001000
002000
007800
000C00
000C00
008C00
007800
ENDCHAR
STARTCHAR uni0229
ENCODING 553
SWIDTH 500 0
DWIDTH 16 0
BBX 14 23 1 -7
BITMAP
07C0
1FF0
3878
7038
601C
E01C
E01C
FFFC
E000
E000
E000
F004
700C
7838
3FF0
0FC0
0100
0200
0780
00C0
00C0
08C0
0780
ENDCHAR
STARTCHAR uni022A
ENCODING 554
SWIDTH 778 0
DWIDTH 24 0
BBX 22 33 1 0
BITMAP
03FF00
03FF00
000000
00C600
01EF00
00C600
000000
000000
01FE00
07FF80
0F03C0
1C00E0
3C00F0
380070
780078
780078
F0003C
F0003C
F0003C
F0003C
F0003C
F0003C
F0003C
F0003C
F00038
780078
780078
380070
3C00F0
1C00E0
0F03C0
07FF80
01FE00
ENDCHAR
STARTCHAR uni022B
ENCODING 555
SWIDTH 500 0
DWIDTH 16 0
BBX 14 24 1 0
BITMAP
3FF0
3FF0
0000
18C0
3DE0
18C0
0000
0000
0780
1FE0
3870
7038
7038
E01C
E01C
E01C
E01C
E01C
E01C
7038
7038
3870
1FE0
0780
ENDCHAR
STARTCHAR uni022C
ENCODING 556
SWIDTH 778 0
DWIDTH 24 0
BBX 22 33 1 0
BITMAP
03FF00
03FF00
000000
00F180
01FF00
031E00
000000
000000
01FE00
07FF80
0F03C0
1C00E0
3C00F0
380070
780078
780078
F0003C
F0003C
F0003C
F0003C
F0003C
F0003C
F0003C
F0003C
F00038
780078
780078
380070
3C00F0
1C00E0
0F03C0
07FF80
01FE00
ENDCHAR
STARTCHAR uni022D
ENCODING 557
SWIDTH 500 0
DWIDTH 16 0
BBX 14 24 1 0
BITMAP
3FF0
3FF0
0000
0F18
1FF0
31E0
0000
0000
0780
1FE0
3870
7038
7038
E01C
E01C
E01C
E01C
E01C
E01C
7038
7038
3870
1FE0
0780
ENDCHAR
STARTCHAR uni022E
ENCODING 558
SWIDTH 778 0
DWIDTH 24 0
BBX 22 29 1 0
BITMAP
003000
007800
003000
000000
01FE00
07FF80
0F03C0
1C00E0
3C00F0
380070
780078
700038
F0003C
F0003C
E0001C
E0001C
E0001C
E0001C
E0001C
F0003C
F00038
700038
780078
380070
3C00F0
1C00E0
0F03C0
07FF80
01FE00
ENDCHAR
STARTCHAR uni022F
ENCODING 559
SWIDTH 500 0
DWIDTH 16 0
BBX 14 20 1 0
BITMAP
0300
0780
0300
0000
0780
1FE0
3870
7038
7038
E01C
E01C
E01C
E01C
E01C
E01C
7038
7038
3870
1FE0
0780
ENDCHAR
STARTCHAR uni0230
ENCODING 560
SWIDTH 778 0
DWIDTH 24 0
BBX 22 32 1 0
BITMAP
03FF00
03FF00
000000
003000
007800
003000
000000
01FE00
07FF80
0F03C0
1C00E0
3C00F0
380070
780078
700038
F0003C
F0003C
E0001C
E0001C
E0001C
E0001C
E0001C
F0003C
F00038
700038
780078
380070
3C00F0
1C00E0
0F03C0
07FF80
01FE00
ENDCHAR
STARTCHAR uni0231
ENCODING 561
SWIDTH 500 0
DWIDTH 16 0
BBX 14 23 1 0
BITMAP
3FF0
3FF0
0000
0300
0780
0300
0000
0780
1FE0
3870
7038
7038
E01C
E01C
E01C
E01C
E01C
E01C
7038
7038
3870
1FE0
0780
ENDCHAR
STARTCHAR uni0232
ENCODING 562
SWIDTH 704 0
DWIDTH 23 0
BBX 23 28 0 0
BITMAP
03FF00
03FF00
000000
FF83FE
7E00F8
3E0070
1E0060
0F00E0
0F00C0
078180
07C180
03C300
03E300
01E600
00F600
00FC00
007C00
007800
003800
003800
003800
003800
003800
003800
003800
003800
00FE00
03FF80
ENDCHAR
STARTCHAR uni0233
ENCODING 563
SWIDTH 537 0
DWIDTH 20 0
BBX 18 26 1 -7
BITMAP
0FFC00
0FFC00
000000
FF1FC0
3C0700
3C0600
1C0600
1E0C00
0E0C00
0F0800
071800
071800
07B000
03B000
03E000
01E000
01E000
00C000
00C000
018000
018000
630000
F30000
E60000
FC0000
700000
ENDCHAR
STARTCHAR uni0250
ENCODING 592
SWIDTH 556 0
DWIDTH 17 0
BBX 16 16 1 0
BITMAP
707C
F9FE
BF8F
1E07
1C07
1C07
1C0E
1C3C
1FF0
1F80
1C00
1C06
1C0E
1E1E
0FFC
03F0
ENDCHAR
STARTCHAR uni0254
ENCODING 596
SWIDTH 444 0
DWIDTH 14 0
BBX 12 16 1 0
BITMAP
1E00
7F80
E1C0
F0E0
F0E0
6070
0070
0070
0070
0070
0070
80E0
C0E0
61C0
3FC0
1F00
ENDCHAR
STARTCHAR uni0258
ENCODING 600
SWIDTH 500 0
DWIDTH 16 0
BBX 14 16 1 0
BITMAP
0F80
3FE0
7870
7038
E018
E01C
E01C
FFFC
001C
001C
001C
803C
C038
7078
3FF0
0FC0
ENDCHAR
STARTCHAR uni0259
ENCODING 601
SWIDTH 500 0
DWIDTH 16 0
BBX 14 16 1 0
BITMAP
0FC0
3FF0
7078
C038
803C
001C
001C
001C
FFFC
E01C
E01C
E018
7038
7870
3FE0
0F80
ENDCHAR
STARTCHAR uni025F
ENCODING 607
SWIDTH 333 0
DWIDTH 11 0
BBX 14 25 0 -9
BITMAP
0FFC
00E0
00E0
00E0
00E0
00E0
00E0
00E0
00E0
00E0
00E0
00E0
00E0
00E0
00E0
0FFC
00E0
00E0
00E0
00E0
40E0
E0C0
E1C0
E380
7E00
ENDCHAR
STARTCHAR uni0265
ENCODING 613
SWIDTH 611 0
DWIDTH 20 0
BBX 19 25 0 -9
BITMAP
FF9FE0
1C0700
1C0700
1C0700
1C0700
1C0700
1C0700
1C0700
1C0700
1C0700
1C0700
1C0700
0E0F00
0F1F00
07F700
01C700
000700
000700
000700
000700
000700
000700
000700
0007E0
000600
ENDCHAR
STARTCHAR uni0275
ENCODING 629
SWIDTH 500 0
DWIDTH 16 0
BBX 14 16 1 0
BITMAP
0780
1FE0
3870
7038
7038
E01C
E01C
FFFC
FFFC
E01C
E01C
7038
7038
3870
1FE0
0780
ENDCHAR
STARTCHAR uni0279
ENCODING 633
SWIDTH 444 0
DWIDTH 15 0
BBX 14 16 0 0
BITMAP
07FC
00E0
00E0
00E0
00E0
00E0
00E0
00E0
00E0
00E0
00E0
61E0
F1E0
F3E0
FEFC
78E0
ENDCHAR
STARTCHAR uni0287
ENCODING 647
SWIDTH 389 0
DWIDTH 13 0
BBX 12 23 0 0
BITMAP
3E00
7F00
6780
C380
C380
8380
8380
0380
0380
0380
0380
0380
0380
0380
0380
7FF0
03C0
0380
0380
0300
0300
0200
0200
ENDCHAR
STARTCHAR uni0288
ENCODING 648
SWIDTH 389 0
DWIDTH 13 0
BBX 18 30 0 -7
BITMAP
040000
040000
0C0000
0C0000
1C0000
1C0000
3C0000
FFE000
1C0000
1C0000
1C0000
1C0000
1C0000
1C0000
1C0000
1C0000
1C7000
007000
007000
007000
007000
007000
007000
007000
007000
007080
0031C0
0031C0
0019C0
000F80
ENDCHAR
STARTCHAR uni0289
ENCODING 649
SWIDTH 611 0
DWIDTH 20 0
BBX 18 16 0 0
BITMAP
1C0700
FC3F00
1C0700
1C0700
1C0700
1C0700
1C0700
FFFFC0
FFFFC0
1C0700
1C0700
1C0F00
1C0F00
1E3F00
0FF7C0
07C700
ENDCHAR
STARTCHAR uni028C
ENCODING 652
SWIDTH 537 0
DWIDTH 17 0
BBX 17 16 0 0
BITMAP
018000
018000
03C000
03C000
03E000
06E000
06F000
0C7000
0C7000
087800
183800
183C00
303C00
301E00
701F00
FC7F80
ENDCHAR
STARTCHAR uni028D
ENCODING 653
SWIDTH 778 0
DWIDTH 24 0
BBX 24 16 0 0
BITMAP
018180
018180
0381C0
03C3C0
03C3C0
06C2E0
06E6E0
0CE6F0
0CE470
086C70
187838
187838
38383C
30381C
703C1E
FCFE7F
ENDCHAR
STARTCHAR uni028E
ENCODING 654
SWIDTH 537 0
DWIDTH 20 0
BBX 18 23 1 0
BITMAP
000380
000FC0
0019C0
0033C0
003180
006000
006000
00C000
00C000
01E000
01E000
01F000
037000
037800
063800
063800
043C00
0C1C00
0C1E00
180E00
180F00
380F00
FE3FC0
ENDCHAR
STARTCHAR uni029E
ENCODING 670
SWIDTH 593 0
DWIDTH 20 0
BBX 19 25 0 -9
BITMAP
FF1FE0
3C0700
1E0700
0E0700
070700
078700
03C700
01EF00
00FF00
007700
006700
00C700
018700
030700
0F0700
3FC700
000700
000700
000700
000700
000700
000700
000700
0007E0
000600
ENDCHAR
STARTCHAR uni02BB
ENCODING 699
SWIDTH 204 0
DWIDTH 7 0
BBX 5 9 1 16
BITMAP
18
30
60
40
C0
E0
F0
F0
60
ENDCHAR
STARTCHAR afii57929
ENCODING 700
SWIDTH 204 0
DWIDTH 7 0
BBX 5 9 1 16
BITMAP
30
78
78
38
18
10
30
60
C0
ENDCHAR
STARTCHAR afii64937
ENCODING 701
SWIDTH 204 0
DWIDTH 7 0
BBX 5 9 1 16
BITMAP
60
F0
F0
E0
C0
40
60
30
18
ENDCHAR
STARTCHAR circumflex
ENCODING 710
SWIDTH 333 0
DWIDTH 11 0
BBX 10 5 0 17
BITMAP
0C00
1E00
3F00
6180
C0C0
ENDCHAR
STARTCHAR caron
ENCODING 711
SWIDTH 333 0
DWIDTH 11 0
BBX 10 5 0 17
BITMAP
C0C0
6180
3F00
1E00
0C00
ENDCHAR
STARTCHAR uni02C8
ENCODING 712
SWIDTH 204 0
DWIDTH 7 0
BBX 3 8 2 17
BITMAP
E0
E0
E0
E0
40
40
40
40
ENDCHAR
STARTCHAR macron
ENCODING 713
SWIDTH 333 0
DWIDTH 11 0
BBX 10 2 0 19
BITMAP
FFC0
FFC0
ENDCHAR
STARTCHAR uni02CA
ENCODING 714
SWIDTH 333 0
DWIDTH 11 0
BBX 7 6 2 19
BITMAP
06
0E
1C
38
60
C0
ENDCHAR
STARTCHAR uni02CB
ENCODING 715
SWIDTH 333 0
DWIDTH 11 0
BBX 7 6 1 17
BITMAP
C0
E0
70
38
0C
06
ENDCHAR
STARTCHAR uni02CD
ENCODING 717
SWIDTH 333 0
DWIDTH 11 0
BBX 10 2 0 -3
BITMAP
FFC0
FFC0
ENDCHAR
STARTCHAR uni02CE
ENCODING 718
SWIDTH 333 0
DWIDTH 11 0
BBX 7 6 1 -7
BITMAP
C0
E0
70
38
0C
06
ENDCHAR
STARTCHAR uni02CF
ENCODING 719
SWIDTH 333 0
DWIDTH 11 0
BBX 7 6 2 -7
BITMAP
06
0E
1C
38
60
C0
ENDCHAR
STARTCHAR breve
ENCODING 728
SWIDTH 333 0
DWIDTH 11 0
BBX 9 4 1 17
BITMAP
8080
C180
7F00
1C00
ENDCHAR
STARTCHAR dotaccent
ENCODING 729
SWIDTH 333 0
DWIDTH 11 0
BBX 4 3 3 17
BITMAP
60
F0
60
ENDCHAR
STARTCHAR ring
ENCODING 730
SWIDTH 333 0
DWIDTH 11 0
BBX 6 6 2 17
BITMAP
78
CC
84
84
CC
78
ENDCHAR
STARTCHAR ogonek
ENCODING 731
SWIDTH 333 0
DWIDTH 11 0
BBX 6 5 2 -5
BITMAP
30
60
E0
FC
78
ENDCHAR
STARTCHAR tilde
ENCODING 732
SWIDTH 333 0
DWIDTH 11 0
BBX 11 3 0 17
BITMAP
3C60
7FC0
C780
ENDCHAR
STARTCHAR hungarumlaut
ENCODING 733
SWIDTH 333 0
DWIDTH 11 0
BBX 7 6 2 17
BITMAP
66
66
CC
CC
88
88
ENDCHAR
STARTCHAR uni02EE
ENCODING 750
SWIDTH 389 0
DWIDTH 13 0
BBX 11 9 1 16
BITMAP
30C0
79E0
79E0
38E0
1860
1040
30C0
6180
C300
ENDCHAR
STARTCHAR uni037E
ENCODING 894
SWIDTH 278 0
DWIDTH 9 0
BBX 5 21 1 -5
BITMAP
30
78
78
30
00
00
00
00
00
00
00
00
30
78
78
38
18
10
30
60
C0
ENDCHAR
STARTCHAR tonos
ENCODING 900
SWIDTH 333 0
DWIDTH 11 0
BBX 7 6 2 19
BITMAP
06
0E
1C
38
60
C0
ENDCHAR
STARTCHAR dieresistonos
ENCODING 901
SWIDTH 333 0
DWIDTH 11 0
BBX 9 10 1 19
BITMAP
0180
0380
0700
0E00
1800
3000
0000
6300
F780
6300
ENDCHAR
STARTCHAR anoteleia
ENCODING 903
SWIDTH 278 0
DWIDTH 9 0
BBX 4 4 2 6
BITMAP
60
F0
F0
60
ENDCHAR
STARTCHAR mu
ENCODING 956
SWIDTH 611 0
DWIDTH 20 0
BBX 17 23 1 -7
BITMAP
380E00
F83E00
380E00
380E00
380E00
380E00
380E00
380E00
380E00
380E00
380E00
381E00
381E00
3C7E00
3FEE00
2F8F80
200000
200000
700000
700000
700000
700000
200000
ENDCHAR
STARTCHAR uni1E00
ENCODING 7680
SWIDTH 722 0
DWIDTH 23 0
BBX 23 32 0 -7
BITMAP
001000
003800
003800
007800
007C00
007C00
00DC00
00DE00
019E00
018E00
018F00
030700
030780
030780
060380
07FFC0
07FFC0
0C01C0
0C01E0
0C01E0
1800F0
1800F0
3800F8
7C01FC
FE03FE
000000
003C00
006600
004200
004200
006600
003C00
ENDCHAR
STARTCHAR uni1E01
ENCODING 7681
SWIDTH 556 0
DWIDTH 17 0
BBX 16 23 1 -7
BITMAP
0FC0
3FF0
7878
7038
6038
0038
01F8
0FF8
3C38
7038
E038
E038
E078
F1FD
7F9F
3E0E
0000
03C0
0660
0420
0420
0660
03C0
ENDCHAR
STARTCHAR uni1E02
ENCODING 7682
SWIDTH 722 0
DWIDTH 23 0
BBX 20 29 1 0
BITMAP
006000
00F000
006000
000000
FFFE00
3FFF80
0E07C0
0E01C0
0E01E0
0E01E0
0E01E0
0E01E0
0E01C0
0E01C0
0E0380
0FFF00
0FFC00
0E0F80
0E03C0
0E01E0
0E00F0
0E00F0
0E00F0
0E00F0
0E00F0
0E01E0
0E03E0
3FFFC0
FFFF00
ENDCHAR
STARTCHAR uni1E03
ENCODING 7683
SWIDTH 556 0
DWIDTH 17 0
BBX 15 29 0 0
BITMAP
0C00
1E00
0C00
0000
1800
F800
3800
3800
3800
3800
3800
3800
3800
39E0
3BF8
3E1C
3C1C
3C0E
380E
380E
380E
380E
380E
380E
3C0E
3C1C
3E1C
37F8
21E0
ENDCHAR
STARTCHAR uni1E04
ENCODING 7684
SWIDTH 722 0
DWIDTH 23 0
BBX 20 29 1 -4
BITMAP
FFFE00
3FFF80
0E07C0
0E01C0
0E01E0
0E01E0
0E01E0
0E01E0
0E01C0
0E01C0
0E0380
0FFF00
0FFC00
0E0F80
0E03C0
0E01E0
0E00F0
0E00F0
0E00F0
0E00F0
0E00F0
0E01E0
0E03E0
3FFFC0
FFFF00
000000
003000
007800
003000
ENDCHAR
STARTCHAR uni1E05
ENCODING 7685
SWIDTH 556 0
DWIDTH 17 0
BBX 15 29 0 -4
BITMAP
1800
F800
3800
3800
3800
3800
3800
3800
3800
39E0
3BF8
3E1C
3C1C
3C0E
380E
380E
380E
380E
380E
380E
3C0E
3C1C
3E1C
37F8
21E0
0000
0180
03C0
0180
ENDCHAR
STARTCHAR uni1E06
ENCODING 7686
SWIDTH 722 0
DWIDTH 23 0
BBX 20 28 1 -3
BITMAP
FFFE00
3FFF80
0E07C0
0E01C0
0E01E0
0E01E0
0E01E0
0E01E0
0E01C0
0E01C0
0E0380
0FFF00
0FFC00
0E0F80
0E03C0
0E01E0
0E00F0
0E00F0
0E00F0
0E00F0
0E00F0
0E01E0
0E03E0
3FFFC0
FFFF00
000000
03FF00
03FF00
ENDCHAR
STARTCHAR uni1E07
ENCODING 7687
SWIDTH 556 0
DWIDTH 17 0
BBX 15 28 0 -3
BITMAP
1800
F800
3800
3800
3800
3800
3800
3800
3800
39E0
3BF8
3E1C
3C1C
3C0E
380E
380E
380E
380E
380E
380E
3C0E
3C1C
3E1C
37F8
21E0
0000
1FF8
1FF8
ENDCHAR
STARTCHAR uni1E08
ENCODING 7688
SWIDTH 722 0
DWIDTH 22 0
BBX 20 39 1 -7
BITMAP
000600
000E00
001C00
003800
006000
00C000
000000
00F860
03FF60
0F07E0
1C01E0
3C00E0
3800E0
780060
780060
F00060
F00020
F00000
F00000
F00000
F00000
F00000
F00000
F00030
780030
780020
780060
3C0060
1C00C0
0E0180
07CF00
01FE00
002000
004000
00F000
001800
001800
011800
00F000
ENDCHAR
STARTCHAR uni1E09
ENCODING 7689
SWIDTH 444 0
DWIDTH 14 0
BBX 12 30 1 -7
BITMAP
0060
00E0
01C0
0380
0600
0C00
0000
0780
1FE0
3870
70F0
70F0
E060
E000
E000
E000
E000
F000
F010
7830
7C60
3FC0
0F00
0200
0400
0F00
0180
0180
1180
0F00
ENDCHAR
STARTCHAR uni1E0A
ENCODING 7690
SWIDTH 778 0
DWIDTH 25 0
BBX 22 29 1 0
BITMAP
003000
007800
003000
000000
FFFE00
3FFFC0
0E03E0
0E00F0
0E0070
0E0078
0E0078
0E003C
0E003C
0E003C
0E003C
0E003C
0E003C
0E003C
0E003C
0E003C
0E003C
0E003C
0E0038
0E0078
0E0070
0E00E0
0E03E0
3FFFC0
FFFE00
ENDCHAR
STARTCHAR uni1E0B
ENCODING 7691
SWIDTH 574 0
DWIDTH 18 0
BBX 16 29 1 0
BITMAP
0030
0078
0030
0000
000C
007C
001C
001C
001C
001C
001C
001C
001C
079C
1FDC
387C
703C
703C
E01C
E01C
E01C
E01C
E01C
E01C
F03C
703C
787C
1FDC
079F
ENDCHAR
STARTCHAR uni1E0C
ENCODING 7692
SWIDTH 778 0
DWIDTH 25 0
BBX 22 29 1 -4
BITMAP
FFFE00
3FFFC0
0E03E0
0E00F0
0E0070
0E0078
0E0078
0E003C
0E003C
0E003C
0E003C
0E003C
0E003C
0E003C
0E003C
0E003C
0E003C
0E003C
0E0038
0E0078
0E0070
0E00E0
0E03E0
3FFFC0
FFFE00
000000
003000
007800
003000
ENDCHAR
STARTCHAR uni1E0D
ENCODING 7693
SWIDTH 574 0
DWIDTH 18 0
BBX 16 29 1 -4
BITMAP
000C
007C
001C
001C
001C
001C
001C
001C
001C
079C
1FDC
387C
703C
703C
E01C
E01C
E01C
E01C
E01C
E01C
F03C
703C
787C
1FDC
079F
0000
0180
03C0
0180
ENDCHAR
STARTCHAR uni1E0E
ENCODING 7694
SWIDTH 778 0
DWIDTH 25 0
BBX 22 28 1 -3
BITMAP
FFFE00
3FFFC0
0E03E0
0E00F0
0E0070
0E0078
0E0078
0E003C
0E003C
0E003C
0E003C
0E003C
0E003C
0E003C
0E003C
0E003C
0E003C
0E003C
0E0038
0E0078
0E0070
0E00E0
0E03E0
3FFFC0
FFFE00
000000
03FF00
03FF00
ENDCHAR
STARTCHAR uni1E0F
ENCODING 7695
SWIDTH 574 0
DWIDTH 18 0
BBX 16 28 1 -3
BITMAP
000C
007C
001C
001C
001C
001C
001C
001C
001C
079C
1FDC
387C
703C
703C
E01C
E01C
E01C
E01C
E01C
E01C
F03C
703C
787C
1FDC
079F
0000
1FF8
1FF8
ENDCHAR
STARTCHAR uni1E10
ENCODING 7696
SWIDTH 778 0
DWIDTH 25 0
BBX 22 32 1 -7
BITMAP
FFFE00
3FFFC0
0E03E0
0E00F0
0E0070
0E0078
0E0078
0E003C
0E003C
0E003C
0E003C
0E003C
0E003C
0E003C
0E003C
0E003C
0E003C
0E003C
0E0038
0E0078
0E0070
0E00E0
0E03E0
3FFFC0
FFFE00
001000
002000
007800
000C00
000C00
008C00
007800
ENDCHAR
STARTCHAR uni1E11
ENCODING 7697
SWIDTH 574 0
DWIDTH 18 0
BBX 16 32 1 -7
BITMAP
000C
007C
001C
001C
001C
001C
001C
001C
001C
079C
1FDC
387C
703C
703C
E01C
E01C
E01C
E01C
E01C
E01C
F03C
703C
787C
1FDC
079F
0080
0100
03C0
0060
0060
0460
03C0
ENDCHAR
STARTCHAR uni1E12
ENCODING 7698
SWIDTH 778 0
DWIDTH 25 0
BBX 22 31 1 -6
BITMAP
FFFE00
3FFFC0
0E03E0
0E00F0
0E0070
0E0078
0E0078
0E003C
0E003C
0E003C
0E003C
0E003C
0E003C
0E003C
0E003C
0E003C
0E003C
0E003C
0E0038
0E0078
0E0070
0E00E0
0E03E0
3FFFC0
FFFE00
000000
003000
007800
00FC00
018600
030300
ENDCHAR
STARTCHAR uni1E13
ENCODING 7699
SWIDTH 574 0
DWIDTH 18 0
BBX 16 31 1 -6
BITMAP
000C
007C
001C
001C
001C
001C
001C
001C
001C
079C
1FDC
387C
703C
703C
E01C
E01C
E01C
E01C
E01C
E01C
F03C
703C
787C
1FDC
079F
0000
0180
03C0
07E0
0C30
1818
ENDCHAR
STARTCHAR uni1E14
ENCODING 7700
SWIDTH 722 0
DWIDTH 24 0
BBX 20 35 1 0
BITMAP
030000
038000
01C000
00E000
003000
001800
000000
03FF00
03FF00
000000
FFFFF0
3FFFF0
0E01F0
0E0070
0E0070
0E0030
0E0430
0E0410
0E0410
0E0C00
0E3C00
0FFC00
0FFC00
0E3C00
0E0C00
0E0C00
0E0410
0E0410
0E0010
0E0030
0E0030
0E0070
0E01F0
3FFFF0
FFFFF0
ENDCHAR
STARTCHAR uni1E15
ENCODING 7701
SWIDTH 500 0
DWIDTH 16 0
BBX 14 26 1 0
BITMAP
3000
3800
1C00
0E00
0300
0180
0000
3FF0
3FF0
0000
07C0
1FF0
3878
7038
601C
E01C
E01C
FFFC
E000
E000
E000
F004
700C
7838
3FF0
0FC0
ENDCHAR
STARTCHAR uni1E16
ENCODING 7702
SWIDTH 722 0
DWIDTH 24 0
BBX 20 35 1 0
BITMAP
000300
000700
000E00
001C00
003000
006000
000000
03FF00
03FF00
000000
FFFFF0
3FFFF0
0E01F0
0E0070
0E0070
0E0030
0E0430
0E0410
0E0410
0E0C00
0E3C00
0FFC00
0FFC00
0E3C00
0E0C00
0E0C00
0E0410
0E0410
0E0010
0E0030
0E0030
0E0070
0E01F0
3FFFF0
FFFFF0
ENDCHAR
STARTCHAR uni1E17
ENCODING 7703
SWIDTH 500 0
DWIDTH 16 0
BBX 14 26 1 0
BITMAP
0030
0070
00E0
01C0
0300
0600
0000
3FF0
3FF0
0000
07C0
1FF0
3878
7038
601C
E01C
E01C
FFFC
E000
E000
E000
F004
700C
7838
3FF0
0FC0
ENDCHAR
STARTCHAR uni1E18
ENCODING 7704
SWIDTH 722 0
DWIDTH 24 0
BBX 20 31 1 -6
BITMAP
FFFFF0
3FFFF0
0E01F0
0E0070
0E0070
0E0030
0E0430
0E0410
0E0410
0E0C00
0E3C00
0FFC00
0FFC00
0E3C00
0E0C00
0E0C00
0E0410
0E0410
0E0010
0E0030
0E0030
0E0070
0E01F0
3FFFF0
FFFFF0
000000
003000
007800
00FC00
018600
030300
ENDCHAR
STARTCHAR uni1E19
ENCODING 7705
SWIDTH 500 0
DWIDTH 16 0
BBX 14 22 1 -6
BITMAP
07C0
1FF0
3878
7038
601C
E01C
E01C
FFFC
E000
E000
E000
F004
700C
7838
3FF0
0FC0
0000
0300
0780
0FC0
1860
3030
ENDCHAR
STARTCHAR uni1E1A
ENCODING 7706
SWIDTH 722 0
DWIDTH 24 0
BBX 20 29 1 -4
BITMAP
FFFFF0
3FFFF0
0E01F0
0E0070
0E0070
0E0030
0E0430
0E0410
0E0410
0E0C00
0E3C00
0FFC00
0FFC00
0E3C00
0E0C00
0E0C00
0E0410
0E0410
0E0010
0E0030
0E0030
0E0070
0E01F0
3FFFF0
FFFFF0
000000
01E300
03FE00
063C00
ENDCHAR
STARTCHAR uni1E1B
ENCODING 7707
SWIDTH 500 0
DWIDTH 16 0
BBX 14 20 1 -4
BITMAP
07C0
1FF0
3878
7038
601C
E01C
E01C
FFFC
E000
E000
E000
F004
700C
7838
3FF0
0FC0
0000
1E30
3FE0
63C0
ENDCHAR
STARTCHAR uni1E1C
ENCODING 7708
SWIDTH 722 0
DWIDTH 24 0
BBX 20 37 1 -7
BITMAP
020200
030600
01FC00
007000
000000
FFFFF0
3FFFF0
0E01F0
0E0070
0E0070
0E0030
0E0430
0E0410
0E0410
0E0C00
0E3C00
0FFC00
0FFC00
0E3C00
0E0C00
0E0C00
0E0410
0E0410
0E0010
0E0030
0E0030
0E0070
0E01F0
3FFFF0
FFFFF0
001000
002000
007800
000C00
000C00
008C00
007800
ENDCHAR
STARTCHAR uni1E1D
ENCODING 7709
SWIDTH 500 0
DWIDTH 16 0
BBX 14 28 1 -7
BITMAP
1010
1830
0FE0
0380
0000
07C0
1FF0
3878
7038
601C
E01C
E01C
FFFC
E000
E000
E000
F004
700C
7838
3FF0
0FC0
0100
0200
0780
00C0
00C0
08C0
0780
ENDCHAR
STARTCHAR uni1E1E
ENCODING 7710
SWIDTH 667 0
DWIDTH 22 0
BBX 20 29 1 0
BITMAP
003000
007800
003000
000000
FFFFF0
3FFFF0
0E01F0
0E0070
0E0030
0E0030
0E0010
0E0410
0E0410
0E0C00
0E0C00
0E3C00
0FFC00
0FFC00
0E1C00
0E0C00
0E0400
0E0400
0E0400
0E0000
0E0000
0E0000
0E0000
3F8000
FFE000
ENDCHAR
STARTCHAR uni1E1F
ENCODING 7711
SWIDTH 333 0
DWIDTH 11 0
BBX 14 29 0 0
BITMAP
0180
03C0
0180
0000
01F8
071C
0E1C
0C1C
1C08
1C00
1C00
1C00
1C00
FFC0
1C00
1C00
1C00
1C00
1C00
1C00
1C00
1C00
1C00
1C00
1C00
1C00
1C00
1C00
FFC0
ENDCHAR
STARTCHAR uni1E20
ENCODING 7712
SWIDTH 778 0
DWIDTH 24 0
BBX 24 28 1 0
BITMAP
01FF80
01FF80
000000
01FE30
07FFB0
0F03F0
1E00F0
3C0070
380070
780030
700030
700010
F00010
F00000
F00000
F00000
F00000
F007FF
F000F8
F00070
700070
700070
780070
3800F0
1C00F0
0F01B0
07FF30
01FE10
ENDCHAR
STARTCHAR uni1E21
ENCODING 7713
SWIDTH 537 0
DWIDTH 17 0
BBX 16 26 1 -7
BITMAP
1FF8
1FF8
0000
079F
1FFB
3873
7038
7038
7038
7038
7038
3870
1FE0
3780
6000
6000
7FE0
7FF8
3FFC
303E
600E
E00E
E00E
F83C
7FF8
0FC0
ENDCHAR
STARTCHAR uni1E22
ENCODING 7714
SWIDTH 833 0
DWIDTH 27 0
BBX 25 29 1 0
BITMAP
000C0000
001E0000
000C0000
00000000
FFE3FF80
3F80FE00
0E003800
0E003800
0E003800
0E003800
0E003800
0E003800
0E003800
0E003800
0E003800
0FFFF800
0FFFF800
0E003800
0E003800
0E003800
0E003800
0E003800
0E003800
0E003800
0E003800
0E003800
0E003800
3F80FE00
FFE3FF80
ENDCHAR
STARTCHAR uni1E23
ENCODING 7715
SWIDTH 611 0
DWIDTH 20 0
BBX 19 29 0 0
BITMAP
060000
0F0000
060000
000000
0C0000
FC0000
1C0000
1C0000
1C0000
1C0000
1C0000
1C0000
1C0000
1C7000
1DFC00
1F1E00
1E0E00
1C0700
1C0700
1C0700
1C0700
1C0700
1C0700
1C0700
1C0700
1C0700
1C0700
1C0700
FF3FE0
ENDCHAR
STARTCHAR uni1E24
ENCODING 7716
SWIDTH 833 0
DWIDTH 27 0
BBX 25 29 1 -4
BITMAP
FFE3FF80
3F80FE00
0E003800
0E003800
0E003800
0E003800
0E003800
0E003800
0E003800
0E003800
0E003800
0FFFF800
0FFFF800
0E003800
0E003800
0E003800
0E003800
0E003800
0E003800
0E003800
0E003800
0E003800
0E003800
3F80FE00
FFE3FF80
00000000
000C0000
001E0000
000C0000
ENDCHAR
STARTCHAR uni1E25
ENCODING 7717
SWIDTH 611 0
DWIDTH 20 0
BBX 19 29 0 -4
BITMAP
0C0000
FC0000
1C0000
1C0000
1C0000
1C0000
1C0000
1C0000
1C0000
1C7000
1DFC00
1F1E00
1E0E00
1C0700
1C0700
1C0700
1C0700
1C0700
1C0700
1C0700
1C0700
1C0700
1C0700
1C0700
FF3FE0
000000
006000
00F000
006000
ENDCHAR
STARTCHAR uni1E26
ENCODING 7718
SWIDTH 833 0
DWIDTH 27 0
BBX 25 29 1 0
BITMAP
00630000
00F78000
00630000
00000000
FFE3FF80
3F80FE00
0E003800
0E003800
0E003800
0E003800
0E003800
0E003800
0E003800
0E003800
0E003800
0FFFF800
0FFFF800
0E003800
0E003800
0E003800
0E003800
0E003800
0E003800
0E003800
0E003800
0E003800
0E003800
3F80FE00
FFE3FF80
ENDCHAR
STARTCHAR uni1E27
ENCODING 7719
SWIDTH 611 0
DWIDTH 20 0
BBX 19 29 0 0
BITMAP
318000
7BC000
318000
000000
0C0000
FC0000
1C0000
1C0000
1C0000
1C0000
1C0000
1C0000
1C0000
1C7000
1DFC00
1F1E00
1E0E00
1C0700
1C0700
1C0700
1C0700
1C0700
1C0700
1C0700
1C0700
1C0700
1C0700
1C0700
FF3FE0
ENDCHAR
STARTCHAR uni1E28
ENCODING 7720
SWIDTH 833 0
DWIDTH 27 0
BBX 25 32 1 -7
BITMAP
FFE3FF80
3F80FE00
0E003800
0E003800
0E003800
0E003800
0E003800
0E003800
0E003800
0E003800
0E003800
0FFFF800
0FFFF800
0E003800
0E003800
0E003800
0E003800
0E003800
0E003800
0E003800
0E003800
0E003800
0E003800
3F80FE00
FFE3FF80
00040000
00080000
001E0000
00030000
00030000
00230000
001E0000
ENDCHAR
STARTCHAR uni1E29
ENCODING 7721
SWIDTH 611 0
DWIDTH 20 0
BBX 19 32 0 -7
BITMAP
0C0000
FC0000
1C0000
1C0000
1C0000
1C0000
1C0000
1C0000
1C0000
1C7000
1DFC00
1F1E00
1E0E00
1C0700
1C0700
1C0700
1C0700
1C0700
1C0700
1C0700
1C0700
1C0700
1C0700
1C0700
FF3FE0
002000
004000
00F000
001800
001800
011800
00F000
ENDCHAR
STARTCHAR uni1E2A
ENCODING 7722
SWIDTH 833 0
DWIDTH 27 0
BBX 25 30 1 -5
BITMAP
FFE3FF80
3F80FE00
0E003800
0E003800
0E003800
0E003800
0E003800
0E003800
0E003800
0E003800
0E003800
0FFFF800
0FFFF800
0E003800
0E003800
0E003800
0E003800
0E003800
0E003800
0E003800
0E003800
0E003800
0E003800
3F80FE00
FFE3FF80
00000000
00808000
00C18000
007F0000
001C0000
ENDCHAR
STARTCHAR uni1E2B
ENCODING 7723
SWIDTH 611 0
DWIDTH 20 0
BBX 19 30 0 -5
BITMAP
0C0000
FC0000
1C0000
1C0000
1C0000
1C0000
1C0000
1C0000
1C0000
1C7000
1DFC00
1F1E00
1E0E00
1C0700
1C0700
1C0700
1C0700
1C0700
1C0700
1C0700
1C0700
1C0700
1C0700
1C0700
FF3FE0
000000
040400
060C00
03F800
00E000
ENDCHAR
STARTCHAR uni1E2C
ENCODING 7724
SWIDTH 407 0
DWIDTH 13 0
BBX 11 29 1 -4
BITMAP
FFE0
3F80
0E00
0E00
0E00
0E00
0E00
0E00
0E00
0E00
0E00
0E00
0E00
0E00
0E00
0E00
0E00
0E00
0E00
0E00
0E00
0E00
0E00
3F80
FFE0
0000
3C60
7FC0
C780
ENDCHAR
STARTCHAR uni1E2D
ENCODING 7725
SWIDTH 315 0
DWIDTH 10 0
BBX 11 28 0 -4
BITMAP
0C00
1E00
1E00
0C00
0000
0000
0000
0000
0E00
7E00
0E00
0E00
0E00
0E00
0E00
0E00
0E00
0E00
0E00
0E00
0E00
0E00
0E00
7FC0
0000
3C60
7FC0
C780
ENDCHAR
STARTCHAR uni1E2E
ENCODING 7726
SWIDTH 407 0
DWIDTH 13 0
BBX 11 37 1 0
BITMAP
00C0
01C0
0380
0700
0C00
1800
0000
3180
7BC0
3180
0000
0000
FFE0
3F80
0E00
0E00
0E00
0E00
0E00
0E00
0E00
0E00
0E00
0E00
0E00
0E00
0E00
0E00
0E00
0E00
0E00
0E00
0E00
0E00
0E00
3F80
FFE0
ENDCHAR
STARTCHAR uni1E2F
ENCODING 7727
SWIDTH 315 0
DWIDTH 11 0
BBX 9 28 1 0
BITMAP
0180
0380
0700
0E00
1800
3000
0000
6300
F780
6300
0000
0000
FC00
1C00
1C00
1C00
1C00
1C00
1C00
1C00
1C00
1C00
1C00
1C00
1C00
1C00
1C00
FF80
ENDCHAR
STARTCHAR uni1E30
ENCODING 7728
SWIDTH 778 0
DWIDTH 25 0
BBX 25 32 1 0
BITMAP
00018000
00038000
00070000
000E0000
00180000
00300000
00000000
FFE3FF00
3F81FC00
0E00F000
0E00E000
0E01C000
0E018000
0E030000
0E060000
0E0E0000
0E1C0000
0E380000
0E7C0000
0EFE0000
0FDE0000
0F8F0000
0F078000
0E07C000
0E03C000
0E01E000
0E01F000
0E00F000
0E007800
0E007C00
3F003E00
FFC0FF80
ENDCHAR
STARTCHAR uni1E31
ENCODING 7729
SWIDTH 593 0
DWIDTH 20 0
BBX 19 32 0 0
BITMAP
006000
00E000
01C000
038000
060000
0C0000
000000
0C0000
FC0000
1C0000
1C0000
1C0000
1C0000
1C0000
1C0000
1C0000
1C7F80
1C1E00
1C1800
1C3000
1C6000
1CC000
1DC000
1FE000
1EF000
1C7800
1C3C00
1C1C00
1C0E00
1C0F00
1C0780
FF1FE0
ENDCHAR
STARTCHAR uni1E32
ENCODING 7730
SWIDTH 778 0
DWIDTH 25 0
BBX 25 29 1 -4
BITMAP
FFE3FF00
3F81FC00
0E00F000
0E00E000
0E01C000
0E018000
0E030000
0E060000
0E0E0000
0E1C0000
0E380000
0E7C0000
0EFE0000
0FDE0000
0F8F0000
0F078000
0E07C000
0E03C000
0E01E000
0E01F000
0E00F000
0E007800
0E007C00
3F003E00
FFC0FF80
00000000
000C0000
001E0000
000C0000
ENDCHAR
STARTCHAR uni1E33
ENCODING 7731
SWIDTH 593 0
DWIDTH 20 0
BBX 19 29 0 -4
BITMAP
0C0000
FC0000
1C0000
1C0000
1C0000
1C0000
1C0000
1C0000
1C0000
1C7F80
1C1E00
1C1800
1C3000
1C6000
1CC000
1DC000
1FE000
1EF000
1C7800
1C3C00
1C1C00
1C0E00
1C0F00
1C0780
FF1FE0
000000
00C000
01E000
00C000
ENDCHAR
STARTCHAR uni1E34
ENCODING 7732
SWIDTH 778 0
DWIDTH 25 0
BBX 25 28 1 -3
BITMAP
FFE3FF00
3F81FC00
0E00F000
0E00E000
0E01C000
0E018000
0E030000
0E060000
0E0E0000
0E1C0000
0E380000
0E7C0000
0EFE0000
0FDE0000
0F8F0000
0F078000
0E07C000
0E03C000
0E01E000
0E01F000
0E00F000
0E007800
0E007C00
3F003E00
FFC0FF80
00000000
00FFC000
00FFC000
ENDCHAR
STARTCHAR uni1E35
ENCODING 7733
SWIDTH 593 0
DWIDTH 20 0
BBX 19 28 0 -3
BITMAP
0C0000
FC0000
1C0000
1C0000
1C0000
1C0000
1C0000
1C0000
1C0000
1C7F80
1C1E00
1C1800
1C3000
1C6000
1CC000
1DC000
1FE000
1EF000
1C7800
1C3C00
1C1C00
1C0E00
1C0F00
1C0780
FF1FE0
000000
0FFC00
0FFC00
ENDCHAR
STARTCHAR uni1E36
ENCODING 7734
SWIDTH 667 0
DWIDTH 22 0
BBX 20 29 1 -4
BITMAP
FFE000
3F8000
0E0000
0E0000
0E0000
0E0000
0E0000
0E0000
0E0000
0E0000
0E0000
0E0000
0E0000
0E0000
0E0000
0E0000
0E0010
0E0010
0E0010
0E0030
0E0030
0E0070
0E01F0
3FFFE0
FFFFE0
000000
006000
00F000
006000
ENDCHAR
STARTCHAR uni1E37
ENCODING 7735
SWIDTH 315 0
DWIDTH 11 0
BBX 9 29 1 -4
BITMAP
0C00
1C00
FC00
1C00
1C00
1C00
1C00
1C00
1C00
1C00
1C00
1C00
1C00
1C00
1C00
1C00
1C00
1C00
1C00
1C00
1C00
1C00
1C00
1C00
FF80
0000
0C00
1E00
0C00
ENDCHAR
STARTCHAR uni1E38
ENCODING 7736
SWIDTH 667 0
DWIDTH 22 0
BBX 20 32 1 -4
BITMAP
3FF000
3FF000
000000
FFE000
3F8000
0E0000
0E0000
0E0000
0E0000
0E0000
0E0000
0E0000
0E0000
0E0000
0E0000
0E0000
0E0000
0E0000
0E0000
0E0010
0E0010
0E0010
0E0030
0E0030
0E0070
0E01F0
3FFFE0
FFFFE0
000000
006000
00F000
006000
ENDCHAR
STARTCHAR uni1E39
ENCODING 7737
SWIDTH 315 0
DWIDTH 11 0
BBX 10 32 0 -4
BITMAP
FFC0
FFC0
0000
0600
0E00
7E00
0E00
0E00
0E00
0E00
0E00
0E00
0E00
0E00
0E00
0E00
0E00
0E00
0E00
0E00
0E00
0E00
0E00
0E00
0E00
0E00
0E00
7FC0
0000
0600
0F00
0600
ENDCHAR
STARTCHAR uni1E3A
ENCODING 7738
SWIDTH 667 0
DWIDTH 22 0
BBX 20 28 1 -3
BITMAP
FFE000
3F8000
0E0000
0E0000
0E0000
0E0000
0E0000
0E0000
0E0000
0E0000
0E0000
0E0000
0E0000
0E0000
0E0000
0E0000
0E0010
0E0010
0E0010
0E0030
0E0030
0E0070
0E01F0
3FFFE0
FFFFE0
000000
07FE00
07FE00
ENDCHAR
STARTCHAR uni1E3B
ENCODING 7739
SWIDTH 315 0
DWIDTH 11 0
BBX 10 28 1 -3
BITMAP
0C00
1C00
FC00
1C00
1C00
1C00
1C00
1C00
1C00
1C00
1C00
1C00
1C00
1C00
1C00
1C00
1C00
1C00
1C00
1C00
1C00
1C00
1C00
1C00
FF80
0000
FFC0
FFC0
ENDCHAR
STARTCHAR uni1E3C
ENCODING 7740
SWIDTH 667 0
DWIDTH 22 0
BBX 20 31 1 -6
BITMAP
FFE000
3F8000
0E0000
0E0000
0E0000
0E0000
0E0000
0E0000
0E0000
0E0000
0E0000
0E0000
0E0000
0E0000
0E0000
0E0000
0E0010
0E0010
0E0010
0E0030
0E0030
0E0070
0E01F0
3FFFE0
FFFFE0
000000
006000
00F000
01F800
030C00
060600
ENDCHAR
STARTCHAR uni1E3D
ENCODING 7741
SWIDTH 315 0
DWIDTH 11 0
BBX 10 31 1 -6
BITMAP
0C00
1C00
FC00
1C00
1C00
1C00
1C00
1C00
1C00
1C00
1C00
1C00
1C00
1C00
1C00
1C00
1C00
1C00
1C00
1C00
1C00
1C00
1C00
1C00
FF80
0000
0C00
1E00
3F00
6180
C0C0
ENDCHAR
STARTCHAR uni1E3E
ENCODING 7742
SWIDTH 944 0
DWIDTH 30 0
BBX 29 32 0 0
BITMAP
00006000
0000E000
0001C000
00038000
00060000
000C0000
00000000
7F800FF8
1F800FC0
0F800F80
0FC00F80
0DC01B80
0DC01B80
0DE01380
0CE03380
0CE03380
0CF02380
0C706380
0C706380
0C786380
0C38C380
0C38C380
0C3CC380
0C1C8380
0C1D8380
0C1F8380
0C1F0380
0C0F0380
0C0F0380
0C0E0380
3F060FE0
FFC63FF8
ENDCHAR
STARTCHAR uni1E3F
ENCODING 7743
SWIDTH 889 0
DWIDTH 27 0
BBX 27 23 0 0
BITMAP
00018000
00038000
00070000
000E0000
00180000
00300000
00000000
1CF07800
FDFCFE00
1F1D8E00
1E0F0700
1E0F0700
1C0E0700
1C0E0700
1C0E0700
1C0E0700
1C0E0700
1C0E0700
1C0E0700
1C0E0700
1C0E0700
1C0E0700
FF3F9FE0
ENDCHAR
STARTCHAR uni1E40
ENCODING 7744
SWIDTH 944 0
DWIDTH 30 0
BBX 29 29 0 0
BITMAP
00030000
00078000
00030000
00000000
7F800FF8
1F800FC0
0F800F80
0FC00F80
0DC01B80
0DC01B80
0DE01380
0CE03380
0CE03380
0CF02380
0C706380
0C706380
0C786380
0C38C380
0C38C380
0C3CC380
0C1C8380
0C1D8380
0C1F8380
0C1F0380
0C0F0380
0C0F0380
0C0E0380
3F060FE0
FFC63FF8
ENDCHAR
STARTCHAR uni1E41
ENCODING 7745
SWIDTH 889 0
DWIDTH 27 0
BBX 27 20 0 0
BITMAP
000C0000
001E0000
000C0000
00000000
1CF07800
FDFCFE00
1F1D8E00
1E0F0700
1E0F0700
1C0E0700
1C0E0700
1C0E0700
1C0E0700
1C0E0700
1C0E0700
1C0E0700
1C0E0700
1C0E0700
1C0E0700
FF3F9FE0
ENDCHAR
STARTCHAR uni1E42
ENCODING 7746
SWIDTH 944 0
DWIDTH 30 0
BBX 29 29 0 -4
BITMAP
7F800FF8
1F800FC0
0F800F80
0FC00F80
0DC01B80
0DC01B80
0DE01380
0CE03380
0CE03380
0CF02380
0C706380
0C706380
0C786380
0C38C380
0C38C380
0C3CC380
0C1C8380
0C1D8380
0C1F8380
0C1F0380
0C0F0380
0C0F0380
0C0E0380
3F060FE0
FFC63FF8
00000000
00030000
00078000
00030000
ENDCHAR
STARTCHAR uni1E43
ENCODING 7747
SWIDTH 889 0
DWIDTH 27 0
BBX 27 20 0 -4
BITMAP
1CF07800
FDFCFE00
1F1D8E00
1E0F0700
1E0F0700
1C0E0700
1C0E0700
1C0E0700
1C0E0700
1C0E0700
1C0E0700
1C0E0700
1C0E0700
1C0E0700
1C0E0700
FF3F9FE0
00000000
00060000
000F0000
00060000
ENDCHAR
STARTCHAR uni1E44
ENCODING 7748
SWIDTH 815 0
DWIDTH 28 0
BBX 26 29 1 0
BITMAP
00180000
003C0000
00180000
00000000
FF00FFC0
1F003F00
0F800C00
0FC00C00
0FC00C00
0DE00C00
0DF00C00
0CF80C00
0C780C00
0C7C0C00
0C3E0C00
0C1E0C00
0C1F0C00
0C0F8C00
0C078C00
0C07CC00
0C03CC00
0C01EC00
0C00EC00
0C00FC00
0C007C00
0C003C00
0C003C00
3F001C00
FFC00C00
ENDCHAR
STARTCHAR uni1E45
ENCODING 7749
SWIDTH 611 0
DWIDTH 19 0
BBX 19 20 0 0
BITMAP
00C000
01E000
00C000
000000
1C7800
FDFE00
1F8E00
1E0700
1E0700
1C0700
1C0700
1C0700
1C0700
1C0700
1C0700
1C0700
1C0700
1C0700
1C0700
FF1FE0
ENDCHAR
STARTCHAR uni1E46
ENCODING 7750
SWIDTH 815 0
DWIDTH 28 0
BBX 26 29 1 -4
BITMAP
FF00FFC0
1F003F00
0F800C00
0FC00C00
0FC00C00
0DE00C00
0DF00C00
0CF80C00
0C780C00
0C7C0C00
0C3E0C00
0C1E0C00
0C1F0C00
0C0F8C00
0C078C00
0C07CC00
0C03CC00
0C01EC00
0C00EC00
0C00FC00
0C007C00
0C003C00
0C003C00
3F001C00
FFC00C00
00000000
000C0000
001E0000
000C0000
ENDCHAR
STARTCHAR uni1E47
ENCODING 7751
SWIDTH 611 0
DWIDTH 19 0
BBX 19 20 0 -4
BITMAP
1C7800
FDFE00
1F8E00
1E0700
1E0700
1C0700
1C0700
1C0700
1C0700
1C0700
1C0700
1C0700
1C0700
1C0700
1C0700
FF1FE0
000000
006000
00F000
006000
ENDCHAR
STARTCHAR uni1E48
ENCODING 7752
SWIDTH 815 0
DWIDTH 28 0
BBX 26 28 1 -3
BITMAP
FF00FFC0
1F003F00
0F800C00
0FC00C00
0FC00C00
0DE00C00
0DF00C00
0CF80C00
0C780C00
0C7C0C00
0C3E0C00
0C1E0C00
0C1F0C00
0C0F8C00
0C078C00
0C07CC00
0C03CC00
0C01EC00
0C00EC00
0C00FC00
0C007C00
0C003C00
0C003C00
3F001C00
FFC00C00
00000000
00FFC000
00FFC000
ENDCHAR
STARTCHAR uni1E49
ENCODING 7753
SWIDTH 611 0
DWIDTH 19 0
BBX 19 19 0 -3
BITMAP
1C7800
FDFE00
1F8E00
1E0700
1E0700
1C0700
1C0700
1C0700
1C0700
1C0700
1C0700
1C0700
1C0700
1C0700
1C0700
FF1FE0
000000
07FE00
07FE00
ENDCHAR
STARTCHAR uni1E4A
ENCODING 7754
SWIDTH 815 0
DWIDTH 28 0
BBX 26 31 1 -6
BITMAP
FF00FFC0
1F003F00
0F800C00
0FC00C00
0FC00C00
0DE00C00
0DF00C00
0CF80C00
0C780C00
0C7C0C00
0C3E0C00
0C1E0C00
0C1F0C00
0C0F8C00
0C078C00
0C07CC00
0C03CC00
0C01EC00
0C00EC00
0C00FC00
0C007C00
0C003C00
0C003C00
3F001C00
FFC00C00
00000000
000C0000
001E0000
003F0000
00618000
00C0C000
ENDCHAR
STARTCHAR uni1E4B
ENCODING 7755
SWIDTH 611 0
DWIDTH 19 0
BBX 19 22 0 -6
BITMAP
1C7800
FDFE00
1F8E00
1E0700
1E0700
1C0700
1C0700
1C0700
1C0700
1C0700
1C0700
1C0700
1C0700
1C0700
1C0700
FF1FE0
000000
006000
00F000
01F800
030C00
060600
ENDCHAR
STARTCHAR uni1E4C
ENCODING 7756
SWIDTH 778 0
DWIDTH 24 0
BBX 22 37 1 0
BITMAP
000300
000700
000E00
001C00
003000
006000
000000
00F180
01FF00
031E00
000000
000000
01FE00
07FF80
0F03C0
1C00E0
3C00F0
380070
780078
780078
F0003C
F0003C
F0003C
F0003C
F0003C
F0003C
F0003C
F0003C
F00038
780078
780078
380070
3C00F0
1C00E0
0F03C0
07FF80
01FE00
ENDCHAR
STARTCHAR uni1E4D
ENCODING 7757
SWIDTH 500 0
DWIDTH 16 0
BBX 14 28 1 0
BITMAP
0030
0070
00E0
01C0
0300
0600
0000
0F18
1FF0
31E0
0000
0000
0780
1FE0
3870
7038
7038
E01C
E01C
E01C
E01C
E01C
E01C
7038
7038
3870
1FE0
0780
ENDCHAR
STARTCHAR uni1E4E
ENCODING 7758
SWIDTH 778 0
DWIDTH 24 0
BBX 22 34 1 0
BITMAP
00C600
01EF00
00C600
000000
00F180
01FF00
031E00
000000
000000
01FE00
07FF80
0F03C0
1C00E0
3C00F0
380070
780078
780078
F0003C
F0003C
F0003C
F0003C
F0003C
F0003C
F0003C
F0003C
F00038
780078
780078
380070
3C00F0
1C00E0
0F03C0
07FF80
01FE00
ENDCHAR
STARTCHAR uni1E4F
ENCODING 7759
SWIDTH 500 0
DWIDTH 16 0
BBX 14 25 1 0
BITMAP
0C60
1EF0
0C60
0000
0F18
1FF0
31E0
0000
0000
0780
1FE0
3870
7038
7038
E01C
E01C
E01C
E01C
E01C
E01C
7038
7038
3870
1FE0
0780
ENDCHAR
STARTCHAR uni1E50
ENCODING 7760
SWIDTH 778 0
DWIDTH 24 0
BBX 22 35 1 0
BITMAP
030000
038000
01C000
00E000
003000
001800
000000
03FF00
03FF00
000000
01FE00
07FF80
0F03C0
1C00E0
3C00F0
380070
780078
700038
F0003C
F0003C
E0001C
E0001C
E0001C
E0001C
E0001C
F0003C
F00038
700038
780078
380070
3C00F0
1C00E0
0F03C0
07FF80
01FE00
ENDCHAR
STARTCHAR uni1E51
ENCODING 7761
SWIDTH 500 0
DWIDTH 16 0
BBX 14 26 1 0
BITMAP
3000
3800
1C00
0E00
0300
0180
0000
3FF0
3FF0
0000
0780
1FE0
3870
7038
7038
E01C
E01C
E01C
E01C
E01C
E01C
7038
7038
3870
1FE0
0780
ENDCHAR
STARTCHAR uni1E52
ENCODING 7762
SWIDTH 778 0
DWIDTH 24 0
BBX 22 35 1 0
BITMAP
000300
000700
000E00
001C00
003000
006000
000000
03FF00
03FF00
000000
01FE00
07FF80
0F03C0
1C00E0
3C00F0
380070
780078
700038
F0003C
F0003C
E0001C
E0001C
E0001C
E0001C
E0001C
F0003C
F00038
700038
780078
380070
3C00F0
1C00E0
0F03C0
07FF80
01FE00
ENDCHAR
STARTCHAR uni1E53
ENCODING 7763
SWIDTH 500 0
DWIDTH 16 0
BBX 14 26 1 0
BITMAP
0030
0070
00E0
01C0
0300
0600
0000
3FF0
3FF0
0000
0780
1FE0
3870
7038
7038
E01C
E01C
E01C
E01C
E01C
E01C
7038
7038
3870
1FE0
0780
ENDCHAR
STARTCHAR uni1E54
ENCODING 7764
SWIDTH 667 0
DWIDTH 22 0
BBX 20 32 1 0
BITMAP
000600
000E00
001C00
003800
006000
00C000
000000
FFFE00
3FFF80
0E07C0
0E01E0
0E00F0
0E00F0
0E0070
0E0070
0E00F0
0E00F0
0E01E0
0E07C0
0FFF80
0FFE00
0E0000
0E0000
0E0000
0E0000
0E0000
0E0000
0E0000
0E0000
0E0000
3F8000
FFE000
ENDCHAR
STARTCHAR uni1E55
ENCODING 7765
SWIDTH 574 0
DWIDTH 19 0
BBX 16 30 1 -7
BITMAP
0018
0038
0070
00E0
0180
0300
0000
19F0
FBFC
3E1E
3C0E
3C07
3807
3807
3807
3807
3807
3807
3C0E
3C0E
3E1C
3BFC
39F0
3800
3800
3800
3800
3800
7C00
FF00
ENDCHAR
STARTCHAR uni1E56
ENCODING 7766
SWIDTH 667 0
DWIDTH 22 0
BBX 20 29 1 0
BITMAP
006000
00F000
006000
000000
FFFE00
3FFF80
0E07C0
0E01E0
0E00F0
0E00F0
0E0070
0E0070
0E00F0
0E00F0
0E01E0
0E07C0
0FFF80
0FFE00
0E0000
0E0000
0E0000
0E0000
0E0000
0E0000
0E0000
0E0000
0E0000
3F8000
FFE000
ENDCHAR
STARTCHAR uni1E57
ENCODING 7767
SWIDTH 574 0
DWIDTH 19 0
BBX 16 27 1 -7
BITMAP
0180
03C0
0180
0000
19F0
FBFC
3E1E
3C0E
3C07
3807
3807
3807
3807
3807
3807
3C0E
3C0E
3E1C
3BFC
39F0
3800
3800
3800
3800
3800
7C00
FF00
ENDCHAR
STARTCHAR uni1E58
ENCODING 7768
SWIDTH 722 0
DWIDTH 23 0
BBX 21 29 1 0
BITMAP
006000
00F000
006000
000000
FFFE00
3FFF80
0E07C0
0E01C0
0E01E0
0E00E0
0E00E0
0E01E0
0E01E0
0E01C0
0E03C0
0E0F00
0FFC00
0FFE00
0E0F00
0E0700
0E0780
0E0380
0E0380
0E0388
0E0388
0E0388
0E03D8
3F81F0
FFE1E0
ENDCHAR
STARTCHAR uni1E59
ENCODING 7769
SWIDTH 444 0
DWIDTH 15 0
BBX 14 20 0 0
BITMAP
0180
03C0
0180
0000
1C78
FDFC
1F3C
1E3C
1E18
1C00
1C00
1C00
1C00
1C00
1C00
1C00
1C00
1C00
1C00
FF80
ENDCHAR
STARTCHAR uni1E5A
ENCODING 7770
SWIDTH 722 0
DWIDTH 23 0
BBX 21 29 1 -4
BITMAP
FFFE00
3FFF80
0E07C0
0E01C0
0E01E0
0E00E0
0E00E0
0E01E0
0E01E0
0E01C0
0E03C0
0E0F00
0FFC00
0FFE00
0E0F00
0E0700
0E0780
0E0380
0E0380
0E0388
0E0388
0E0388
0E03D8
3F81F0
FFE1E0
000000
003000
007800
003000
ENDCHAR
STARTCHAR uni1E5B
ENCODING 7771
SWIDTH 444 0
DWIDTH 15 0
BBX 14 20 0 -4
BITMAP
1C78
FDFC
1F3C
1E3C
1E18
1C00
1C00
1C00
1C00
1C00
1C00
1C00
1C00
1C00
1C00
FF80
0000
0C00
1E00
0C00
ENDCHAR
STARTCHAR uni1E5C
ENCODING 7772
SWIDTH 722 0
DWIDTH 23 0
BBX 21 32 1 -4
BITMAP
07FE00
07FE00
000000
FFFE00
3FFF80
0E07C0
0E01C0
0E01E0
0E00E0
0E00E0
0E01E0
0E01E0
0E01C0
0E03C0
0E0F00
0FFC00
0FFE00
0E0F00
0E0700
0E0780
0E0380
0E0380
0E0388
0E0388
0E0388
0E03D8
3F81F0
FFE1E0
000000
003000
007800
003000
ENDCHAR
STARTCHAR uni1E5D
ENCODING 7773
SWIDTH 444 0
DWIDTH 15 0
BBX 14 23 0 -4
BITMAP
3FF0
3FF0
0000
1C78
FDFC
1F3C
1E3C
1E18
1C00
1C00
1C00
1C00
1C00
1C00
1C00
1C00
1C00
1C00
FF80
0000
0C00
1E00
0C00
ENDCHAR
STARTCHAR uni1E5E
ENCODING 7774
SWIDTH 722 0
DWIDTH 23 0
BBX 21 28 1 -3
BITMAP
FFFE00
3FFF80
0E07C0
0E01C0
0E01E0
0E00E0
0E00E0
0E01E0
0E01E0
0E01C0
0E03C0
0E0F00
0FFC00
0FFE00
0E0F00
0E0700
0E0780
0E0380
0E0380
0E0388
0E0388
0E0388
0E03D8
3F81F0
FFE1E0
000000
03FF00
03FF00
ENDCHAR
STARTCHAR uni1E5F
ENCODING 7775
SWIDTH 444 0
DWIDTH 15 0
BBX 14 19 0 -3
BITMAP
1C78
FDFC
1F3C
1E3C
1E18
1C00
1C00
1C00
1C00
1C00
1C00
1C00
1C00
1C00
1C00
FF80
0000
FFC0
FFC0
ENDCHAR
STARTCHAR uni1E60
ENCODING 7776
SWIDTH 630 0
DWIDTH 20 0
BBX 17 29 2 0
BITMAP
018000
03C000
018000
000000
0FF100
3FFB00
701F00
600700
E00700
E00300
E00100
F00100
F00000
7E0000
7FE000
1FFC00
07FE00
007F00
000F80
800780
800380
C00380
C00380
C00380
E00780
F00700
F80E00
DFFC00
87F000
ENDCHAR
STARTCHAR uni1E61
ENCODING 7777
SWIDTH 463 0
DWIDTH 15 0
BBX 11 20 2 0
BITMAP
0C00
1E00
0C00
0000
1EC0
7FC0
E1C0
C0C0
C0C0
F040
FE00
7F80
3FC0
07E0
80E0
C060
C060
E0E0
FFC0
9F00
ENDCHAR
STARTCHAR uni1E62
ENCODING 7778
SWIDTH 630 0
DWIDTH 20 0
BBX 17 29 2 -4
BITMAP
0FF100
3FFB00
701F00
600700
E00700
E00300
E00100
F00100
F00000
7E0000
7FE000
1FFC00
07FE00
007F00
000F80
800780
800380
C00380
C00380
C00380
E00780
F00700
F80E00
DFFC00
87F000
000000
018000
03C000
018000
ENDCHAR
STARTCHAR uni1E63
ENCODING 7779
SWIDTH 463 0
DWIDTH 15 0
BBX 11 20 2 -4
BITMAP
1EC0
7FC0
E1C0
C0C0
C0C0
F040
FE00
7F80
3FC0
07E0
80E0
C060
C060
E0E0
FFC0
9F00
0000
0C00
1E00
0C00
ENDCHAR
STARTCHAR uni1E64
ENCODING 7780
SWIDTH 630 0
DWIDTH 20 0
BBX 17 36 2 0
BITMAP
00C000
01E000
00C000
000000
001800
003800
007000
00E000
018000
030000
000000
0FF100
3FFB00
701F00
600700
E00700
E00300
E00100
F00100
F00000
7E0000
7FE000
1FFC00
07FE00
007F00
000F80
800780
800380
C00380
C00380
C00380
E00780
F00700
F80E00
DFFC00
87F000
ENDCHAR
STARTCHAR uni1E65
ENCODING 7781
SWIDTH 463 0
DWIDTH 15 0
BBX 11 27 2 0
BITMAP
0600
0F00
0600
0000
00C0
01C0
0380
0700
0C00
1800
0000
1EC0
7FC0
E1C0
C0C0
C0C0
F040
FE00
7F80
3FC0
07E0
80E0
C060
C060
E0E0
FFC0
9F00
ENDCHAR
STARTCHAR uni1E66
ENCODING 7782
SWIDTH 630 0
DWIDTH 20 0
BBX 18 30 1 0
BITMAP
00C000
01E000
00C000
000000
0C0C00
061800
03F000
01E000
00C000
000000
07F880
1E0F80
380380
300180
700180
700080
780080
7E0000
3FE000
1FFC00
0FFF00
01FF80
001FC0
8003C0
8001C0
C001C0
C001C0
E00380
F80F00
8FFC00
ENDCHAR
STARTCHAR uni1E67
ENCODING 7783
SWIDTH 463 0
DWIDTH 15 0
BBX 11 26 2 0
BITMAP
0C00
1E00
0C00
0000
C0C0
6180
3F00
1E00
0C00
0000
3EC0
73C0
C1C0
C0C0
C0C0
F040
FE00
7F80
3FC0
07E0
80E0
C060
C060
E060
F9C0
9F80
ENDCHAR
STARTCHAR uni1E68
ENCODING 7784
SWIDTH 630 0
DWIDTH 20 0
BBX 17 33 2 -4
BITMAP
018000
03C000
018000
000000
0FF100
3FFB00
701F00
600700
E00700
E00300
E00100
F00100
F00000
7E0000
7FE000
1FFC00
07FE00
007F00
000F80
800780
800380
C00380
C00380
C00380
E00780
F00700
F80E00
DFFC00
87F000
000000
018000
03C000
018000
ENDCHAR
STARTCHAR uni1E69
ENCODING 7785
SWIDTH 463 0
DWIDTH 15 0
BBX 11 24 2 -4
BITMAP
0C00
1E00
0C00
0000
1EC0
7FC0
E1C0
C0C0
C0C0
F040
FE00
7F80
3FC0
07E0
80E0
C060
C060
E0E0
FFC0
9F00
0000
0C00
1E00
0C00
ENDCHAR
STARTCHAR uni1E6A
ENCODING 7786
SWIDTH 667 0
DWIDTH 21 0
BBX 19 29 1 0
BITMAP
006000
00F000
006000
000000
FFFFE0
FFFFE0
F0E3E0
E0E0E0
C0E060
C0E060
80E020
80E020
80E020
00E000
00E000
00E000
00E000
00E000
00E000
00E000
00E000
00E000
00E000
00E000
00E000
00E000
00E000
03F800
0FFE00
ENDCHAR
STARTCHAR uni1E6B
ENCODING 7787
SWIDTH 389 0
DWIDTH 13 0
BBX 12 27 0 0
BITMAP
0C00
1E00
0C00
0000
0400
0400
0C00
0C00
1C00
1C00
3C00
FFE0
1C00
1C00
1C00
1C00
1C00
1C00
1C00
1C00
1C10
1C10
1C30
1C30
1E60
0FE0
07C0
ENDCHAR
STARTCHAR uni1E6C
ENCODING 7788
SWIDTH 667 0
DWIDTH 21 0
BBX 19 29 1 -4
BITMAP
FFFFE0
FFFFE0
F0E3E0
E0E0E0
C0E060
C0E060
80E020
80E020
80E020
00E000
00E000
00E000
00E000
00E000
00E000
00E000
00E000
00E000
00E000
00E000
00E000
00E000
00E000
03F800
0FFE00
000000
006000
00F000
006000
ENDCHAR
STARTCHAR uni1E6D
ENCODING 7789
SWIDTH 389 0
DWIDTH 13 0
BBX 12 27 0 -4
BITMAP
0400
0400
0C00
0C00
1C00
1C00
3C00
FFE0
1C00
1C00
1C00
1C00
1C00
1C00
1C00
1C00
1C10
1C10
1C30
1C30
1E60
0FE0
07C0
0000
0300
0780
0300
ENDCHAR
STARTCHAR uni1E6E
ENCODING 7790
SWIDTH 667 0
DWIDTH 21 0
BBX 19 28 1 -3
BITMAP
FFFFE0
FFFFE0
F0E3E0
E0E0E0
C0E060
C0E060
80E020
80E020
80E020
00E000
00E000
00E000
00E000
00E000
00E000
00E000
00E000
00E000
00E000
00E000
00E000
00E000
00E000
03F800
0FFE00
000000
07FE00
07FE00
ENDCHAR
STARTCHAR uni1E6F
ENCODING 7791
SWIDTH 389 0
DWIDTH 13 0
BBX 12 26 0 -3
BITMAP
0400
0400
0C00
0C00
1C00
1C00
3C00
FFE0
1C00
1C00
1C00
1C00
1C00
1C00
1C00
1C00
1C10
1C10
1C30
1C30
1E60
0FE0
07C0
0000
3FF0
3FF0
ENDCHAR
STARTCHAR uni1E70
ENCODING 7792
SWIDTH 667 0
DWIDTH 21 0
BBX 19 31 1 -6
BITMAP
FFFFE0
FFFFE0
F0E3E0
E0E0E0
C0E060
C0E060
80E020
80E020
80E020
00E000
00E000
00E000
00E000
00E000
00E000
00E000
00E000
00E000
00E000
00E000
00E000
00E000
00E000
03F800
0FFE00
000000
006000
00F000
01F800
030C00
060600
ENDCHAR
STARTCHAR uni1E71
ENCODING 7793
SWIDTH 389 0
DWIDTH 13 0
BBX 12 29 0 -6
BITMAP
0400
0400
0C00
0C00
1C00
1C00
3C00
FFE0
1C00
1C00
1C00
1C00
1C00
1C00
1C00
1C00
1C10
1C10
1C30
1C30
1E60
0FE0
07C0
0000
0300
0780
0FC0
1860
3030
ENDCHAR
STARTCHAR uni1E72
ENCODING 7794
SWIDTH 815 0
DWIDTH 26 0
BBX 26 29 0 -4
BITMAP
FFE0FFC0
3F803F00
0E000C00
0E000C00
0E000C00
0E000C00
0E000C00
0E000C00
0E000C00
0E000C00
0E000C00
0E000C00
0E000C00
0E000C00
0E000C00
0E000C00
0E000C00
0E000C00
0E000C00
0F001800
07001800
07803000
03E0F000
01FFC000
007F0000
00000000
00630000
00F78000
00630000
ENDCHAR
STARTCHAR uni1E73
ENCODING 7795
SWIDTH 611 0
DWIDTH 20 0
BBX 18 20 0 -4
BITMAP
1C0700
FC3F00
1C0700
1C0700
1C0700
1C0700
1C0700
1C0700
1C0700
1C0700
1C0700
1C0F00
1C0F00
1E3F00
0FF7C0
07C700
000000
031800
07BC00
031800
ENDCHAR
STARTCHAR uni1E74
ENCODING 7796
SWIDTH 815 0
DWIDTH 26 0
BBX 26 29 0 -4
BITMAP
FFE0FFC0
3F803F00
0E000C00
0E000C00
0E000C00
0E000C00
0E000C00
0E000C00
0E000C00
0E000C00
0E000C00
0E000C00
0E000C00
0E000C00
0E000C00
0E000C00
0E000C00
0E000C00
0E000C00
0F001800
07001800
07803000
03E0F000
01FFC000
007F0000
00000000
00F18000
01FF0000
031E0000
ENDCHAR
STARTCHAR uni1E75
ENCODING 7797
SWIDTH 611 0
DWIDTH 20 0
BBX 18 20 0 -4
BITMAP
1C0700
FC3F00
1C0700
1C0700
1C0700
1C0700
1C0700
1C0700
1C0700
1C0700
1C0700
1C0F00
1C0F00
1E3F00
0FF7C0
07C700
000000
03C600
07FC00
0C7800
ENDCHAR
STARTCHAR uni1E76
ENCODING 7798
SWIDTH 815 0
DWIDTH 26 0
BBX 26 31 0 -6
BITMAP
FFE0FFC0
3F803F00
0E000C00
0E000C00
0E000C00
0E000C00
0E000C00
0E000C00
0E000C00
0E000C00
0E000C00
0E000C00
0E000C00
0E000C00
0E000C00
0E000C00
0E000C00
0E000C00
0E000C00
0F001800
07001800
07803000
03E0F000
01FFC000
007F0000
00000000
00180000
003C0000
007E0000
00C30000
01818000
ENDCHAR
STARTCHAR uni1E77
ENCODING 7799
SWIDTH 611 0
DWIDTH 20 0
BBX 18 22 0 -6
BITMAP
1C0700
FC3F00
1C0700
1C0700
1C0700
1C0700
1C0700
1C0700
1C0700
1C0700
1C0700
1C0F00
1C0F00
1E3F00
0FF7C0
07C700
000000
006000
00F000
01F800
030C00
060600
ENDCHAR
STARTCHAR uni1E78
ENCODING 7800
SWIDTH 815 0
DWIDTH 26 0
BBX 26 36 0 0
BITMAP
0000C000
0001C000
00038000
00070000
000C0000
00180000
00000000
0078C000
00FF8000
018F0000
00000000
FFE0FFC0
3F803F00
0E000C00
0E000C00
0E000C00
0E000C00
0E000C00
0E000C00
0E000C00
0E000C00
0E000C00
0E000C00
0E000C00
0E000C00
0E000C00
0E000C00
0E000C00
0E000C00
0E000C00
0F001800
07001800
07803000
03E0F000
01FFC000
007F0000
ENDCHAR
STARTCHAR uni1E79
ENCODING 7801
SWIDTH 611 0
DWIDTH 20 0
BBX 18 27 0 0
BITMAP
000C00
001C00
003800
007000
00C000
018000
000000
03C600
07FC00
0C7800
000000
1C0700
FC3F00
1C0700
1C0700
1C0700
1C0700
1C0700
1C0700
1C0700
1C0700
1C0700
1C0F00
1C0F00
1E3F00
0FF7C0
07C700
ENDCHAR
STARTCHAR uni1E7A
ENCODING 7802
SWIDTH 815 0
DWIDTH 26 0
BBX 26 32 0 0
BITMAP
00630000
00F78000
00630000
00000000
00FFC000
00FFC000
00000000
FFE0FFC0
3F803F00
0E000C00
0E000C00
0E000C00
0E000C00
0E000C00
0E000C00
0E000C00
0E000C00
0E000C00
0E000C00
0E000C00
0E000C00
0E000C00
0E000C00
0E000C00
0E000C00
0E000C00
0F001800
07001800
07803000
03E0F000
01FFC000
007F0000
ENDCHAR
STARTCHAR uni1E7B
ENCODING 7803
SWIDTH 611 0
DWIDTH 20 0
BBX 18 23 0 0
BITMAP
063000
0F7800
063000
000000
0FFC00
0FFC00
000000
1C0700
FC3F00
1C0700
1C0700
1C0700
1C0700
1C0700
1C0700
1C0700
1C0700
1C0700
1C0F00
1C0F00
1E3F00
0FF7C0
07C700
ENDCHAR
STARTCHAR uni1E7C
ENCODING 7804
SWIDTH 722 0
DWIDTH 23 0
BBX 23 29 0 0
BITMAP
00F180
01FF00
031E00
000000
FFC3FE
3E00F8
1E0070
1E0070
0E0060
0F0060
0F0040
0700C0
0780C0
078080
038180
03C180
03C100
01C300
01E300
01E200
00E600
00F600
00F400
007C00
007C00
003800
003800
003800
001000
ENDCHAR
STARTCHAR uni1E7D
ENCODING 7805
SWIDTH 537 0
DWIDTH 17 0
BBX 17 20 0 0
BITMAP
078C00
0FF800
18F000
000000
FF1F80
7C0700
3C0600
1E0600
1E0C00
0E0C00
0F0800
071800
071800
07B000
03B000
03E000
01E000
01E000
00C000
00C000
ENDCHAR
STARTCHAR uni1E7E
ENCODING 7806
SWIDTH 722 0
DWIDTH 23 0
BBX 23 29 0 -4
BITMAP
FFC3FE
3E00F8
1E0070
1E0070
0E0060
0F0060
0F0040
0700C0
0780C0
078080
038180
03C180
03C100
01C300
01E300
01E200
00E600
00F600
00F400
007C00
007C00
003800
003800
003800
001000
000000
003000
007800
003000
ENDCHAR
STARTCHAR uni1E7F
ENCODING 7807
SWIDTH 537 0
DWIDTH 17 0
BBX 17 20 0 -4
BITMAP
FF1F80
7C0700
3C0600
1E0600
1E0C00
0E0C00
0F0800
071800
071800
07B000
03B000
03E000
01E000
01E000
00C000
00C000
000000
00C000
01E000
00C000
ENDCHAR
STARTCHAR Wgrave
ENCODING 7808
SWIDTH 981 0
DWIDTH 31 0
BBX 31 32 0 0
BITMAP
00300000
00380000
001C0000
000E0000
00030000
00018000
00000000
FF1FF1FE
7E07C07C
3C038038
1C038030
1E03C030
1E03C060
0E03C060
0E03E060
0F03E060
0706E0C0
0706E0C0
0784F0C0
078C70C0
038C7180
038C7980
03C83980
01D83900
01F83F00
01F81F00
00F01F00
00F01E00
00F01E00
00E00E00
00600C00
00600C00
ENDCHAR
STARTCHAR wgrave
ENCODING 7809
SWIDTH 778 0
DWIDTH 24 0
BBX 24 23 0 0
BITMAP
018000
01C000
00E000
007000
001800
000C00
000000
FE7F3F
783C0E
381C0C
3C1C1C
1C1E18
1C1E18
0E3610
0E2730
0F6730
076760
074360
03C3C0
03C3C0
0381C0
018180
018180
ENDCHAR
STARTCHAR Wacute
ENCODING 7810
SWIDTH 981 0
DWIDTH 31 0
BBX 31 32 0 0
BITMAP
00003000
00007000
0000E000
0001C000
00030000
00060000
00000000
FF1FF1FE
7E07C07C
3C038038
1C038030
1E03C030
1E03C060
0E03C060
0E03E060
0F03E060
0706E0C0
0706E0C0
0784F0C0
078C70C0
038C7180
038C7980
03C83980
01D83900
01F83F00
01F81F00
00F01F00
00F01E00
00F01E00
00E00E00
00600C00
00600C00
ENDCHAR
STARTCHAR wacute
ENCODING 7811
SWIDTH 778 0
DWIDTH 24 0
BBX 24 23 0 0
BITMAP
000180
000380
000700
000E00
001800
003000
000000
FE7F3F
783C0E
381C0C
3C1C1C
1C1E18
1C1E18
0E3610
0E2730
0F6730
076760
074360
03C3C0
03C3C0
0381C0
018180
018180
ENDCHAR
STARTCHAR Wdieresis
ENCODING 7812
SWIDTH 981 0
DWIDTH 31 0
BBX 31 29 0 0
BITMAP
0018C000
003DE000
0018C000
00000000
FF1FF1FE
7E07C07C
3C038038
1C038030
1E03C030
1E03C060
0E03C060
0E03E060
0F03E060
0706E0C0
0706E0C0
0784F0C0
078C70C0
038C7180
038C7980
03C83980
01D83900
01F83F00
01F81F00
00F01F00
00F01E00
00F01E00
00E00E00
00600C00
00600C00
ENDCHAR
STARTCHAR wdieresis
ENCODING 7813
SWIDTH 778 0
DWIDTH 24 0
BBX 24 20 0 0
BITMAP
00C600
01EF00
00C600
000000
FE7F3F
783C0E
381C0C
3C1C1C
1C1E18
1C1E18
0E3610
0E2730
0F6730
076760
074360
03C3C0
03C3C0
0381C0
018180
018180
ENDCHAR
STARTCHAR uni1E86
ENCODING 7814
SWIDTH 981 0
DWIDTH 31 0
BBX 31 29 0 0
BITMAP
00030000
00078000
00030000
00000000
FF1FF1FE
7E07C07C
3C038038
1C038030
1E03C030
1E03C060
0E03C060
0E03E060
0F03E060
0706E0C0
0706E0C0
0784F0C0
078C70C0
038C7180
038C7980
03C83980
01D83900
01F83F00
01F81F00
00F01F00
00F01E00
00F01E00
00E00E00
00600C00
00600C00
ENDCHAR
STARTCHAR uni1E87
ENCODING 7815
SWIDTH 778 0
DWIDTH 24 0
BBX 24 20 0 0
BITMAP
001800
003C00
001800
000000
FE7F3F
783C0E
381C0C
3C1C1C
1C1E18
1C1E18
0E3610
0E2730
0F6730
076760
074360
03C3C0
03C3C0
0381C0
018180
018180
ENDCHAR
STARTCHAR uni1E88
ENCODING 7816
SWIDTH 981 0
DWIDTH 31 0
BBX 31 29 0 -4
BITMAP
FF1FF1FE
7E07C07C
3C038038
1C038030
1E03C030
1E03C060
0E03C060
0E03E060
0F03E060
0706E0C0
0706E0C0
0784F0C0
078C70C0
038C7180
038C7980
03C83980
01D83900
01F83F00
01F81F00
00F01F00
00F01E00
00F01E00
00E00E00
00600C00
00600C00
00000000
00018000
0003C000
00018000
ENDCHAR
STARTCHAR uni1E89
ENCODING 7817
SWIDTH 778 0
DWIDTH 24 0
BBX 24 20 0 -4
BITMAP
FE7F3F
783C0E
381C0C
3C1C1C
1C1E18
1C1E18
0E3610
0E2730
0F6730
076760
074360
03C3C0
03C3C0
0381C0
018180
018180
000000
001800
003C00
001800
ENDCHAR
STARTCHAR uni1E8A
ENCODING 7818
SWIDTH 704 0
DWIDTH 22 0
BBX 23 29 0 0
BITMAP
003000
007800
003000
000000
FFC7FC
3F01F0
1F00E0
0F01C0
0F8180
078380
03C300
03E600
01EE00
00FC00
00F800
007800
007C00
007C00
00FE00
01DF00
018F00
038780
030780
0603C0
0E03E0
0C01E0
1C00F0
3E00F8
FF87FE
ENDCHAR
STARTCHAR uni1E8B
ENCODING 7819
SWIDTH 537 0
DWIDTH 19 0
BBX 16 20 1 0
BITMAP
0180
03C0
0180
0000
FF7F
3C1C
1E18
0E30
0F30
0760
03C0
03C0
01E0
03E0
0670
0C78
1C38
383C
781E
FE7F
ENDCHAR
STARTCHAR uni1E8C
ENCODING 7820
SWIDTH 704 0
DWIDTH 22 0
BBX 23 29 0 0
BITMAP
018C00
03DE00
018C00
000000
FFC7FC
3F01F0
1F00E0
0F01C0
0F8180
078380
03C300
03E600
01EE00
00FC00
00F800
007800
007C00
007C00
00FE00
01DF00
018F00
038780
030780
0603C0
0E03E0
0C01E0
1C00F0
3E00F8
FF87FE
ENDCHAR
STARTCHAR uni1E8D
ENCODING 7821
SWIDTH 537 0
DWIDTH 19 0
BBX 16 20 1 0
BITMAP
0C60
1EF0
0C60
0000
FF7F
3C1C
1E18
0E30
0F30
0760
03C0
03C0
01E0
03E0
0670
0C78
1C38
383C
781E
FE7F
ENDCHAR
STARTCHAR uni1E8E
ENCODING 7822
SWIDTH 704 0
DWIDTH 23 0
BBX 23 29 0 0
BITMAP
003000
007800
003000
000000
FF83FE
7E00F8
3E0070
1E0060
0F00E0
0F00C0
078180
07C180
03C300
03E300
01E600
00F600
00FC00
007C00
007800
003800
003800
003800
003800
003800
003800
003800
003800
00FE00
03FF80
ENDCHAR
STARTCHAR uni1E8F
ENCODING 7823
SWIDTH 537 0
DWIDTH 20 0
BBX 18 27 1 -7
BITMAP
00C000
01E000
00C000
000000
FF1FC0
3C0700
3C0600
1C0600
1E0C00
0E0C00
0F0800
071800
071800
07B000
03B000
03E000
01E000
01E000
00C000
00C000
018000
018000
630000
F30000
E60000
FC0000
700000
ENDCHAR
STARTCHAR uni1E90
ENCODING 7824
SWIDTH 611 0
DWIDTH 19 0
BBX 17 31 1 0
BITMAP
00C000
01E000
03F000
061800
0C0C00
000000
7FFF80
7FFF80
780F00
700F00
601E00
603E00
603C00
407C00
407800
00F000
00F000
01E000
03E000
03C000
078000
078080
0F0080
1F0080
1E0180
3E0180
3C0180
780380
780780
FFFF80
FFFF80
ENDCHAR
STARTCHAR uni1E91
ENCODING 7825
SWIDTH 481 0
DWIDTH 15 0
BBX 13 22 1 0
BITMAP
0300
0780
0FC0
1860
3030
0000
7FF8
7878
60F0
60E0
41E0
43C0
0380
0780
0F00
0E00
1E08
3C08
3818
7838
F0F8
FFF8
ENDCHAR
STARTCHAR uni1E92
ENCODING 7826
SWIDTH 611 0
DWIDTH 19 0
BBX 17 29 1 -4
BITMAP
7FFF80
7FFF80
780F00
700F00
601E00
603E00
603C00
407C00
407800
00F000
00F000
01E000
03E000
03C000
078000
078080
0F0080
1F0080
1E0180
3E0180
3C0180
780380
780780
FFFF80
FFFF80
000000
018000
03C000
018000
ENDCHAR
STARTCHAR uni1E93
ENCODING 7827
SWIDTH 481 0
DWIDTH 15 0
BBX 13 20 1 -4
BITMAP
7FF8
7878
60F0
60E0
41E0
43C0
0380
0780
0F00
0E00
1E08
3C08
3818
7838
F0F8
FFF8
0000
0300
0780
0300
ENDCHAR
STARTCHAR uni1E94
ENCODING 7828
SWIDTH 611 0
DWIDTH 19 0
BBX 17 28 1 -3
BITMAP
7FFF80
7FFF80
780F00
700F00
601E00
603E00
603C00
407C00
407800
00F000
00F000
01E000
03E000
03C000
078000
078080
0F0080
1F0080
1E0180
3E0180
3C0180
780380
780780
FFFF80
FFFF80
000000
1FF800
1FF800
ENDCHAR
STARTCHAR uni1E95
ENCODING 7829
SWIDTH 481 0
DWIDTH 15 0
BBX 13 19 1 -3
BITMAP
7FF8
7878
60F0
60E0
41E0
43C0
0380
0780
0F00
0E00
1E08
3C08
3818
7838
F0F8
FFF8
0000
3FF0
3FF0
ENDCHAR
STARTCHAR uni1E96
ENCODING 7830
SWIDTH 611 0
DWIDTH 20 0
BBX 19 28 0 -3
BITMAP
0C0000
FC0000
1C0000
1C0000
1C0000
1C0000
1C0000
1C0000
1C0000
1C7000
1DFC00
1F1E00
1E0E00
1C0700
1C0700
1C0700
1C0700
1C0700
1C0700
1C0700
1C0700
1C0700
1C0700
1C0700
FF3FE0
000000
07FE00
07FE00
ENDCHAR
STARTCHAR uni1E97
ENCODING 7831
SWIDTH 389 0
DWIDTH 13 0
BBX 12 27 0 0
BITMAP
3180
7BC0
3180
0000
0400
0400
0C00
0C00
1C00
1C00
3C00
FFE0
1C00
1C00
1C00
1C00
1C00
1C00
1C00
1C00
1C10
1C10
1C30
1C30
1E60
0FE0
07C0
ENDCHAR
STARTCHAR uni1E98
ENCODING 7832
SWIDTH 778 0
DWIDTH 24 0
BBX 24 23 0 0
BITMAP
003C00
006600
004200
004200
006600
003C00
000000
FE7F3F
783C0E
381C0C
3C1C1C
1C1E18
1C1E18
0E3610
0E2730
0F6730
076760
074360
03C3C0
03C3C0
0381C0
018180
018180
ENDCHAR
STARTCHAR uni1E99
ENCODING 7833
SWIDTH 537 0
DWIDTH 20 0
BBX 18 30 1 -7
BITMAP
01E000
033000
021000
021000
033000
01E000
000000
FF1FC0
3C0700
3C0600
1C0600
1E0C00
0E0C00
0F0800
071800
071800
07B000
03B000
03E000
01E000
01E000
00C000
00C000
018000
018000
630000
F30000
E60000
FC0000
700000
ENDCHAR
STARTCHAR uni1EA0
ENCODING 7840
SWIDTH 722 0
DWIDTH 23 0
BBX 23 29 0 -4
BITMAP
001000
003800
003800
007800
007C00
007C00
00DC00
00DE00
019E00
018E00
018F00
030700
030780
030780
060380
07FFC0
07FFC0
0C01C0
0C01E0
0C01E0
1800F0
1800F0
3800F8
7C01FC
FE03FE
000000
001800
003C00
001800
ENDCHAR
STARTCHAR uni1EA1
ENCODING 7841
SWIDTH 556 0
DWIDTH 17 0
BBX 16 20 1 -4
BITMAP
0FC0
3FF0
7878
7038
6038
0038
01F8
0FF8
3C38
7038
E038
E038
E078
F1FD
7F9F
3E0E
0000
0180
03C0
0180
ENDCHAR
STARTCHAR uni1EA4
ENCODING 7844
SWIDTH 722 0
DWIDTH 23 0
BBX 23 38 0 0
BITMAP
000180
000380
000700
000E00
001800
003000
000000
001800
003C00
007E00
00C300
018180
000000
001000
003800
003800
007800
007C00
007C00
00DC00
00DE00
019E00
018E00
018F00
030700
030780
030780
060380
07FFC0
07FFC0
0C01C0
0C01E0
0C01E0
1800F0
1800F0
3800F8
7C01FC
FE03FE
ENDCHAR
STARTCHAR uni1EA5
ENCODING 7845
SWIDTH 556 0
DWIDTH 17 0
BBX 16 29 1 0
BITMAP
0030
0070
00E0
01C0
0300
0600
0000
0300
0780
0FC0
1860
3030
0000
07C0
1FF0
7878
7038
7038
7038
01F8
0FF8
3C38
7038
E038
E038
E078
F0FD
7F9F
3E0E
ENDCHAR
STARTCHAR uni1EA6
ENCODING 7846
SWIDTH 722 0
DWIDTH 23 0
BBX 23 38 0 0
BITMAP
018000
01C000
00E000
007000
001800
000C00
000000
001800
003C00
007E00
00C300
018180
000000
001000
003800
003800
007800
007C00
007C00
00DC00
00DE00
019E00
018E00
018F00
030700
030780
030780
060380
07FFC0
07FFC0
0C01C0
0C01E0
0C01E0
1800F0
1800F0
3800F8
7C01FC
FE03FE
ENDCHAR
STARTCHAR uni1EA7
ENCODING 7847
SWIDTH 556 0
DWIDTH 17 0
BBX 16 29 1 0
BITMAP
1800
1C00
0E00
0700
0180
00C0
0000
0300
0780
0FC0
1860
3030
0000
07C0
1FF0
7878
7038
7038
7038
01F8
0FF8
3C38
7038
E038
E038
E078
F0FD
7F9F
3E0E
ENDCHAR
STARTCHAR uni1EAA
ENCODING 7850
SWIDTH 722 0
DWIDTH 23 0
BBX 23 35 0 0
BITMAP
0078C0
00FF80
018F00
000000
001800
003C00
007E00
00C300
018180
000000
001000
003800
003800
007800
007C00
007C00
00DC00
00DE00
019E00
018E00
018F00
030700
030780
030780
060380
07FFC0
07FFC0
0C01C0
0C01E0
0C01E0
1800F0
1800F0
3800F8
7C01FC
FE03FE
ENDCHAR
STARTCHAR uni1EAB
ENCODING 7851
SWIDTH 556 0
DWIDTH 17 0
BBX 16 26 1 0
BITMAP
0F18
1FF0
31E0
0000
0300
0780
0FC0
1860
3030
0000
07C0
1FF0
7878
7038
7038
7038
01F8
0FF8
3C38
7038
E038
E038
E078
F0FD
7F9F
3E0E
ENDCHAR
STARTCHAR uni1EAC
ENCODING 7852
SWIDTH 722 0
DWIDTH 23 0
BBX 23 35 0 -4
BITMAP
003000
007800
00FC00
018600
030300
000000
001000
003800
003800
007800
007C00
007C00
00DC00
00DE00
019E00
018E00
018F00
030700
030780
030780
060380
07FFC0
07FFC0
0C01C0
0C01E0
0C01E0
1800F0
1800F0
3800F8
7C01FC
FE03FE
000000
001800
003C00
001800
ENDCHAR
STARTCHAR uni1EAD
ENCODING 7853
SWIDTH 556 0
DWIDTH 17 0
BBX 16 26 1 -4
BITMAP
0180
03C0
07E0
0C30
1818
0000
0FC0
3FF0
7878
7038
6038
0038
01F8
0FF8
3C38
7038
E038
E038
E078
F1FD
7F9F
3E0E
0000
0180
03C0
0180
ENDCHAR
STARTCHAR uni1EAE
ENCODING 7854
SWIDTH 722 0
DWIDTH 23 0
BBX 23 37 0 0
BITMAP
000300
000700
000E00
001C00
003000
006000
000000
010100
018300
00FE00
003800
000000
001000
003800
003800
007800
007C00
007C00
00DC00
00DE00
019E00
018E00
018F00
030700
030780
030780
060380
07FFC0
07FFC0
0C01C0
0C01E0
0C01E0
1800F0
1800F0
3800F8
7C01FC
FE03FE
ENDCHAR
STARTCHAR uni1EAF
ENCODING 7855
SWIDTH 556 0
DWIDTH 17 0
BBX 16 28 1 0
BITMAP
0030
0070
00E0
01C0
0300
0600
0000
1010
1830
0FE0
0380
0000
0FC0
3FF0
7878
7038
6038
0038
01F8
0FF8
3C38
7038
E038
E038
E078
F1FD
7F9F
3E0E
ENDCHAR
STARTCHAR uni1EB0
ENCODING 7856
SWIDTH 722 0
DWIDTH 23 0
BBX 23 37 0 0
BITMAP
018000
01C000
00E000
007000
001800
000C00
000000
010100
018300
00FE00
003800
000000
001000
003800
003800
007800
007C00
007C00
00DC00
00DE00
019E00
018E00
018F00
030700
030780
030780
060380
07FFC0
07FFC0
0C01C0
0C01E0
0C01E0
1800F0
1800F0
3800F8
7C01FC
FE03FE
ENDCHAR
STARTCHAR uni1EB1
ENCODING 7857
SWIDTH 556 0
DWIDTH 17 0
BBX 16 28 1 0
BITMAP
1800
1C00
0E00
0700
0180
00C0
0000
1010
1830
0FE0
0380
0000
0FC0
3FF0
7878
7038
6038
0038
01F8
0FF8
3C38
7038
E038
E038
E078
F1FD
7F9F
3E0E
ENDCHAR
STARTCHAR uni1EB4
ENCODING 7860
SWIDTH 722 0
DWIDTH 23 0
BBX 23 34 0 0
BITMAP
00F180
01FF00
031E00
000000
010100
018300
00FE00
003800
000000
001000
003800
003800
007800
007C00
007C00
00DC00
00DE00
019E00
018E00
018F00
030700
030780
030780
060380
07FFC0
07FFC0
0C01C0
0C01E0
0C01E0
1800F0
1800F0
3800F8
7C01FC
FE03FE
ENDCHAR
STARTCHAR uni1EB5
ENCODING 7861
SWIDTH 556 0
DWIDTH 17 0
BBX 16 25 1 0
BITMAP
0F18
1FF0
31E0
0000
1010
1830
0FE0
0380
0000
0FC0
3FF0
7878
7038
6038
0038
01F8
0FF8
3C38
7038
E038
E038
E078
F1FD
7F9F
3E0E
ENDCHAR
STARTCHAR uni1EB6
ENCODING 7862
SWIDTH 722 0
DWIDTH 23 0
BBX 23 34 0 -4
BITMAP
010100
018300
00FE00
003800
000000
001000
003800
003800
007800
007C00
007C00
00DC00
00DE00
019E00
018E00
018F00
030700
030780
030780
060380
07FFC0
07FFC0
0C01C0
0C01E0
0C01E0
1800F0
1800F0
3800F8
7C01FC
FE03FE
000000
001800
003C00
001800
ENDCHAR
STARTCHAR uni1EB7
ENCODING 7863
SWIDTH 556 0
DWIDTH 17 0
BBX 16 25 1 -4
BITMAP
1010
1830
0FE0
0380
0000
0FC0
3FF0
7878
7038
6038
0038
01F8
0FF8
3C38
7038
E038
E038
E078
F1FD
7F9F
3E0E
0000
0180
03C0
0180
ENDCHAR
STARTCHAR uni1EB8
ENCODING 7864
SWIDTH 722 0
DWIDTH 24 0
BBX 20 29 1 -4
BITMAP
FFFFF0
3FFFF0
0E01F0
0E0070
0E0070
0E0030
0E0430
0E0410
0E0410
0E0C00
0E3C00
0FFC00
0FFC00
0E3C00
0E0C00
0E0C00
0E0410
0E0410
0E0010
0E0030
0E0030
0E0070
0E01F0
3FFFF0
FFFFF0
000000
003000
007800
003000
ENDCHAR
STARTCHAR uni1EB9
ENCODING 7865
SWIDTH 500 0
DWIDTH 16 0
BBX 14 20 1 -4
BITMAP
07C0
1FF0
3878
7038
601C
E01C
E01C
FFFC
E000
E000
E000
F004
700C
7838
3FF0
0FC0
0000
0300
0780
0300
ENDCHAR
STARTCHAR uni1EBC
ENCODING 7868
SWIDTH 722 0
DWIDTH 24 0
BBX 20 29 1 0
BITMAP
00F180
01FF00
031E00
000000
FFFFF0
3FFFF0
0E01F0
0E0070
0E0070
0E0030
0E0430
0E0410
0E0410
0E0C00
0E3C00
0FFC00
0FFC00
0E3C00
0E0C00
0E0C00
0E0410
0E0410
0E0010
0E0030
0E0030
0E0070
0E01F0
3FFFF0
FFFFF0
ENDCHAR
STARTCHAR uni1EBD
ENCODING 7869
SWIDTH 500 0
DWIDTH 16 0
BBX 14 20 1 0
BITMAP
0F18
1FF0
31E0
0000
07C0
1FF0
3878
7038
601C
E01C
E01C
FFFC
E000
E000
E000
F004
700C
7838
3FF0
0FC0
ENDCHAR
STARTCHAR uni1EBE
ENCODING 7870
SWIDTH 722 0
DWIDTH 24 0
BBX 20 39 1 0
BITMAP
000600
000E00
001C00
003800
006000
00C000
000000
003000
007800
00FC00
018600
030300
000000
000000
FFFFF0
3FFFF0
0E01F0
0E0070
0E0070
0E0030
0E0430
0E0410
0E0410
0E0C00
0E3C00
0FFC00
0FFC00
0E3C00
0E0C00
0E0C00
0E0410
0E0410
0E0010
0E0030
0E0030
0E0070
0E01F0
3FFFF0
FFFFF0
ENDCHAR
STARTCHAR uni1EBF
ENCODING 7871
SWIDTH 500 0
DWIDTH 16 0
BBX 14 29 1 0
BITMAP
0030
0070
00E0
01C0
0300
0600
0000
0300
0780
0FC0
1860
3030
0000
07C0
1FF0
3838
7018
701C
F01C
F01C
FFFC
E000
E000
F000
F004
780C
3C38
1FF0
07C0
ENDCHAR
STARTCHAR uni1EC0
ENCODING 7872
SWIDTH 722 0
DWIDTH 24 0
BBX 20 39 1 0
BITMAP
030000
038000
01C000
00E000
003000
001800
000000
003000
007800
00FC00
018600
030300
000000
000000
FFFFF0
3FFFF0
0E01F0
0E0070
0E0070
0E0030
0E0430
0E0410
0E0410
0E0C00
0E3C00
0FFC00
0FFC00
0E3C00
0E0C00
0E0C00
0E0410
0E0410
0E0010
0E0030
0E0030
0E0070
0E01F0
3FFFF0
FFFFF0
ENDCHAR
STARTCHAR uni1EC1
ENCODING 7873
SWIDTH 500 0
DWIDTH 16 0
BBX 14 29 1 0
BITMAP
3000
3800
1C00
0E00
0300
0180
0000
0300
0780
0FC0
1860
3030
0000
07C0
1FF0
3838
7018
701C
F01C
F01C
FFFC
E000
E000
F000
F004
780C
3C38
1FF0
07C0
ENDCHAR
STARTCHAR uni1EC4
ENCODING 7876
SWIDTH 722 0
DWIDTH 24 0
BBX 20 36 1 0
BITMAP
01E300
03FE00
063C00
000000
003000
007800
00FC00
018600
030300
000000
000000
FFFFF0
3FFFF0
0E01F0
0E0070
0E0070
0E0030
0E0430
0E0410
0E0410
0E0C00
0E3C00
0FFC00
0FFC00
0E3C00
0E0C00
0E0C00
0E0410
0E0410
0E0010
0E0030
0E0030
0E0070
0E01F0
3FFFF0
FFFFF0
ENDCHAR
STARTCHAR uni1EC5
ENCODING 7877
SWIDTH 500 0
DWIDTH 16 0
BBX 14 26 1 0
BITMAP
0F18
1FF0
31E0
0000
0300
0780
0FC0
1860
3030
0000
07C0
1FF0
3838
7018
701C
F01C
F01C
FFFC
E000
E000
F000
F004
780C
3C38
1FF0
07C0
ENDCHAR
STARTCHAR uni1EC6
ENCODING 7878
SWIDTH 722 0
DWIDTH 24 0
BBX 20 35 1 -4
BITMAP
003000
007800
00FC00
018600
030300
000000
FFFFF0
3FFFF0
0E01F0
0E0070
0E0070
0E0030
0E0430
0E0410
0E0410
0E0C00
0E3C00
0FFC00
0FFC00
0E3C00
0E0C00
0E0C00
0E0410
0E0410
0E0010
0E0030
0E0030
0E0070
0E01F0
3FFFF0
FFFFF0
000000
003000
007800
003000
ENDCHAR
STARTCHAR uni1EC7
ENCODING 7879
SWIDTH 500 0
DWIDTH 16 0
BBX 14 26 1 -4
BITMAP
0300
0780
0FC0
1860
3030
0000
07C0
1FF0
3878
7038
601C
E01C
E01C
FFFC
E000
E000
E000
F004
700C
7838
3FF0
0FC0
0000
0300
0780
0300
ENDCHAR
STARTCHAR uni1ECA
ENCODING 7882
SWIDTH 407 0
DWIDTH 13 0
BBX 11 29 1 -4
BITMAP
FFE0
3F80
0E00
0E00
0E00
0E00
0E00
0E00
0E00
0E00
0E00
0E00
0E00
0E00
0E00
0E00
0E00
0E00
0E00
0E00
0E00
0E00
0E00
3F80
FFE0
0000
0600
0F00
0600
ENDCHAR
STARTCHAR uni1ECB
ENCODING 7883
SWIDTH 315 0
DWIDTH 10 0
BBX 9 28 1 -4
BITMAP
1800
3C00
3C00
1800
0000
0000
0000
0000
1C00
FC00
1C00
1C00
1C00
1C00
1C00
1C00
1C00
1C00
1C00
1C00
1C00
1C00
1C00
FF80
0000
0C00
1E00
0C00
ENDCHAR
STARTCHAR uni1ECC
ENCODING 7884
SWIDTH 778 0
DWIDTH 24 0
BBX 22 29 1 -4
BITMAP
01FE00
07FF80
0F03C0
1C00E0
3C00F0
380070
780078
700038
F0003C
F0003C
E0001C
E0001C
E0001C
E0001C
E0001C
F0003C
F00038
700038
780078
380070
3C00F0
1C00E0
0F03C0
07FF80
01FE00
000000
003000
007800
003000
ENDCHAR
STARTCHAR uni1ECD
ENCODING 7885
SWIDTH 500 0
DWIDTH 16 0
BBX 14 20 1 -4
BITMAP
0780
1FE0
3870
7038
7038
E01C
E01C
E01C
E01C
E01C
E01C
7038
7038
3870
1FE0
0780
0000
0300
0780
0300
ENDCHAR
STARTCHAR uni1ED0
ENCODING 7888
SWIDTH 778 0
DWIDTH 24 0
BBX 22 38 1 0
BITMAP
000300
000700
000E00
001C00
003000
006000
000000
003000
007800
00FC00
018600
030300
000000
01FE00
07FF80
0F03C0
1C00E0
3C00F0
380070
780078
780078
F0003C
F0003C
F0003C
F0003C
F0003C
F0003C
F0003C
F0003C
F00038
780078
780078
380070
3C00F0
1C00E0
0F03C0
07FF80
01FE00
ENDCHAR
STARTCHAR uni1ED1
ENCODING 7889
SWIDTH 500 0
DWIDTH 16 0
BBX 14 29 1 0
BITMAP
0030
0070
00E0
01C0
0300
0600
0000
0300
0780
0FC0
1860
3030
0000
0780
1FE0
3870
7038
7038
E01C
E01C
E01C
E01C
E01C
E01C
7038
7038
3870
1FE0
0780
ENDCHAR
STARTCHAR uni1ED2
ENCODING 7890
SWIDTH 778 0
DWIDTH 24 0
BBX 22 38 1 0
BITMAP
030000
038000
01C000
00E000
003000
001800
000000
003000
007800
00FC00
018600
030300
000000
01FE00
07FF80
0F03C0
1C00E0
3C00F0
380070
780078
780078
F0003C
F0003C
F0003C
F0003C
F0003C
F0003C
F0003C
F0003C
F00038
780078
780078
380070
3C00F0
1C00E0
0F03C0
07FF80
01FE00
ENDCHAR
STARTCHAR uni1ED3
ENCODING 7891
SWIDTH 500 0
DWIDTH 16 0
BBX 14 29 1 0
BITMAP
3000
3800
1C00
0E00
0300
0180
0000
0300
0780
0FC0
1860
3030
0000
0780
1FE0
3870
7038
7038
E01C
E01C
E01C
E01C
E01C
E01C
7038
7038
3870
1FE0
0780
ENDCHAR
STARTCHAR uni1ED6
ENCODING 7894
SWIDTH 778 0
DWIDTH 24 0
BBX 22 35 1 0
BITMAP
00F180
01FF00
031E00
000000
003000
007800
00FC00
018600
030300
000000
01FE00
07FF80
0F03C0
1C00E0
3C00F0
380070
780078
780078
F0003C
F0003C
F0003C
F0003C
F0003C
F0003C
F0003C
F0003C
F00038
780078
780078
380070
3C00F0
1C00E0
0F03C0
07FF80
01FE00
ENDCHAR
STARTCHAR uni1ED7
ENCODING 7895
SWIDTH 500 0
DWIDTH 16 0
BBX 14 26 1 0
BITMAP
0F18
1FF0
31E0
0000
0300
0780
0FC0
1860
3030
0000
0780
1FE0
3870
7038
7038
E01C
E01C
E01C
E01C
E01C
E01C
7038
7038
3870
1FE0
0780
ENDCHAR
STARTCHAR uni1ED8
ENCODING 7896
SWIDTH 778 0
DWIDTH 24 0
BBX 22 35 1 -4
BITMAP
003000
007800
00FC00
018600
030300
000000
01FE00
07FF80
0F03C0
1C00E0
3C00F0
380070
780078
700038
F0003C
F0003C
E0001C
E0001C
E0001C
E0001C
E0001C
F0003C
F00038
700038
780078
380070
3C00F0
1C00E0
0F03C0
07FF80
01FE00
000000
003000
007800
003000
ENDCHAR
STARTCHAR uni1ED9
ENCODING 7897
SWIDTH 500 0
DWIDTH 16 0
BBX 14 26 1 -4
BITMAP
0300
0780
0FC0
1860
3030
0000
0780
1FE0
3870
7038
7038
E01C
E01C
E01C
E01C
E01C
E01C
7038
7038
3870
1FE0
0780
0000
0300
0780
0300
ENDCHAR
STARTCHAR uni1EDA
ENCODING 7898
SWIDTH 778 0
DWIDTH 24 0
BBX 25 32 1 0
BITMAP
0000C000
0001C000
00038000
00070000
000C0000
00180000
00000000
01FE0300
07FF8780
0F03C780
1C00E380
3C00F180
38007100
78007B00
70003E00
F0003C00
F0003C00
E0001C00
E0001C00
E0001C00
E0001C00
E0001C00
F0003C00
F0003800
70003800
78007800
38007000
3C00F000
1C00E000
0F03C000
07FF8000
01FE0000
ENDCHAR
STARTCHAR uni1EDB
ENCODING 7899
SWIDTH 500 0
DWIDTH 16 0
BBX 18 23 1 0
BITMAP
000600
000E00
001C00
003800
006000
00C000
000000
078180
1FE3C0
3873C0
7039C0
7038C0
E01C80
E01D80
E01F00
E01E00
E01C00
E01C00
703800
703800
387000
1FE000
078000
ENDCHAR
STARTCHAR uni1EDC
ENCODING 7900
SWIDTH 778 0
DWIDTH 24 0
BBX 25 32 1 0
BITMAP
00600000
00700000
00380000
001C0000
00060000
00030000
00000000
01FE0300
07FF8780
0F03C780
1C00E380
3C00F180
38007100
78007B00
70003E00
F0003C00
F0003C00
E0001C00
E0001C00
E0001C00
E0001C00
E0001C00
F0003C00
F0003800
70003800
78007800
38007000
3C00F000
1C00E000
0F03C000
07FF8000
01FE0000
ENDCHAR
STARTCHAR uni1EDD
ENCODING 7901
SWIDTH 500 0
DWIDTH 16 0
BBX 18 23 1 0
BITMAP
060000
070000
038000
01C000
006000
003000
000000
078180
1FE3C0
3873C0
7039C0
7038C0
E01C80
E01D80
E01F00
E01E00
E01C00
E01C00
703800
703800
387000
1FE000
078000
ENDCHAR
STARTCHAR uni1EE0
ENCODING 7904
SWIDTH 778 0
DWIDTH 24 0
BBX 25 29 1 0
BITMAP
003C6000
007FC000
00C78000
00000000
01FE0300
07FF8780
0F03C780
1C00E380
3C00F180
38007100
78007B00
70003E00
F0003C00
F0003C00
E0001C00
E0001C00
E0001C00
E0001C00
E0001C00
F0003C00
F0003800
70003800
78007800
38007000
3C00F000
1C00E000
0F03C000
07FF8000
01FE0000
ENDCHAR
STARTCHAR uni1EE1
ENCODING 7905
SWIDTH 500 0
DWIDTH 16 0
BBX 18 20 1 0
BITMAP
01E300
03FE00
063C00
000000
078180
1FE3C0
3873C0
7039C0
7038C0
E01C80
E01D80
E01F00
E01E00
E01C00
E01C00
703800
703800
387000
1FE000
078000
ENDCHAR
STARTCHAR uni1EE2
ENCODING 7906
SWIDTH 778 0
DWIDTH 24 0
BBX 25 29 1 -4
BITMAP
01FE0300
07FF8780
0F03C780
1C00E380
3C00F180
38007100
78007B00
70003E00
F0003C00
F0003C00
E0001C00
E0001C00
E0001C00
E0001C00
E0001C00
F0003C00
F0003800
70003800
78007800
38007000
3C00F000
1C00E000
0F03C000
07FF8000
01FE0000
00000000
00180000
003C0000
00180000
ENDCHAR
STARTCHAR uni1EE3
ENCODING 7907
SWIDTH 500 0
DWIDTH 16 0
BBX 18 20 1 -4
BITMAP
078180
1FE3C0
3873C0
7039C0
7038C0
E01C80
E01D80
E01F00
E01E00
E01C00
E01C00
703800
703800
387000
1FE000
078000
000000
018000
03C000
018000
ENDCHAR
STARTCHAR uni1EE4
ENCODING 7908
SWIDTH 815 0
DWIDTH 26 0
BBX 26 29 0 -4
BITMAP
FFE0FFC0
3F803F00
0E000C00
0E000C00
0E000C00
0E000C00
0E000C00
0E000C00
0E000C00
0E000C00
0E000C00
0E000C00
0E000C00
0E000C00
0E000C00
0E000C00
0E000C00
0E000C00
0E000C00
0F001800
07001800
07803000
03E0F000
01FFC000
007F0000
00000000
00180000
003C0000
00180000
ENDCHAR
STARTCHAR uni1EE5
ENCODING 7909
SWIDTH 611 0
DWIDTH 20 0
BBX 18 20 0 -4
BITMAP
1C0700
FC3F00
1C0700
1C0700
1C0700
1C0700
1C0700
1C0700
1C0700
1C0700
1C0700
1C0F00
1C0F00
1E3F00
0FF7C0
07C700
000000
006000
00F000
006000
ENDCHAR
STARTCHAR uni1EE8
ENCODING 7912
SWIDTH 815 0
DWIDTH 26 0
BBX 28 32 0 0
BITMAP
00003000
00007000
0000E000
0001C000
00030000
00060000
00000000
FFE0FFE0
3F803FF0
0E000CF0
0E000C70
0E000C30
0E000C20
0E000C60
0E000CC0
0E000D80
0E000C00
0E000C00
0E000C00
0E000C00
0E000C00
0E000C00
0E000C00
0E000C00
0E000C00
0E000C00
0F001800
07001800
07803000
03E0F000
01FFC000
007F0000
ENDCHAR
STARTCHAR uni1EE9
ENCODING 7913
SWIDTH 611 0
DWIDTH 20 0
BBX 21 23 0 0
BITMAP
000300
000700
000E00
001C00
003000
006000
000000
1C0730
FC3F78
1C0778
1C0738
1C0718
1C0710
1C0730
1C0760
1C07C0
1C0700
1C0700
1C0F00
1C0F00
1E3F00
0FF7C0
07C700
ENDCHAR
STARTCHAR uni1EEA
ENCODING 7914
SWIDTH 815 0
DWIDTH 26 0
BBX 28 32 0 0
BITMAP
00300000
00380000
001C0000
000E0000
00030000
00018000
00000000
FFE0FFE0
3F803FF0
0E000CF0
0E000C70
0E000C30
0E000C20
0E000C60
0E000CC0
0E000D80
0E000C00
0E000C00
0E000C00
0E000C00
0E000C00
0E000C00
0E000C00
0E000C00
0E000C00
0E000C00
0F001800
07001800
07803000
03E0F000
01FFC000
007F0000
ENDCHAR
STARTCHAR uni1EEB
ENCODING 7915
SWIDTH 611 0
DWIDTH 20 0
BBX 21 23 0 0
BITMAP
018000
01C000
00E000
007000
001800
000C00
000000
1C0730
FC3F78
1C0778
1C0738
1C0718
1C0710
1C0730
1C0760
1C07C0
1C0700
1C0700
1C0F00
1C0F00
1E3F00
0FF7C0
07C700
ENDCHAR
STARTCHAR uni1EEE
ENCODING 7918
SWIDTH 815 0
DWIDTH 26 0
BBX 28 29 0 0
BITMAP
000F1800
001FF000
0031E000
00000000
FFE0FFE0
3F803FF0
0E000CF0
0E000C70
0E000C30
0E000C20
0E000C60
0E000CC0
0E000D80
0E000C00
0E000C00
0E000C00
0E000C00
0E000C00
0E000C00
0E000C00
0E000C00
0E000C00
0E000C00
0F001800
07001800
07803000
03E0F000
01FFC000
007F0000
ENDCHAR
STARTCHAR uni1EEF
ENCODING 7919
SWIDTH 611 0
DWIDTH 20 0
BBX 21 20 0 0
BITMAP
00F180
01FF00
031E00
000000
1C0730
FC3F78
1C0778
1C0738
1C0718
1C0710
1C0730
1C0760
1C07C0
1C0700
1C0700
1C0F00
1C0F00
1E3F00
0FF7C0
07C700
ENDCHAR
STARTCHAR uni1EF0
ENCODING 7920
SWIDTH 815 0
DWIDTH 26 0
BBX 28 29 0 -4
BITMAP
FFE0FFE0
3F803FF0
0E000CF0
0E000C70
0E000C30
0E000C20
0E000C60
0E000CC0
0E000D80
0E000C00
0E000C00
0E000C00
0E000C00
0E000C00
0E000C00
0E000C00
0E000C00
0E000C00
0E000C00
0F001800
07001800
07803000
03E0F000
01FFC000
007F0000
00000000
000C0000
001E0000
000C0000
ENDCHAR
STARTCHAR uni1EF1
ENCODING 7921
SWIDTH 611 0
DWIDTH 20 0
BBX 21 20 0 -4
BITMAP
1C0730
FC3F78
1C0778
1C0738
1C0718
1C0710
1C0730
1C0760
1C07C0
1C0700
1C0700
1C0F00
1C0F00
1E3F00
0FF7C0
07C700
000000
006000
00F000
006000
ENDCHAR
STARTCHAR Ygrave
ENCODING 7922
SWIDTH 704 0
DWIDTH 23 0
BBX 23 32 0 0
BITMAP
030000
038000
01C000
00E000
003000
001800
000000
FF83FE
7E00F8
3E0070
1E0060
0F00E0
0F00C0
078180
07C180
03C300
03E300
01E600
00F600
00FC00
007C00
007800
003800
003800
003800
003800
003800
003800
003800
003800
00FE00
03FF80
ENDCHAR
STARTCHAR ygrave
ENCODING 7923
SWIDTH 537 0
DWIDTH 20 0
BBX 18 30 1 -7
BITMAP
0C0000
0E0000
070000
038000
00C000
006000
000000
FF1FC0
3C0700
3C0600
1C0600
1E0C00
0E0C00
0F0800
071800
071800
07B000
03B000
03E000
01E000
01E000
00C000
00C000
018000
018000
630000
F30000
E60000
FC0000
700000
ENDCHAR
STARTCHAR uni1EF4
ENCODING 7924
SWIDTH 704 0
DWIDTH 23 0
BBX 23 29 0 -4
BITMAP
FF83FE
7E00F8
3E0070
1E0060
0F00E0
0F00C0
078180
07C180
03C300
03E300
01E600
00F600
00FC00
007C00
007800
003800
003800
003800
003800
003800
003800
003800
003800
00FE00
03FF80
000000
001800
003C00
001800
ENDCHAR
STARTCHAR uni1EF5
ENCODING 7925
SWIDTH 537 0
DWIDTH 20 0
BBX 18 27 1 -11
BITMAP
FF1FC0
3C0700
3C0600
1C0600
1E0C00
0E0C00
0F0800
071800
071800
07B000
03B000
03E000
01E000
01E000
00C000
00C000
018000
018000
630000
F30000
E60000
FC0000
700000
000000
060000
0F0000
060000
ENDCHAR
STARTCHAR uni1EF8
ENCODING 7928
SWIDTH 704 0
DWIDTH 23 0
BBX 23 29 0 0
BITMAP
00F180
01FF00
031E00
000000
FF83FE
7E00F8
3E0070
1E0060
0F00E0
0F00C0
078180
07C180
03C300
03E300
01E600
00F600
00FC00
007C00
007800
003800
003800
003800
003800
003800
003800
003800
003800
00FE00
03FF80
ENDCHAR
STARTCHAR uni1EF9
ENCODING 7929
SWIDTH 537 0
DWIDTH 20 0
BBX 18 27 1 -7
BITMAP
078C00
0FF800
18F000
000000
FF1FC0
3C0700
3C0600
1C0600
1E0C00
0E0C00
0F0800
071800
071800
07B000
03B000
03E000
01E000
01E000
00C000
00C000
018000
018000
630000
F30000
E60000
FC0000
700000
ENDCHAR
STARTCHAR uni2000
ENCODING 8192
SWIDTH 500 0
DWIDTH 17 0
BBX 1 1 0 0
BITMAP
00
ENDCHAR
STARTCHAR uni2001
ENCODING 8193
SWIDTH 1000 0
DWIDTH 33 0
BBX 1 1 0 0
BITMAP
00
ENDCHAR
STARTCHAR uni2002
ENCODING 8194
SWIDTH 500 0
DWIDTH 17 0
BBX 1 1 0 0
BITMAP
00
ENDCHAR
STARTCHAR uni2003
ENCODING 8195
SWIDTH 1000 0
DWIDTH 33 0
BBX 1 1 0 0
BITMAP
00
ENDCHAR
STARTCHAR uni2004
ENCODING 8196
SWIDTH 333 0
DWIDTH 11 0
BBX 1 1 0 0
BITMAP
00
ENDCHAR
STARTCHAR uni2005
ENCODING 8197
SWIDTH 250 0
DWIDTH 8 0
BBX 1 1 0 0
BITMAP
00
ENDCHAR
STARTCHAR uni2006
ENCODING 8198
SWIDTH 167 0
DWIDTH 6 0
BBX 1 1 0 0
BITMAP
00
ENDCHAR
STARTCHAR uni2007
ENCODING 8199
SWIDTH 556 0
DWIDTH 18 0
BBX 1 1 0 0
BITMAP
00
ENDCHAR
STARTCHAR uni2008
ENCODING 8200
SWIDTH 278 0
DWIDTH 9 0
BBX 1 1 0 0
BITMAP
00
ENDCHAR
STARTCHAR uni2009
ENCODING 8201
SWIDTH 200 0
DWIDTH 7 0
BBX 1 1 0 0
BITMAP
00
ENDCHAR
STARTCHAR uni200A
ENCODING 8202
SWIDTH 100 0
DWIDTH 3 0
BBX 1 1 0 0
BITMAP
00
ENDCHAR
STARTCHAR uni200B
ENCODING 8203
SWIDTH 0 0
DWIDTH 0 0
BBX 1 1 0 0
BITMAP
00
ENDCHAR
STARTCHAR uni2010
ENCODING 8208
SWIDTH 333 0
DWIDTH 11 0
BBX 8 3 1 7
BITMAP
FF
FF
FF
ENDCHAR
STARTCHAR uni2011
ENCODING 8209
SWIDTH 333 0
DWIDTH 11 0
BBX 8 3 1 7
BITMAP
FF
FF
FF
ENDCHAR
STARTCHAR figuredash
ENCODING 8210
SWIDTH 556 0
DWIDTH 18 0
BBX 18 2 0 7
BITMAP
FFFFC0
FFFFC0
ENDCHAR
STARTCHAR endash
ENCODING 8211
SWIDTH 556 0
DWIDTH 18 0
BBX 18 2 0 7
BITMAP
FFFFC0
FFFFC0
ENDCHAR
STARTCHAR emdash
ENCODING 8212
SWIDTH 1000 0
DWIDTH 32 0
BBX 32 2 0 7
BITMAP
FFFFFFFF
FFFFFFFF
ENDCHAR
STARTCHAR afii00208
ENCODING 8213
SWIDTH 1000 0
DWIDTH 32 0
BBX 32 2 0 7
BITMAP
FFFFFFFF
FFFFFFFF
ENDCHAR
STARTCHAR quoteleft
ENCODING 8216
SWIDTH 204 0
DWIDTH 7 0
BBX 5 9 1 16
BITMAP
18
30
60
40
C0
E0
F0
F0
60
ENDCHAR
STARTCHAR quoteright
ENCODING 8217
SWIDTH 204 0
DWIDTH 7 0
BBX 5 9 1 16
BITMAP
30
78
78
38
18
10
30
60
C0
ENDCHAR
STARTCHAR quotesinglbase
ENCODING 8218
SWIDTH 204 0
DWIDTH 7 0
BBX 5 9 0 -5
BITMAP
30
78
78
38
18
10
30
60
C0
ENDCHAR
STARTCHAR quotereversed
ENCODING 8219
SWIDTH 204 0
DWIDTH 7 0
BBX 5 9 1 16
BITMAP
60
F0
F0
E0
C0
40
60
30
18
ENDCHAR
STARTCHAR quotedblleft
ENCODING 8220
SWIDTH 389 0
DWIDTH 13 0
BBX 11 9 1 16
BITMAP
1860
30C0
6180
4100
C300
E380
F3C0
F3C0
6180
ENDCHAR
STARTCHAR quotedblright
ENCODING 8221
SWIDTH 389 0
DWIDTH 13 0
BBX 11 9 1 16
BITMAP
30C0
79E0
79E0
38E0
1860
1040
30C0
6180
C300
ENDCHAR
STARTCHAR quotedblbase
ENCODING 8222
SWIDTH 389 0
DWIDTH 13 0
BBX 11 9 0 -5
BITMAP
30C0
79E0
79E0
38E0
1860
1040
30C0
6180
C300
ENDCHAR
STARTCHAR uni201F
ENCODING 8223
SWIDTH 389 0
DWIDTH 13 0
BBX 11 9 1 16
BITMAP
6180
F3C0
F3C0
E380
C300
4100
6180
30C0
1860
ENDCHAR
STARTCHAR dagger
ENCODING 8224
SWIDTH 500 0
DWIDTH 17 0
BBX 13 30 1 -5
BITMAP
0300
0700
0300
0300
0300
0300
0300
7338
FFF8
7338
0300
0300
0300
0300
0300
0780
0780
0300
0300
0300
0300
0300
0300
0300
0300
0100
0300
0300
0300
0300
ENDCHAR
STARTCHAR daggerdbl
ENCODING 8225
SWIDTH 500 0
DWIDTH 17 0
BBX 13 30 2 -5
BITMAP
0200
0700
0700
0700
0300
0200
0200
F278
FFF8
E278
0200
0200
0200
0700
0700
0700
0700
0200
0200
0200
E278
FFF8
F278
0200
0200
0300
0700
0700
0700
0200
ENDCHAR
STARTCHAR bullet
ENCODING 8226
SWIDTH 606 0
DWIDTH 20 0
BBX 11 11 4 7
BITMAP
1F00
3F80
7FC0
FFE0
FFE0
FFE0
FFE0
FFE0
7FC0
3F80
1F00
ENDCHAR
STARTCHAR ellipsis
ENCODING 8230
SWIDTH 1000 0
DWIDTH 33 0
BBX 26 4 3 0
BITMAP
600C0180
F01E03C0
F01E03C0
600C0180
ENDCHAR
STARTCHAR perthousand
ENCODING 8240
SWIDTH 1000 0
DWIDTH 33 0
BBX 32 23 0 0
BITMAP
0000C000
0F818000
1DC78000
387F0000
70430000
F0460000
E0C60000
E0CC0000
C1880000
C3980000
6F300000
3C31F01E
0063B877
004718E3
00CE09C1
009E09C1
019C1981
031C1B83
03181382
06383306
0418630C
0C1CC19C
080F80F8
ENDCHAR
STARTCHAR guilsinglleft
ENCODING 8249
SWIDTH 259 0
DWIDTH 9 0
BBX 6 11 1 2
BITMAP
04
0C
18
30
70
E0
70
30
18
0C
04
ENDCHAR
STARTCHAR guilsinglright
ENCODING 8250
SWIDTH 259 0
DWIDTH 9 0
BBX 6 11 1 2
BITMAP
80
C0
60
30
38
1C
38
30
60
C0
80
ENDCHAR
STARTCHAR fraction
ENCODING 8260
SWIDTH 167 0
DWIDTH 6 0
BBX 16 23 -6 0
BITMAP
0001
0003
0006
000C
000C
0018
0030
0030
0060
00C0
00C0
0180
0300
0300
0600
0C00
0800
1800
3000
6000
6000
C000
8000
ENDCHAR
STARTCHAR oneinferior
ENCODING 8321
SWIDTH 333 0
DWIDTH 11 0
BBX 8 14 1 -7
BITMAP
38
F8
18
18
18
18
18
18
18
18
18
18
18
FF
ENDCHAR
STARTCHAR twoinferior
ENCODING 8322
SWIDTH 333 0
DWIDTH 11 0
BBX 10 14 0 -7
BITMAP
3F00
7380
6180
7180
7180
0180
0300
0700
0E00
1C00
3840
7040
FFC0
FFC0
ENDCHAR
STARTCHAR threeinferior
ENCODING 8323
SWIDTH 333 0
DWIDTH 11 0
BBX 9 14 1 -7
BITMAP
3E00
6300
7180
6180
0180
0700
3E00
0700
0300
6180
E180
C380
E700
7E00
ENDCHAR
STARTCHAR uni20A5
ENCODING 8357
SWIDTH 889 0
DWIDTH 27 0
BBX 27 25 0 -4
BITMAP
00006000
00006000
00006000
0000C000
0000C000
1CF0F800
FDFDFE00
1F1D8E00
1E0F8700
1E0F0700
1C0F0700
1C0F0700
1C0E0700
1C0E0700
1C0E0700
1C0E0700
1C0E0700
1C0E0700
1C1E0700
1C1E0700
FF3F9FE0
00300000
00300000
00300000
00600000
ENDCHAR
STARTCHAR uni20A6
ENCODING 8358
SWIDTH 815 0
DWIDTH 28 0
BBX 26 25 1 0
BITMAP
FF00FFC0
1F003F00
0F800C00
0FC00C00
0FC00C00
0DE00C00
0DF00C00
0CF80C00
0FFFFC00
0FFFFC00
0C3E0C00
0C1E0C00
0C1F0C00
0C0F8C00
0FFFFC00
0FFFFC00
0C03CC00
0C01EC00
0C00EC00
0C00FC00
0C007C00
0C003C00
0C003C00
3F001C00
FFC00C00
ENDCHAR
STARTCHAR uni20A9
ENCODING 8361
SWIDTH 981 0
DWIDTH 31 0
BBX 31 25 0 0
BITMAP
FF1FF1FE
7E07C07C
3C038038
1C038030
1E03C030
1E03C060
0E03C060
0E03E060
0FFFFF60
07FFFFC0
0706E0C0
0784F0C0
078C70C0
038C7180
03FFFF80
03FFFF80
01D83900
01F83F00
01F81F00
00F01F00
00F01E00
00F01E00
00E00E00
00600C00
00600C00
ENDCHAR
STARTCHAR Euro
ENCODING 8364
SWIDTH 722 0
DWIDTH 22 0
BBX 24 25 -3 0
BITMAP
001FC6
007FF6
00E03E
01C01E
03C00E
03800E
078006
078006
FFFF02
FFFF02
0F0000
0F0000
0F0000
0F0000
FFFF00
FFFF00
0F0003
078003
078003
078006
03C006
01C00C
00F038
007FF0
001FC0
ENDCHAR
STARTCHAR uni20AD
ENCODING 8365
SWIDTH 778 0
DWIDTH 25 0
BBX 25 25 1 0
BITMAP
FFE3FF00
3F81FC00
0E00F000
0E00E000
0E01C000
0E018000
0E030000
0E060000
0E0E0000
0E1C0000
0E380000
FFFFFF80
FFFFFF80
0FDE0000
0F8F0000
0F078000
0E07C000
0E03C000
0E01E000
0E01F000
0E00F000
0E007800
0E007C00
3F003E00
FFC0FF80
ENDCHAR
STARTCHAR uni2103
ENCODING 8451
SWIDTH 1102 0
DWIDTH 34 0
BBX 31 25 2 0
BITMAP
00003F8C
0000FFEC
3E01C07C
7703803C
C187801C
C187001C
808F000C
C18F000C
C19E0004
771E0004
3E1E0000
001E0000
001E0000
001E0000
001E0000
001E0000
001E0006
000F0006
000F0006
000F000C
0007800C
00038018
0001E070
0000FFE0
00003F80
ENDCHAR
STARTCHAR uni2109
ENCODING 8457
SWIDTH 1047 0
DWIDTH 34 0
BBX 31 25 2 0
BITMAP
001FFFFE
0007FFFE
3E01C03E
7701C00E
C181C006
C181C006
8081C002
C181C082
C181C082
7701C180
3E01C180
0001C780
0001FF80
0001FF80
0001C380
0001C180
0001C080
0001C080
0001C080
0001C000
0001C000
0001C000
0001C000
0007F000
001FFC00
ENDCHAR
STARTCHAR trademark
ENCODING 8482
SWIDTH 1000 0
DWIDTH 33 0
BBX 30 14 1 11
BITMAP
FFF3C078
C631C070
8611E0F0
060160F0
060160B0
060171B0
06013130
06013B30
06011B30
06011A30
06011E30
06010C30
06010C30
1F83CCFC
ENDCHAR
STARTCHAR uni212A
ENCODING 8490
SWIDTH 778 0
DWIDTH 25 0
BBX 25 25 1 0
BITMAP
FFE3FF00
3F81FC00
0E00F000
0E00E000
0E01C000
0E018000
0E030000
0E060000
0E0E0000
0E1C0000
0E380000
0E7C0000
0EFE0000
0FDE0000
0F8F0000
0F078000
0E07C000
0E03C000
0E01E000
0E01F000
0E00F000
0E007800
0E007C00
3F003E00
FFC0FF80
ENDCHAR
STARTCHAR uni212B
ENCODING 8491
SWIDTH 722 0
DWIDTH 23 0
BBX 23 32 0 0
BITMAP
007800
00CC00
008400
008400
00CC00
007800
000000
001000
003800
003800
007800
007C00
007C00
00DC00
00DE00
019E00
018E00
018F00
030700
030780
030780
060380
07FFC0
07FFC0
0C01C0
0C01E0
0C01E0
1800F0
1800F0
3800F8
7C01FC
FE03FE
ENDCHAR
STARTCHAR uni2132
ENCODING 8498
SWIDTH 667 0
DWIDTH 22 0
BBX 20 25 1 0
BITMAP
007FF0
001FC0
000700
000700
000700
000700
020700
020700
020700
030700
038700
03FF00
03FF00
03C700
030700
030700
820700
820700
800700
C00700
C00700
E00700
F80700
FFFFC0
FFFFF0
ENDCHAR
STARTCHAR universal
ENCODING 8704
SWIDTH 722 0
DWIDTH 23 0
BBX 23 25 0 0
BITMAP
FE03FE
7C01FC
3800F8
1800F0
1800F0
0C01E0
0C01E0
0C01C0
07FFC0
07FFC0
060380
030780
030780
030700
018F00
018E00
019E00
00DE00
00DC00
007C00
007C00
007800
003800
003800
001000
ENDCHAR
STARTCHAR existential
ENCODING 8707
SWIDTH 722 0
DWIDTH 24 0
BBX 20 25 1 0
BITMAP
FFFFF0
FFFFC0
F80700
E00700
E00700
C00700
C20700
820700
820700
030700
03C700
03FF00
03FF00
03C700
030700
030700
820700
820700
800700
C00700
C00700
E00700
F80700
FFFFC0
FFFFF0
ENDCHAR
STARTCHAR uni2204
ENCODING 8708
SWIDTH 722 0
DWIDTH 24 0
BBX 20 25 1 0
BITMAP
FFFFF0
FFFFC0
F80700
E00F00
E00F00
C00F00
C21F00
821F00
821F00
033700
03F700
03FF00
03FF00
03E700
036700
03C700
82C700
82C700
818700
C18700
C18700
E30700
FB0700
FFFFC0
FFFFF0
ENDCHAR
STARTCHAR minus
ENCODING 8722
SWIDTH 606 0
DWIDTH 20 0
BBX 16 2 2 7
BITMAP
FFFF
FFFF
ENDCHAR
STARTCHAR fraction
ENCODING 8725
SWIDTH 167 0
DWIDTH 6 0
BBX 16 23 -6 0
BITMAP
0001
0003
0006
000C
000C
0018
0030
0030
0060
00C0
00C0
0180
0300
0300
0600
0C00
0800
1800
3000
6000
6000
C000
8000
ENDCHAR
STARTCHAR periodcentered
ENCODING 8729
SWIDTH 278 0
DWIDTH 9 0
BBX 4 4 2 6
BITMAP
60
F0
F0
60
ENDCHAR
STARTCHAR uni2236
ENCODING 8758
SWIDTH 278 0
DWIDTH 9 0
BBX 4 16 3 0
BITMAP
60
F0
F0
60
00
00
00
00
00
00
00
00
60
F0
F0
60
ENDCHAR
STARTCHAR uni2259
ENCODING 8793
SWIDTH 606 0
DWIDTH 20 0
BBX 16 14 2 4
BITMAP
0180
03C0
07E0
0C30
1818
0000
FFFF
FFFF
0000
0000
0000
0000
FFFF
FFFF
ENDCHAR
STARTCHAR uni225A
ENCODING 8794
SWIDTH 606 0
DWIDTH 20 0
BBX 16 14 2 4
BITMAP
1818
0C30
07E0
03C0
0180
0000
FFFF
FFFF
0000
0000
0000
0000
FFFF
FFFF
ENDCHAR
STARTCHAR notequal
ENCODING 8800
SWIDTH 606 0
DWIDTH 20 0
BBX 16 25 2 -4
BITMAP
0018
0018
0018
0030
0030
0030
0060
0060
0060
FFFF
FFFF
00C0
0180
0180
0180
FFFF
FFFF
0300
0600
0600
0600
0C00
0C00
0C00
1800
ENDCHAR
STARTCHAR equivalence
ENCODING 8801
SWIDTH 606 0
DWIDTH 20 0
BBX 16 8 0 3
BITMAP
FFFF
FFFF
0000
FFFF
FFFF
0000
FFFF
FFFF
ENDCHAR
STARTCHAR uni2262
ENCODING 8802
SWIDTH 606 0
DWIDTH 20 0
BBX 16 25 0 -5
BITMAP
0018
0018
0018
0030
0030
0030
0060
0060
0060
FFFF
FFFF
00C0
FFFF
FFFF
0180
FFFF
FFFF
0300
0600
0600
0600
0C00
0C00
0C00
1800
ENDCHAR
STARTCHAR lessequal
ENCODING 8804
SWIDTH 606 0
DWIDTH 20 0
BBX 16 21 2 -4
BITMAP
0001
0007
001F
007C
01F0
07C0
1F00
7C00
F000
F000
7C00
1F00
07C0
01F0
007C
001F
0007
0001
0000
FFFF
FFFF
ENDCHAR
STARTCHAR greaterequal
ENCODING 8805
SWIDTH 606 0
DWIDTH 20 0
BBX 16 21 2 -4
BITMAP
8000
E000
F800
3E00
0F80
03E0
00F8
003E
000F
000F
003E
00F8
03E0
0F80
3E00
F800
E000
8000
0000
FFFF
FFFF
ENDCHAR
STARTCHAR uni226E
ENCODING 8814
SWIDTH 606 0
DWIDTH 20 0
BBX 16 25 2 -4
BITMAP
0018
0018
0018
0030
0031
0037
007F
007C
01F0
07C0
1FC0
7CC0
F180
F180
7D80
1F00
07C0
03F0
067C
061F
0607
0C01
0C00
0C00
1800
ENDCHAR
STARTCHAR uni226F
ENCODING 8815
SWIDTH 606 0
DWIDTH 20 0
BBX 16 25 2 -4
BITMAP
0018
0018
0018
0030
8030
E030
F860
3E60
0FE0
03E0
00F8
00FE
018F
018F
01BE
03F8
03E0
0F80
3E00
FE00
E600
8C00
0C00
0C00
1800
ENDCHAR
STARTCHAR uni2270
ENCODING 8816
SWIDTH 606 0
DWIDTH 20 0
BBX 16 25 2 -6
BITMAP
0018
0018
0019
0037
003F
007C
01F0
07E0
1F60
7CC0
F0C0
F0C0
7D80
1F80
07C0
03F0
037C
031F
0607
0601
0600
FFFF
FFFF
0C00
1800
ENDCHAR
STARTCHAR uni2271
ENCODING 8817
SWIDTH 606 0
DWIDTH 20 0
BBX 16 25 2 -6
BITMAP
0018
0018
8018
E030
F830
3E30
0FE0
03E0
00F8
00FE
00CF
00CF
01BE
01F8
03E0
0F80
3F00
FB00
E600
8600
0600
FFFF
FFFF
0C00
1800
ENDCHAR
STARTCHAR fi
ENCODING -1
SWIDTH 611 0
DWIDTH 20 0
BBX 19 25 0 0
BITMAP
01FC00
038E00
070E00
0E0E00
0E0E00
1C0000
1C0000
1C0000
1C0300
FFFF00
1C0F00
1C0700
1C0700
1C0700
1C0700
1C0700
1C0700
1C0700
1C0700
1C0700
1C0700
1C0700
1C0700
1C0700
FFBFE0
ENDCHAR
STARTCHAR fl
ENCODING -1
SWIDTH 611 0
DWIDTH 20 0
BBX 19 25 0 0
BITMAP
01FF00
038F00
070F00
0E0F00
0E0F00
1C0700
1C0700
1C0700
1C0700
FFFF00
1C0700
1C0700
1C0700
1C0700
1C0700
1C0700
1C0700
1C0700
1C0700
1C0700
1C0700
1C0700
1C0700
1C0700
FFBFE0
ENDCHAR
ENDFONT
